<?xml version="1.0" encoding="utf-8"?>
<!-- Generator: Adobe Illustrator 23.1.1, SVG Export Plug-In . SVG Version: 6.00 Build 0)  -->
<svg version="1.1" xmlns="http://www.w3.org/2000/svg" xmlns:xlink="http://www.w3.org/1999/xlink" x="0px" y="0px"
	 viewBox="0 0 24 24" style="enable-background:new 0 0 24 24;" xml:space="preserve">
<style type="text/css">
	.st0{display:none;}
	.st1{fill:#E26C2D;}
	.st2{fill:#EA8C55;}
	.st3{fill:#5DA043;}
</style>
<g id="Layer_2" class="st0">
	
		<image style="display:inline;overflow:visible;" width="378" height="444" xlink:href="../../../../../../Pictures/Screenshots/Screen Shot 2019-11-16 at 10.33.53 AM.png"  transform="matrix(7.230990e-02 -2.221102e-02 1.877194e-02 6.111366e-02 -6.2592 3.7606)">
	</image>
</g>
<g id="Layer_1">
	<g id="Layer_3" class="st0">
		
			<image style="display:inline;overflow:visible;enable-background:new    ;" width="150" height="132" xlink:href="../../../../../../Pictures/Screenshots/Screen Shot 2019-11-13 at 3.22.14 PM.png"  transform="matrix(0.1936 0 0 0.2 -3.0277 0.1866)">
		</image>
	</g>
	<g id="XMLID_1_">
		<g>
			<rect x="19" y="20" class="st1" width="1" height="1"/>
			<rect x="18" y="18" class="st2" width="1" height="1"/>
			<rect x="18" y="19" class="st1" width="1" height="1"/>
			<rect x="17" y="17" class="st2" width="1" height="1"/>
			<rect x="17" y="19" class="st1" width="1" height="1"/>
			<rect x="17" y="18" class="st1" width="1" height="1"/>
			<rect x="16" y="15" class="st2" width="1" height="1"/>
			<rect x="16" y="16" class="st1" width="1" height="1"/>
			<rect x="14" y="16" class="st1" width="1" height="1"/>
			<rect x="12" y="15" class="st1" width="1" height="1"/>
			<rect x="15" y="16" class="st1" width="1" height="1"/>
			<rect x="14" y="14" class="st1" width="1" height="1"/>
			<rect x="15" y="14" class="st2" width="1" height="1"/>
			<rect x="15" y="15" class="st1" width="1" height="1"/>
			<rect x="14" y="15" class="st1" width="1" height="1"/>
			<rect x="15" y="17" class="st1" width="1" height="1"/>
			<rect x="13" y="15" class="st1" width="1" height="1"/>
			<rect x="12" y="11" class="st2" width="1" height="1"/>
			<rect x="12" y="13" class="st1" width="1" height="1"/>
			<rect x="11" y="12" class="st1" width="1" height="1"/>
			<rect x="11" y="13" class="st1" width="1" height="1"/>
			<rect x="11" y="11" class="st1" width="1" height="1"/>
			<rect x="11" y="9" class="st2" width="1" height="1"/>
			<rect x="12" y="10" class="st2" width="1" height="1"/>
			<rect x="12" y="12" class="st1" width="1" height="1"/>
			<rect x="14" y="12" class="st2" width="1" height="1"/>
			<rect x="11" y="10" class="st2" width="1" height="1"/>
			<rect x="11" y="14" class="st1" width="1" height="1"/>
			<rect x="10" y="9" class="st1" width="1" height="1"/>
			<rect x="12" y="9" class="st2" width="1" height="1"/>
			<rect x="9" y="10" class="st1" width="1" height="1"/>
			<rect x="9" y="11" class="st1" width="1" height="1"/>
			<rect x="13" y="11" class="st2" width="1" height="1"/>
			<rect x="10" y="12" class="st1" width="1" height="1"/>
			<rect x="10" y="10" class="st1" width="1" height="1"/>
			<rect x="13" y="12" class="st2" width="1" height="1"/>
			<rect x="10" y="11" class="st1" width="1" height="1"/>
			<rect x="9" y="8" class="st3" width="1" height="1"/>
			<rect x="8" y="7" class="st3" width="1" height="1"/>
			<rect x="8" y="6" class="st3" width="1" height="1"/>
			<rect x="8" y="4" class="st3" width="1" height="1"/>
			<rect x="8" y="5" class="st3" width="1" height="1"/>
			<rect x="7" y="4" class="st3" width="1" height="1"/>
			<rect x="7" y="7" class="st3" width="1" height="1"/>
			<rect x="5" y="4" class="st3" width="1" height="1"/>
			<rect x="5" y="3" class="st3" width="1" height="1"/>
			<rect x="4" y="3" class="st3" width="1" height="1"/>
			<rect x="20" y="21" width="1" height="1"/>
			<rect x="20" y="20" width="1" height="1"/>
			<rect x="19" y="21" width="1" height="1"/>
			<rect x="19" y="19" width="1" height="1"/>
			<rect x="19" y="18" width="1" height="1"/>
			<rect x="18" y="20" width="1" height="1"/>
			<rect x="18" y="17" width="1" height="1"/>
			<rect x="18" y="16" width="1" height="1"/>
			<rect x="17" y="20" width="1" height="1"/>
			<rect x="17" y="16" width="1" height="1"/>
			<rect x="17" y="15" width="1" height="1"/>
			<rect x="16" y="19" width="1" height="1"/>
			<rect x="16" y="18" width="1" height="1"/>
			<rect x="16" y="17" width="1" height="1"/>
			<rect x="16" y="14" width="1" height="1"/>
			<rect x="16" y="13" width="1" height="1"/>
			<rect x="15" y="18" width="1" height="1"/>
			<rect x="15" y="13" width="1" height="1"/>
			<rect x="15" y="12" width="1" height="1"/>
			<rect x="15" y="11" width="1" height="1"/>
			<rect x="14" y="17" width="1" height="1"/>
			<rect x="14" y="13" width="1" height="1"/>
			<rect x="14" y="11" width="1" height="1"/>
			<rect x="14" y="10" width="1" height="1"/>
			<rect x="13" y="16" width="1" height="1"/>
			<rect x="13" y="14" width="1" height="1"/>
			<rect x="13" y="13" width="1" height="1"/>
			<rect x="13" y="10" width="1" height="1"/>
			<rect x="13" y="9" width="1" height="1"/>
			<rect x="12" y="16" width="1" height="1"/>
			<rect x="12" y="14" width="1" height="1"/>
			<rect x="12" y="8" width="1" height="1"/>
			<rect x="11" y="15" width="1" height="1"/>
			<rect x="11" y="8" width="1" height="1"/>
			<rect x="10" y="14" width="1" height="1"/>
			<rect x="10" y="13" width="1" height="1"/>
			<rect x="10" y="8" width="1" height="1"/>
			<rect x="9" y="13" width="1" height="1"/>
			<rect x="9" y="12" width="1" height="1"/>
			<rect x="9" y="9" width="1" height="1"/>
			<rect x="9" y="7" width="1" height="1"/>
			<rect x="9" y="6" width="1" height="1"/>
			<rect x="9" y="5" width="1" height="1"/>
			<rect x="9" y="4" width="1" height="1"/>
			<rect x="8" y="11" width="1" height="1"/>
			<rect x="8" y="10" width="1" height="1"/>
			<rect x="8" y="9" width="1" height="1"/>
			<rect x="8" y="8" width="1" height="1"/>
			<rect x="8" y="3" width="1" height="1"/>
			<rect x="7" y="8" width="1" height="1"/>
			<rect x="7" y="6" class="st3" width="1" height="1"/>
			<rect x="7" y="5" width="1" height="1"/>
			<rect x="7" y="3" width="1" height="1"/>
			<rect x="7" y="2" width="1" height="1"/>
			<rect x="6" y="8" width="1" height="1"/>
			<rect x="6" y="7" class="st3" width="1" height="1"/>
			<rect x="6" y="6" width="1" height="1"/>
			<rect x="6" y="5" class="st3" width="1" height="1"/>
			<rect x="6" y="4" width="1" height="1"/>
			<rect x="6" y="3" width="1" height="1"/>
			<rect x="6" y="2" width="1" height="1"/>
			<rect x="5" y="7" width="1" height="1"/>
			<rect x="5" y="6" class="st3" width="1" height="1"/>
			<rect x="5" y="5" width="1" height="1"/>
			<rect x="5" y="2" width="1" height="1"/>
			<rect x="4" y="7" width="1" height="1"/>
			<rect x="4" y="6" class="st3" width="1" height="1"/>
			<rect x="4" y="5" width="1" height="1"/>
			<rect x="4" y="4" width="1" height="1"/>
			<rect x="4" y="2" width="1" height="1"/>
			<rect x="3" y="7" width="1" height="1"/>
			<rect x="3" y="6" class="st3" width="1" height="1"/>
			<rect x="3" y="5" class="st3" width="1" height="1"/>
			<rect x="3" y="4" width="1" height="1"/>
			<rect x="3" y="3" width="1" height="1"/>
			<rect x="2" y="6" width="1" height="1"/>
			<rect x="2" y="5" width="1" height="1"/>
		</g>
		<g>
		</g>
	</g>
</g>
</svg>
