<?xml version="1.0" encoding="utf-8"?>
<!-- Generator: Adobe Illustrator 23.1.1, SVG Export Plug-In . SVG Version: 6.00 Build 0)  -->
<svg version="1.1" xmlns="http://www.w3.org/2000/svg" xmlns:xlink="http://www.w3.org/1999/xlink" x="0px" y="0px"
	 viewBox="0 0 24 24" style="enable-background:new 0 0 24 24;" xml:space="preserve">
<style type="text/css">
	.st0{display:none;}
	.st1{display:inline;}
	.st2{fill:#813405;}
	.st3{fill:#D3A32A;}
	.st4{fill:#FFD932;}
	.st5{fill:#B9D2B1;}
</style>
<g id="Layer_2" class="st0">
	<g id="H1Bw0I_1_" class="st1">
		
			<image style="overflow:visible;" width="500" height="500" id="H1Bw0I" xlink:href="2441DD3D1FCF7066.jpg"  transform="matrix(3.682191e-02 1.723945e-02 -2.080348e-02 4.443436e-02 8.9954 -3.3198)">
		</image>
	</g>
</g>
<g id="Layer_1">
	<g id="XMLID_1_">
		<g>
			<rect x="6" y="3" width="1" height="1"/>
			<rect x="13" y="19" width="1" height="1"/>
			<rect x="12" y="19" width="1" height="1"/>
			<rect x="11" y="19" width="1" height="1"/>
			<rect x="9" y="18" width="1" height="1"/>
			<rect x="4" y="14" width="1" height="1"/>
			<rect x="5" y="15" width="1" height="1"/>
			<rect x="6" y="17" width="1" height="1"/>
			<rect x="6" y="16" width="1" height="1"/>
			<rect x="7" y="17" width="1" height="1"/>
			<rect x="8" y="18" width="1" height="1"/>
			<rect x="21" y="17" width="1" height="1"/>
			<rect x="21" y="16" width="1" height="1"/>
			<rect x="20" y="17" width="1" height="1"/>
			<rect x="20" y="16" class="st2" width="1" height="1"/>
			<rect x="20" y="15" width="1" height="1"/>
			<rect x="19" y="18" width="1" height="1"/>
			<rect x="19" y="17" class="st3" width="1" height="1"/>
			<rect x="19" y="16" class="st4" width="1" height="1"/>
			<rect x="19" y="15" width="1" height="1"/>
			<rect x="18" y="18" width="1" height="1"/>
			<rect x="18" y="17" class="st3" width="1" height="1"/>
			<rect x="18" y="16" class="st4" width="1" height="1"/>
			<rect x="18" y="15" width="1" height="1"/>
			<rect x="17" y="18" width="1" height="1"/>
			<rect x="17" y="17" class="st4" width="1" height="1"/>
			<rect x="17" y="16" class="st4" width="1" height="1"/>
			<rect x="17" y="15" width="1" height="1"/>
			<rect x="16" y="19" width="1" height="1"/>
			<rect x="16" y="18" class="st3" width="1" height="1"/>
			<rect x="16" y="17" class="st4" width="1" height="1"/>
			<rect x="16" y="16" class="st4" width="1" height="1"/>
			<rect x="16" y="15" class="st4" width="1" height="1"/>
			<rect x="16" y="14" width="1" height="1"/>
			<rect x="15" y="19" width="1" height="1"/>
			<rect x="15" y="18" class="st3" width="1" height="1"/>
			<rect x="15" y="17" class="st4" width="1" height="1"/>
			<rect x="15" y="16" class="st4" width="1" height="1"/>
			<rect x="15" y="15" class="st4" width="1" height="1"/>
			<rect x="15" y="14" width="1" height="1"/>
			<rect x="14" y="19" width="1" height="1"/>
			<rect x="14" y="18" class="st3" width="1" height="1"/>
			<rect x="14" y="17" class="st4" width="1" height="1"/>
			<rect x="14" y="16" class="st4" width="1" height="1"/>
			<rect x="14" y="15" class="st4" width="1" height="1"/>
			<rect x="14" y="14" width="1" height="1"/>
			<rect x="13" y="18" class="st3" width="1" height="1"/>
			<rect x="13" y="17" class="st4" width="1" height="1"/>
			<rect x="13" y="16" class="st4" width="1" height="1"/>
			<rect x="13" y="15" class="st4" width="1" height="1"/>
			<rect x="13" y="14" width="1" height="1"/>
			<rect x="12" y="18" class="st3" width="1" height="1"/>
			<rect x="12" y="17" class="st4" width="1" height="1"/>
			<rect x="12" y="16" class="st4" width="1" height="1"/>
			<rect x="12" y="15" class="st4" width="1" height="1"/>
			<rect x="12" y="14" class="st4" width="1" height="1"/>
			<rect x="12" y="13" width="1" height="1"/>
			<rect x="11" y="18" class="st3" width="1" height="1"/>
			<rect x="11" y="17" class="st3" width="1" height="1"/>
			<rect x="11" y="16" class="st4" width="1" height="1"/>
			<rect x="11" y="15" class="st4" width="1" height="1"/>
			<rect x="11" y="14" class="st4" width="1" height="1"/>
			<rect x="11" y="13" width="1" height="1"/>
			<rect x="11" y="12" width="1" height="1"/>
			<rect x="10" y="18" width="1" height="1"/>
			<rect x="10" y="17" class="st3" width="1" height="1"/>
			<rect x="10" y="16" class="st4" width="1" height="1"/>
			<rect x="10" y="15" class="st4" width="1" height="1"/>
			<rect x="10" y="14" class="st4" width="1" height="1"/>
			<rect x="10" y="13" class="st4" width="1" height="1"/>
			<rect x="10" y="12" width="1" height="1"/>
			<rect x="9" y="17" class="st3" width="1" height="1"/>
			<rect x="9" y="16" class="st3" width="1" height="1"/>
			<rect x="9" y="15" class="st4" width="1" height="1"/>
			<rect x="9" y="14" class="st4" width="1" height="1"/>
			<rect x="9" y="13" class="st4" width="1" height="1"/>
			<rect x="9" y="12" class="st4" width="1" height="1"/>
			<rect x="9" y="11" width="1" height="1"/>
			<rect x="8" y="17" class="st3" width="1" height="1"/>
			<rect x="8" y="16" class="st3" width="1" height="1"/>
			<rect x="8" y="15" class="st3" width="1" height="1"/>
			<rect x="8" y="14" class="st4" width="1" height="1"/>
			<rect x="8" y="13" class="st4" width="1" height="1"/>
			<rect x="8" y="12" class="st4" width="1" height="1"/>
			<rect x="8" y="11" class="st4" width="1" height="1"/>
			<rect x="8" y="10" width="1" height="1"/>
			<rect x="8" y="9" width="1" height="1"/>
			<rect x="7" y="16" class="st3" width="1" height="1"/>
			<rect x="7" y="15" class="st3" width="1" height="1"/>
			<rect x="7" y="14" class="st4" width="1" height="1"/>
			<rect x="7" y="13" class="st4" width="1" height="1"/>
			<rect x="7" y="12" class="st4" width="1" height="1"/>
			<rect x="7" y="11" class="st4" width="1" height="1"/>
			<rect x="7" y="10" class="st4" width="1" height="1"/>
			<rect x="7" y="9" class="st4" width="1" height="1"/>
			<rect x="7" y="8" width="1" height="1"/>
			<rect x="7" y="7" width="1" height="1"/>
			<rect x="7" y="6" width="1" height="1"/>
			<rect x="7" y="5" width="1" height="1"/>
			<rect x="7" y="4" width="1" height="1"/>
			<rect x="6" y="15" class="st3" width="1" height="1"/>
			<rect x="6" y="14" class="st3" width="1" height="1"/>
			<rect x="6" y="13" class="st3" width="1" height="1"/>
			<rect x="6" y="12" class="st4" width="1" height="1"/>
			<rect x="6" y="11" class="st4" width="1" height="1"/>
			<rect x="6" y="10" class="st4" width="1" height="1"/>
			<rect x="6" y="9" class="st4" width="1" height="1"/>
			<rect x="6" y="8" class="st4" width="1" height="1"/>
			<rect x="6" y="7" class="st4" width="1" height="1"/>
			<rect x="6" y="6" class="st5" width="1" height="1"/>
			<rect x="6" y="5" class="st5" width="1" height="1"/>
			<rect x="6" y="4" class="st2" width="1" height="1"/>
			<rect x="5" y="14" class="st3" width="1" height="1"/>
			<rect x="5" y="13" class="st3" width="1" height="1"/>
			<rect x="5" y="12" class="st3" width="1" height="1"/>
			<rect x="5" y="11" class="st4" width="1" height="1"/>
			<rect x="5" y="10" class="st4" width="1" height="1"/>
			<rect x="5" y="9" class="st4" width="1" height="1"/>
			<rect x="5" y="8" class="st4" width="1" height="1"/>
			<rect x="5" y="7" class="st4" width="1" height="1"/>
			<rect x="5" y="6" width="1" height="1"/>
			<rect x="5" y="5" width="1" height="1"/>
			<rect x="5" y="4" width="1" height="1"/>
			<rect x="4" y="13" width="1" height="1"/>
			<rect x="4" y="12" class="st3" width="1" height="1"/>
			<rect x="4" y="11" class="st3" width="1" height="1"/>
			<rect x="4" y="10" class="st3" width="1" height="1"/>
			<rect x="4" y="9" class="st3" width="1" height="1"/>
			<rect x="4" y="8" width="1" height="1"/>
			<rect x="4" y="7" width="1" height="1"/>
			<rect x="3" y="12" width="1" height="1"/>
			<rect x="3" y="11" width="1" height="1"/>
			<rect x="3" y="10" width="1" height="1"/>
			<rect x="3" y="9" width="1" height="1"/>
		</g>
		<g>
		</g>
	</g>
</g>
</svg>
