<?xml version="1.0" encoding="utf-8"?>
<!-- Generator: Adobe Illustrator 23.1.1, SVG Export Plug-In . SVG Version: 6.00 Build 0)  -->
<svg version="1.1" xmlns="http://www.w3.org/2000/svg" xmlns:xlink="http://www.w3.org/1999/xlink" x="0px" y="0px"
	 viewBox="0 0 24 24" style="enable-background:new 0 0 24 24;" xml:space="preserve">
<style type="text/css">
	.st0{display:none;}
	.st1{fill:#301F1E;}
	.st2{fill:#764248;}
	.st3{fill:#F2D0A4;}
</style>
<g id="Layer_2" class="st0">
</g>
<g id="Layer_3">
	<g id="XMLID_1_">
		<g>
			<rect x="15" y="14" width="1" height="1"/>
			<rect x="15" y="13" width="1" height="1"/>
			<rect x="15" y="12" width="1" height="1"/>
			<rect x="15" y="11" width="1" height="1"/>
			<rect x="14" y="16" width="1" height="1"/>
			<rect x="14" y="15" width="1" height="1"/>
			<rect x="14" y="14" class="st1" width="1" height="1"/>
			<rect x="14" y="13" class="st1" width="1" height="1"/>
			<rect x="14" y="12" class="st1" width="1" height="1"/>
			<rect x="14" y="11" class="st1" width="1" height="1"/>
			<rect x="14" y="10" width="1" height="1"/>
			<rect x="13" y="16" width="1" height="1"/>
			<rect x="13" y="15" class="st1" width="1" height="1"/>
			<rect x="13" y="14" class="st1" width="1" height="1"/>
			<rect x="13" y="13" class="st1" width="1" height="1"/>
			<rect x="13" y="12" class="st2" width="1" height="1"/>
			<rect x="13" y="11" class="st2" width="1" height="1"/>
			<rect x="13" y="10" width="1" height="1"/>
			<rect x="12" y="17" width="1" height="1"/>
			<rect x="12" y="16" class="st2" width="1" height="1"/>
			<rect x="12" y="15" class="st1" width="1" height="1"/>
			<rect x="12" y="14" class="st2" width="1" height="1"/>
			<rect x="12" y="13" class="st2" width="1" height="1"/>
			<rect x="12" y="12" class="st2" width="1" height="1"/>
			<rect x="12" y="11" width="1" height="1"/>
			<rect x="12" y="10" width="1" height="1"/>
			<rect x="11" y="17" width="1" height="1"/>
			<rect x="11" y="16" class="st1" width="1" height="1"/>
			<rect x="11" y="15" class="st1" width="1" height="1"/>
			<rect x="11" y="14" class="st2" width="1" height="1"/>
			<rect x="11" y="13" class="st3" width="1" height="1"/>
			<rect x="11" y="12" width="1" height="1"/>
			<rect x="11" y="11" width="1" height="1"/>
			<rect x="10" y="17" width="1" height="1"/>
			<rect x="10" y="16" class="st1" width="1" height="1"/>
			<rect x="10" y="15" class="st1" width="1" height="1"/>
			<rect x="10" y="14" class="st2" width="1" height="1"/>
			<rect x="10" y="13" width="1" height="1"/>
			<rect x="9" y="17" width="1" height="1"/>
			<rect x="9" y="16" class="st1" width="1" height="1"/>
			<rect x="9" y="15" class="st1" width="1" height="1"/>
			<rect x="9" y="14" width="1" height="1"/>
			<rect x="9" y="13" width="1" height="1"/>
			<rect x="8" y="17" width="1" height="1"/>
			<rect x="8" y="16" width="1" height="1"/>
			<rect x="8" y="15" width="1" height="1"/>
			<rect x="8" y="14" width="1" height="1"/>
		</g>
		<g>
		</g>
	</g>
</g>
</svg>
