<?xml version="1.0" encoding="utf-8"?>
<!-- Generator: Adobe Illustrator 23.1.1, SVG Export Plug-In . SVG Version: 6.00 Build 0)  -->
<svg version="1.1" xmlns="http://www.w3.org/2000/svg" xmlns:xlink="http://www.w3.org/1999/xlink" x="0px" y="0px"
	 viewBox="0 0 24 24" style="enable-background:new 0 0 24 24;" xml:space="preserve">
<style type="text/css">
	.st0{display:none;}
	.st1{display:inline;}
	.st2{fill:#7E6976;}
	.st3{fill:#606060;}
	.st4{fill:#BEBBBB;}
	.st5{fill:#F08A4B;}
	.st6{fill:#5DA043;}
	.st7{fill:#E55934;}
</style>
<g id="Layer_2" class="st0">
	<g class="st1">
		<g>
			<path class="st2" d="M7.5,6.4c1.6,0.6,2.7,2,2.9,3.7c0-0.1,0.9-0.4,0.9-0.5c-0.2-1.3-1-2.4-2.2-3C7.9,5.9,6.7,6.1,5.6,6.7
				C4.5,7.4,3.9,8.3,3.5,9.5c-0.4,1.4-0.4,3,0,4.4c0.4,1.3,1.3,2.7,2.7,2.9c0.7,0.1,1.5,0,2.2-0.1c0.8-0.1,1.6-0.2,2.3-0.5
				c0.9-0.3,1.9-0.9,2.7-1.6c1.1-1,1.6-2.5,1.7-4c0.1-1.5-0.1-3.6-1.2-4.8c-1.3-1.4-3.4-0.6-4.8,0.1C8.8,6.2,8.5,6.4,8.2,6.6
				c1-0.5,2.1-1,3.2-0.9c1.1,0.1,1.8,0.8,2.3,1.7c0.8,1.9,0.8,4.6-0.1,6.4c-0.2,0.4-0.5,0.8-0.8,1.1c-0.2,0.2-0.4,0.4-0.6,0.5
				c-0.1,0.1-0.6,0.4-0.2,0.1c0.5-0.3-0.1,0-0.3,0.1c-1,0.4-2.1,0.5-3.2,0.7c-1.1,0.1-2.1,0-2.9-0.7C5,15,4.5,14,4.3,13
				C4,11.9,4,10.7,4.2,9.6C4.4,9,4.6,8.4,4.8,7.9C5,7.7,5.1,7.5,5.2,7.3C5.3,7.1,5.4,7,5.5,6.9c0.1-0.1,0.5-0.4-0.1-0.1
				c0,0-0.1,0-0.1,0.1c2.2-1,4.8,0.8,5.1,3.1c0.3-0.2,0.6-0.3,0.9-0.5C11,7.9,9.9,6.5,8.3,5.9C8.1,5.8,7.6,6.4,7.5,6.4L7.5,6.4z"/>
		</g>
	</g>
	<g class="st1">
		<g>
			<path class="st2" d="M8.5,5.9c0.2-0.6,0.5-1.2,0.8-1.7c0.1-0.3,0.3-0.5,0.4-0.8c0.1-0.2,0.3-0.6,0.5-0.7C9.9,2.8,9.6,3,9.3,3.1
				c0.1,0,0.1,0,0.2,0.1c0,0.1,0,0.1,0,0.2c0,0.1,0,0.2,0,0.4C9.4,4,9.3,4.3,9.2,4.5C9,5,8.7,5.5,8.3,5.9c0,0,0.1-0.1,0.1-0.1
				c0.1-0.1,0.2-0.1,0.3-0.2C8.8,5.6,8.9,5.5,9,5.5c0,0,0.1,0,0.1-0.1C9.5,5,9.8,4.6,10,4.2c0.1-0.2,0.2-0.4,0.3-0.7
				c0.1-0.2,0.2-0.5,0.1-0.7c0,0,0-0.1,0-0.1c0-0.1,0-0.1-0.1-0.1c-0.1,0-0.3,0.1-0.4,0.2C9.6,3,9.3,3.1,9.1,3.4
				C8.8,3.8,8.6,4.3,8.3,4.8C8.1,5.3,7.8,5.9,7.6,6.4c0,0,0.1-0.1,0.1-0.1C7.8,6.3,7.9,6.3,8,6.2C8.2,6.1,8.3,6.1,8.4,6
				C8.4,6,8.5,6,8.5,5.9L8.5,5.9z"/>
		</g>
	</g>
	<g class="st1">
		<g>
			<path class="st2" d="M10.9,8.6C10.1,7.4,9.1,6,7.5,5.5C6.4,5.2,5.4,5.7,4.4,6.3C3.2,7.1,2.6,8.6,2.6,10c-0.1,1.4,0.2,3.2,1,4.4
				c1.1,1.5,3.3,1.9,5,2.1c0.3,0,0.6-0.5,0.9-0.5c-1.7-0.2-3.9-0.6-5-2.1c-1-1.3-1.2-3.5-1-5.1C3.6,8,3.9,7.2,4.4,6.6
				c0.1-0.2,0.3-0.3,0.4-0.4C4.9,6.1,5,6,5.1,6C4.8,6.1,4.8,6.1,5,6.1C5.4,6,5.7,5.9,6.1,5.9C8,6.1,9.1,7.7,10,9.1
				C10.1,9.2,10.9,8.6,10.9,8.6L10.9,8.6z"/>
		</g>
	</g>
	<g class="st1">
		<g>
			<path class="st2" d="M7.3,13.9c-0.2,0.6-0.4,1.2-0.6,1.8c-0.1,0.5-0.4,1-0.4,1.5c-0.1,1,0.9,1.6,1.6,2.1c1.7,1.1,3.8,1.5,5.8,1.4
				c1.8,0,3.7-0.4,5.4-1.3c1.3-0.7,2.6-1.5,3.4-2.8c-0.2,0.2-0.7,0.2-0.9,0.5c-0.4,0.7-1,1.3-1.6,1.7c-0.1,0.1-0.7,0.4-0.2,0.2
				c-0.2,0.1-0.5,0.2-0.7,0.3c-0.4,0.2-0.8,0.3-1.2,0.4c-1.6,0.4-3.3,0.6-5,0.4c-1.7-0.2-3.4-0.7-4.7-1.8c-0.7-0.5-1.1-1.1-0.9-2
				c0.3-1,0.6-1.9,0.9-2.8C8.1,13.6,7.4,13.7,7.3,13.9L7.3,13.9z"/>
		</g>
	</g>
	<g class="st1">
		<g>
			<path class="st2" d="M8,14.1c1.8,1.2,4,0.7,6.1,0.8c2,0.1,4,0.2,5.8-0.8c0.6-0.3,1.2-0.7,1.6-1.2c0.1-0.1,0.2-0.2,0.2-0.3
				c0.1-0.2,0.1-0.1,0-0.2c-0.1-0.1-0.6-0.2-0.7-0.2c-0.6-0.2-1.1-0.3-1.7-0.4c-2.2-0.4-4.5-0.5-6.7-0.1c-1.1,0.2-2.4,0.5-3.4,1
				c-0.5,0.2-1.5,0.7-1.2,1.4c0,0,0.9-0.5,0.9-0.5c-0.2-0.4,0-0.6,0.3-0.8c-0.3,0.2-0.6,0.3-0.9,0.5c2-1,4.4-1.3,6.6-1.3
				c1.1,0,2.2,0.1,3.3,0.3c0.5,0.1,1,0.2,1.5,0.4c0.3,0.1,0.6,0.2,0.8,0.3c0.1,0,0.3,0.1,0.4,0.1c-0.1,0.1-0.1,0.2-0.2,0.3
				c-0.6,0.8-1.1,1-2.2,1.1c-1.2,0.2-2.4,0.1-3.5,0c-2.1-0.1-4.4,0.3-6.2-0.8C8.7,13.6,8.1,14.2,8,14.1L8,14.1z"/>
		</g>
	</g>
	<g class="st1">
		<g>
			<path class="st2" d="M21.3,13.7c0-0.1,0.1-0.2,0.1-0.4c-0.3,0.2-0.6,0.3-0.9,0.5c0.1,1.2,0,2.4-0.3,3.6c0.3-0.2,0.6-0.3,0.9-0.5
				c0-0.8,0.2-1.6,0.6-2.3c-0.3,0.2-0.6,0.3-0.9,0.5c0.1,1,0.1,1.9-0.2,2.9c0,0,0.1-0.1,0.1-0.1c0.1-0.1,0.2-0.1,0.3-0.2
				c0.1-0.1,0.2-0.1,0.3-0.2c0,0,0.1-0.1,0.1-0.1c0.2-0.9,0.3-1.9,0.2-2.9c0,0-0.4,0.2-0.4,0.2C21.2,14.9,21.1,15,21,15
				c0,0-0.1,0-0.1,0.1c-0.4,0.7-0.6,1.5-0.6,2.3c0,0,0.4-0.2,0.4-0.2c0.1-0.1,0.2-0.1,0.3-0.2c0,0,0.1-0.1,0.1-0.1
				c0.3-1.2,0.5-2.4,0.3-3.6c0,0-0.4,0.2-0.4,0.2c-0.1,0.1-0.2,0.1-0.3,0.2c0,0-0.1,0.1-0.1,0.1c0,0.1-0.1,0.2-0.1,0.4
				c0,0,0.1-0.1,0.1-0.1c0.1-0.1,0.2-0.1,0.3-0.2c0.1-0.1,0.2-0.1,0.3-0.2C21.2,13.8,21.3,13.8,21.3,13.7L21.3,13.7z"/>
		</g>
	</g>
	<g class="st1">
		<g>
			<path class="st2" d="M6.4,14.2c0,1.3,0.2,2.6,0.5,3.9c0,0,0.4-0.2,0.4-0.2c0.1-0.1,0.2-0.1,0.3-0.2c0,0,0.1-0.1,0.1-0.1
				c0.1-0.8,0.3-1.7,0.4-2.5c-0.3,0.2-0.6,0.3-0.9,0.5c0.2,1.1,0.2,2.2,0.2,3.3c0,0,0.4-0.2,0.4-0.2c0.1,0,0.4-0.2,0.4-0.3
				c0-1,0.1-2,0.1-3c0,0-0.4,0.2-0.4,0.2c-0.1,0-0.4,0.2-0.4,0.3c0,1-0.1,2-0.1,3c0.3-0.2,0.6-0.3,0.9-0.5c0-1.1,0.1-2.2-0.2-3.3
				c0,0-0.4,0.2-0.4,0.2c-0.1,0.1-0.2,0.1-0.3,0.2c0,0-0.1,0.1-0.1,0.1c-0.1,0.8-0.3,1.7-0.4,2.5c0.3-0.2,0.6-0.3,0.9-0.5
				c-0.3-1.3-0.4-2.6-0.5-3.9c0,0-0.4,0.2-0.4,0.2C6.8,14,6.4,14.2,6.4,14.2L6.4,14.2z"/>
		</g>
	</g>
</g>
<g id="Layer_4">
</g>
<g id="Layer_3">
	<g id="XMLID_1_">
		<g>
			<rect x="18" y="11" width="1" height="1"/>
			<rect x="20" y="12" width="1" height="1"/>
			<rect x="21" y="13" width="1" height="1"/>
			<rect x="21" y="14" width="1" height="1"/>
			<rect x="21" y="18" width="1" height="1"/>
			<rect x="21" y="17" width="1" height="1"/>
			<rect x="21" y="16" width="1" height="1"/>
			<rect x="21" y="15" width="1" height="1"/>
			<rect x="20" y="19" width="1" height="1"/>
			<rect x="20" y="18" width="1" height="1"/>
			<rect x="20" y="17" class="st3" width="1" height="1"/>
			<rect x="20" y="16" class="st3" width="1" height="1"/>
			<rect x="20" y="15" class="st3" width="1" height="1"/>
			<rect x="20" y="14" width="1" height="1"/>
			<rect x="20" y="13" width="1" height="1"/>
			<rect x="19" y="19" width="1" height="1"/>
			<rect x="19" y="18" class="st3" width="1" height="1"/>
			<rect x="19" y="17" class="st3" width="1" height="1"/>
			<rect x="19" y="16" class="st3" width="1" height="1"/>
			<rect x="19" y="15" class="st3" width="1" height="1"/>
			<rect x="19" y="14" width="1" height="1"/>
			<rect x="19" y="13" class="st4" width="1" height="1"/>
			<rect x="19" y="12" width="1" height="1"/>
			<rect x="18" y="19" width="1" height="1"/>
			<rect x="18" y="18" class="st3" width="1" height="1"/>
			<rect x="18" y="17" class="st3" width="1" height="1"/>
			<rect x="18" y="16" class="st3" width="1" height="1"/>
			<rect x="18" y="15" class="st3" width="1" height="1"/>
			<rect x="18" y="14" width="1" height="1"/>
			<rect x="18" y="13" class="st4" width="1" height="1"/>
			<rect x="18" y="12" class="st4" width="1" height="1"/>
			<rect x="17" y="20" width="1" height="1"/>
			<rect x="17" y="19" class="st3" width="1" height="1"/>
			<rect x="17" y="18" class="st3" width="1" height="1"/>
			<rect x="17" y="17" class="st3" width="1" height="1"/>
			<rect x="17" y="16" class="st3" width="1" height="1"/>
			<rect x="17" y="15" width="1" height="1"/>
			<rect x="17" y="14" class="st4" width="1" height="1"/>
			<rect x="17" y="13" class="st4" width="1" height="1"/>
			<rect x="17" y="12" class="st4" width="1" height="1"/>
			<rect x="17" y="11" width="1" height="1"/>
			<rect x="16" y="20" width="1" height="1"/>
			<rect x="16" y="19" class="st3" width="1" height="1"/>
			<rect x="16" y="18" class="st3" width="1" height="1"/>
			<rect x="16" y="17" class="st3" width="1" height="1"/>
			<rect x="16" y="16" class="st3" width="1" height="1"/>
			<rect x="16" y="15" width="1" height="1"/>
			<rect x="16" y="14" class="st4" width="1" height="1"/>
			<rect x="16" y="13" class="st4" width="1" height="1"/>
			<rect x="16" y="12" class="st4" width="1" height="1"/>
			<rect x="16" y="11" width="1" height="1"/>
			<rect x="15" y="20" width="1" height="1"/>
			<rect x="15" y="19" class="st3" width="1" height="1"/>
			<rect x="15" y="18" class="st3" width="1" height="1"/>
			<rect x="15" y="17" class="st3" width="1" height="1"/>
			<rect x="15" y="16" class="st3" width="1" height="1"/>
			<rect x="15" y="15" width="1" height="1"/>
			<rect x="15" y="14" class="st4" width="1" height="1"/>
			<rect x="15" y="13" class="st4" width="1" height="1"/>
			<rect x="15" y="12" class="st4" width="1" height="1"/>
			<rect x="15" y="11" width="1" height="1"/>
			<rect x="15" y="10" width="1" height="1"/>
			<rect x="15" y="9" width="1" height="1"/>
			<rect x="14" y="20" width="1" height="1"/>
			<rect x="14" y="19" class="st3" width="1" height="1"/>
			<rect x="14" y="18" class="st3" width="1" height="1"/>
			<rect x="14" y="17" class="st3" width="1" height="1"/>
			<rect x="14" y="16" class="st3" width="1" height="1"/>
			<rect x="14" y="15" width="1" height="1"/>
			<rect x="14" y="14" class="st4" width="1" height="1"/>
			<rect x="14" y="13" class="st4" width="1" height="1"/>
			<rect x="14" y="12" class="st4" width="1" height="1"/>
			<rect x="14" y="11" width="1" height="1"/>
			<rect x="14" y="10" class="st5" width="1" height="1"/>
			<rect x="14" y="9" class="st5" width="1" height="1"/>
			<rect x="14" y="8" width="1" height="1"/>
			<rect x="14" y="7" width="1" height="1"/>
			<rect x="13" y="20" width="1" height="1"/>
			<rect x="13" y="19" class="st3" width="1" height="1"/>
			<rect x="13" y="18" class="st3" width="1" height="1"/>
			<rect x="13" y="17" class="st3" width="1" height="1"/>
			<rect x="13" y="16" class="st3" width="1" height="1"/>
			<rect x="13" y="15" width="1" height="1"/>
			<rect x="13" y="14" class="st4" width="1" height="1"/>
			<rect x="13" y="13" class="st4" width="1" height="1"/>
			<rect x="13" y="12" class="st4" width="1" height="1"/>
			<rect x="13" y="11" width="1" height="1"/>
			<rect x="13" y="10" class="st5" width="1" height="1"/>
			<rect x="13" y="9" class="st5" width="1" height="1"/>
			<rect x="13" y="8" class="st5" width="1" height="1"/>
			<rect x="13" y="7" class="st5" width="1" height="1"/>
			<rect x="13" y="6" width="1" height="1"/>
			<rect x="12" y="20" width="1" height="1"/>
			<rect x="12" y="19" class="st3" width="1" height="1"/>
			<rect x="12" y="18" class="st3" width="1" height="1"/>
			<rect x="12" y="17" class="st3" width="1" height="1"/>
			<rect x="12" y="16" class="st3" width="1" height="1"/>
			<rect x="12" y="15" width="1" height="1"/>
			<rect x="12" y="14" class="st4" width="1" height="1"/>
			<rect x="12" y="13" class="st4" width="1" height="1"/>
			<rect x="12" y="12" class="st4" width="1" height="1"/>
			<rect x="12" y="11" width="1" height="1"/>
			<rect x="12" y="10" class="st5" width="1" height="1"/>
			<rect x="12" y="9" class="st5" width="1" height="1"/>
			<rect x="12" y="8" class="st5" width="1" height="1"/>
			<rect x="12" y="7" class="st5" width="1" height="1"/>
			<rect x="12" y="6" class="st5" width="1" height="1"/>
			<rect x="12" y="5" width="1" height="1"/>
			<rect x="11" y="20" width="1" height="1"/>
			<rect x="11" y="19" class="st3" width="1" height="1"/>
			<rect x="11" y="18" class="st3" width="1" height="1"/>
			<rect x="11" y="17" class="st3" width="1" height="1"/>
			<rect x="11" y="16" class="st3" width="1" height="1"/>
			<rect x="11" y="15" width="1" height="1"/>
			<rect x="11" y="14" class="st4" width="1" height="1"/>
			<rect x="11" y="13" class="st4" width="1" height="1"/>
			<rect x="11" y="12" class="st4" width="1" height="1"/>
			<rect x="11" y="11" width="1" height="1"/>
			<rect x="11" y="10" class="st5" width="1" height="1"/>
			<rect x="11" y="9" class="st5" width="1" height="1"/>
			<rect x="11" y="8" class="st5" width="1" height="1"/>
			<rect x="11" y="7" class="st5" width="1" height="1"/>
			<rect x="11" y="6" class="st5" width="1" height="1"/>
			<rect x="11" y="5" width="1" height="1"/>
			<rect x="10" y="19" width="1" height="1"/>
			<rect x="10" y="18" class="st3" width="1" height="1"/>
			<rect x="10" y="17" class="st3" width="1" height="1"/>
			<rect x="10" y="16" class="st3" width="1" height="1"/>
			<rect x="10" y="15" class="st3" width="1" height="1"/>
			<rect x="10" y="14" width="1" height="1"/>
			<rect x="10" y="13" class="st4" width="1" height="1"/>
			<rect x="10" y="12" class="st4" width="1" height="1"/>
			<rect x="10" y="11" width="1" height="1"/>
			<rect x="10" y="10" class="st5" width="1" height="1"/>
			<rect x="10" y="9" width="1" height="1"/>
			<rect x="10" y="8" width="1" height="1"/>
			<rect x="10" y="7" class="st5" width="1" height="1"/>
			<rect x="10" y="6" class="st5" width="1" height="1"/>
			<rect x="10" y="5" width="1" height="1"/>
			<rect x="10" y="4" width="1" height="1"/>
			<rect x="10" y="3" width="1" height="1"/>
			<rect x="9" y="19" width="1" height="1"/>
			<rect x="9" y="18" class="st3" width="1" height="1"/>
			<rect x="9" y="17" class="st3" width="1" height="1"/>
			<rect x="9" y="16" class="st3" width="1" height="1"/>
			<rect x="9" y="15" class="st3" width="1" height="1"/>
			<rect x="9" y="14" width="1" height="1"/>
			<rect x="9" y="13" class="st4" width="1" height="1"/>
			<rect x="9" y="12" width="1" height="1"/>
			<rect x="9" y="11" class="st5" width="1" height="1"/>
			<rect x="9" y="10" class="st5" width="1" height="1"/>
			<rect x="9" y="9" class="st5" width="1" height="1"/>
			<rect x="9" y="8" class="st5" width="1" height="1"/>
			<rect x="9" y="7" width="1" height="1"/>
			<rect x="9" y="6" width="1" height="1"/>
			<rect x="9" y="5" width="1" height="1"/>
			<rect x="9" y="4" class="st6" width="1" height="1"/>
			<rect x="9" y="3" class="st6" width="1" height="1"/>
			<rect x="9" y="2" width="1" height="1"/>
			<rect x="8" y="19" width="1" height="1"/>
			<rect x="8" y="18" class="st3" width="1" height="1"/>
			<rect x="8" y="17" class="st3" width="1" height="1"/>
			<rect x="8" y="16" class="st3" width="1" height="1"/>
			<rect x="8" y="15" class="st3" width="1" height="1"/>
			<rect x="8" y="14" width="1" height="1"/>
			<rect x="8" y="13" width="1" height="1"/>
			<rect x="8" y="12" width="1" height="1"/>
			<rect x="8" y="11" class="st5" width="1" height="1"/>
			<rect x="8" y="10" class="st5" width="1" height="1"/>
			<rect x="8" y="9" class="st5" width="1" height="1"/>
			<rect x="8" y="8" class="st5" width="1" height="1"/>
			<rect x="8" y="7" class="st7" width="1" height="1"/>
			<rect x="8" y="6" width="1" height="1"/>
			<rect x="8" y="5" class="st6" width="1" height="1"/>
			<rect x="8" y="4" class="st6" width="1" height="1"/>
			<rect x="8" y="3" width="1" height="1"/>
			<rect x="7" y="18" width="1" height="1"/>
			<rect x="7" y="17" width="1" height="1"/>
			<rect x="7" y="16" width="1" height="1"/>
			<rect x="7" y="15" width="1" height="1"/>
			<rect x="7" y="14" width="1" height="1"/>
			<rect x="7" y="13" width="1" height="1"/>
			<rect x="7" y="12" class="st5" width="1" height="1"/>
			<rect x="7" y="11" class="st5" width="1" height="1"/>
			<rect x="7" y="10" class="st5" width="1" height="1"/>
			<rect x="7" y="9" class="st5" width="1" height="1"/>
			<rect x="7" y="8" class="st5" width="1" height="1"/>
			<rect x="7" y="7" class="st5" width="1" height="1"/>
			<rect x="7" y="6" class="st5" width="1" height="1"/>
			<rect x="7" y="5" width="1" height="1"/>
			<rect x="7" y="4" width="1" height="1"/>
			<rect x="6" y="16" width="1" height="1"/>
			<rect x="6" y="15" class="st7" width="1" height="1"/>
			<rect x="6" y="14" class="st5" width="1" height="1"/>
			<rect x="6" y="13" class="st5" width="1" height="1"/>
			<rect x="6" y="12" class="st5" width="1" height="1"/>
			<rect x="6" y="11" class="st5" width="1" height="1"/>
			<rect x="6" y="10" class="st5" width="1" height="1"/>
			<rect x="6" y="9" class="st5" width="1" height="1"/>
			<rect x="6" y="8" class="st5" width="1" height="1"/>
			<rect x="6" y="7" class="st5" width="1" height="1"/>
			<rect x="6" y="6" class="st5" width="1" height="1"/>
			<rect x="6" y="5" width="1" height="1"/>
			<rect x="5" y="16" width="1" height="1"/>
			<rect x="5" y="15" class="st7" width="1" height="1"/>
			<rect x="5" y="14" class="st7" width="1" height="1"/>
			<rect x="5" y="13" class="st5" width="1" height="1"/>
			<rect x="5" y="12" class="st5" width="1" height="1"/>
			<rect x="5" y="11" class="st5" width="1" height="1"/>
			<rect x="5" y="10" class="st5" width="1" height="1"/>
			<rect x="5" y="9" class="st5" width="1" height="1"/>
			<rect x="5" y="8" class="st5" width="1" height="1"/>
			<rect x="5" y="7" class="st5" width="1" height="1"/>
			<rect x="5" y="6" class="st7" width="1" height="1"/>
			<rect x="5" y="5" width="1" height="1"/>
			<rect x="4" y="15" width="1" height="1"/>
			<rect x="4" y="14" class="st7" width="1" height="1"/>
			<rect x="4" y="13" class="st7" width="1" height="1"/>
			<rect x="4" y="12" class="st7" width="1" height="1"/>
			<rect x="4" y="11" class="st5" width="1" height="1"/>
			<rect x="4" y="10" class="st5" width="1" height="1"/>
			<rect x="4" y="9" class="st5" width="1" height="1"/>
			<rect x="4" y="8" class="st5" width="1" height="1"/>
			<rect x="4" y="7" class="st7" width="1" height="1"/>
			<rect x="4" y="6" width="1" height="1"/>
			<rect x="3" y="14" width="1" height="1"/>
			<rect x="3" y="13" width="1" height="1"/>
			<rect x="3" y="12" class="st7" width="1" height="1"/>
			<rect x="3" y="11" class="st7" width="1" height="1"/>
			<rect x="3" y="10" class="st7" width="1" height="1"/>
			<rect x="3" y="9" class="st7" width="1" height="1"/>
			<rect x="3" y="8" width="1" height="1"/>
			<rect x="3" y="7" width="1" height="1"/>
			<rect x="2" y="12" width="1" height="1"/>
			<rect x="2" y="11" width="1" height="1"/>
			<rect x="2" y="10" width="1" height="1"/>
			<rect x="2" y="9" width="1" height="1"/>
		</g>
		<g>
		</g>
	</g>
</g>
</svg>
