<?xml version="1.0" encoding="utf-8"?>
<!-- Generator: Adobe Illustrator 23.1.1, SVG Export Plug-In . SVG Version: 6.00 Build 0)  -->
<svg version="1.1" xmlns="http://www.w3.org/2000/svg" xmlns:xlink="http://www.w3.org/1999/xlink" x="0px" y="0px"
	 viewBox="0 0 24 24" style="enable-background:new 0 0 24 24;" xml:space="preserve">
<style type="text/css">
	.st0{display:none;}
	.st1{display:inline;}
	.st2{fill:#A23B72;}
	.st3{fill:#5DA043;}
	.st4{fill:#B9D2B1;}
</style>
<g id="Layer_2" class="st0">
	<g class="st1">
		<g>
			<path class="st2" d="M7,6.5c0.5,2.5,0.9,5,1.4,7.4c0.5,2.4,1,4.9,1.9,7.2c0.2,0.5,0.4,0.9,0.7,1.3c0.4,0.5,0.9,0.4,1.5,0.3
				c0.8-0.1,1.7-0.3,2.4-0.8c0.2-0.1,0.5-0.2,0.6-0.4c0.3-0.4,0-1.3-0.1-1.7c-0.2-1.3-0.4-2.5-0.6-3.8c-0.5-2.9-0.9-5.8-1.4-8.7
				c-0.3,0.2-0.6,0.3-0.9,0.5c0.3,0.9,0.5,1.9,0.5,2.8c0.3-0.2,0.6-0.3,0.9-0.5c-0.9-1.8-0.6-4,0.7-5.5c-0.2,0.2-0.7,0.3-0.9,0.5
				c-1.3,1.5-1.6,3.7-0.7,5.5c0,0,0.9-0.4,0.9-0.5c0-1-0.2-1.9-0.5-2.8c0,0.1-0.9,0.4-0.9,0.5c0.4,2.4,0.8,4.9,1.2,7.3
				c0.2,1.2,0.4,2.4,0.6,3.7c0.1,0.6,0.2,1.1,0.3,1.7c0.1,0.4,0.4,1.2,0,1.5c0.3-0.2,0.6-0.3,0.8-0.5c-0.7,0.4-1.6,0.5-2.4,0.6
				c-0.8,0.1-1.2-0.3-1.6-1c-0.7-1.5-1-3.3-1.4-4.9C9.1,13,8.4,9.5,7.8,6C7.8,6.2,6.9,6.4,7,6.5L7,6.5z"/>
		</g>
	</g>
	<g class="st1">
		<g>
			<path class="st2" d="M15.1,6c-0.2,5.3,3.3,11.4,0,16.3c0.2-0.2,0.7-0.2,0.9-0.5c3.3-4.9-0.2-11,0-16.3C15.9,5.7,15.1,5.8,15.1,6
				L15.1,6z"/>
		</g>
	</g>
	<g class="st1">
		<g>
			<path class="st2" d="M7.3,6.7C7.2,6.8,7.1,6.9,7,7c0.3-0.2,0.6-0.3,0.9-0.5c-0.3,0.1,0,0-0.1-0.1c-0.1,0-0.1-0.1-0.1-0.1
				c-0.2-0.1-0.4,0-0.5,0C6.7,6.4,6.3,6.7,6,6.9c0.2-0.1,0.5-0.3,0.7-0.4c-0.1,0-0.2,0.1-0.3,0.1c-0.1,0-0.2,0-0.2-0.1
				C6.2,6.3,6.2,6,6.2,5.9C6.1,5.4,6,5,5.9,4.6C5.7,3.7,5.5,2.9,5.4,2.1C5.1,2.2,4.8,2.4,4.5,2.6C5.3,3.3,6,4.1,6.6,5
				c0,0,0.9-0.5,0.9-0.5C7.2,3.8,7,3.1,6.7,2.4C6.6,2,6.2,1.3,6.6,1C6.3,1.2,6,1.3,5.8,1.5c0.4-0.1,0.7,0.4,0.9,0.6
				C7,2.4,7.3,2.7,7.6,3c0,0,0.9-0.4,0.9-0.5c0-0.5,0.1-1,0.1-1.5C8.2,1.1,8,1.3,7.7,1.5C7.9,2,8.2,2.5,8.4,3
				c0.1,0.1,0.1,0.3,0.2,0.4c0.1,0.2,0,0.2,0.2,0.2c0.1,0,0.2-0.1,0.3-0.1C9.2,3.3,9.5,3.2,9.7,3c0.3-0.2,0.4-0.5,0.7-0.8
				c-0.3,0.2-0.6,0.3-0.8,0.5c0.5-0.3,1,0.4,0.5,0.7c0.3-0.2,0.6-0.3,0.9-0.5c-0.1,0-0.2,0.1-0.3,0c-0.1,0-0.1-0.1,0-0.1
				c0.1-0.1,0.1-0.1-0.2,0.1c0.3-0.2,0.8-0.3,1.1-0.4c0.1,0,0.5-0.1,0.5-0.1c0,0.1-0.1,0.4-0.2,0.4c-0.2,0.4-0.9,0.8,0,0.3
				c-0.2,0.1-0.6,0.4-0.8,0.5c0.6-0.1,1.2-0.3,1.7-0.3c0.4,0,0.8,0.3,0.6,0.7c0.2-0.2,0.6-0.3,0.9-0.5c0,0,0.1,0,0.1-0.1
				c-0.3,0.2-0.5,0.3-0.8,0.5c0.3-0.2,0.8-0.1,1,0.2c0.3,0.4,0.1,0.8-0.3,1.1c0.3-0.2,0.5-0.3,0.8-0.5c-0.1,0.1-0.3,0.1-0.4,0.1
				c-0.3,0.2-0.6,0.3-0.9,0.5c0.2-0.1,0.4-0.1,0.7,0c0.1,0,0.2,0.1,0.2,0.2c0.1,0.2,0,0.2-0.2,0.3c0.3-0.2,0.6-0.3,0.9-0.5
				c0.1-0.1,0.3-0.2,0.3-0.3c0-0.1-0.2-0.2-0.3-0.2c-0.2-0.1-0.4-0.1-0.7,0c-0.1,0-0.3,0.2-0.4,0.2c-0.1,0.1-0.3,0.3-0.4,0.3
				c0.4,0,0.8-0.3,1.2-0.5c0.4-0.2,0.7-0.6,0.5-1.1c-0.4-0.9-1.6-0.1-2.1,0.3c0.3-0.2,0.6-0.3,0.9-0.5c0.3-0.4-0.2-0.7-0.6-0.7
				c-0.6,0-1.2,0.2-1.7,0.3c-0.3,0.2-0.6,0.3-0.8,0.5c0.4-0.2,0.8-0.4,1.1-0.6c0.2-0.2,0.4-0.4,0.6-0.6c0,0,0.2-0.4,0.2-0.4
				c0,0-0.5,0.1-0.5,0.1c-0.6,0.1-1.1,0.4-1.6,0.7C10.5,2.9,10.2,3,10,3.2c-0.1,0-0.1,0.1-0.2,0.1C9.7,3.4,9.4,3.5,9.6,3.6
				c0.3,0.2,0.9-0.3,1.1-0.5C10.9,3,11,2.9,11.1,2.7c0-0.2-0.2-0.5-0.4-0.5c-0.3,0-0.8,0.3-1,0.5C9.3,2.9,9.1,3.4,8.8,3.6
				C9,3.4,9.3,3.3,9.6,3.1C9.4,3.2,9.4,2.8,9.3,2.6C9.2,2.5,9.2,2.3,9.1,2.1C8.9,1.7,8.7,1.4,8.5,1c0,0-0.9,0.4-0.9,0.5
				c0,0.5,0,1-0.1,1.5c0.3-0.2,0.6-0.3,0.9-0.5C8.2,2.2,7.9,2,7.7,1.7C7.4,1.5,7.1,1.1,6.9,1C6.5,0.9,6,1.3,5.8,1.5
				c-0.4,0.3-0.1,0.9,0,1.2C6.1,3.5,6.3,4.2,6.6,5c0.3-0.2,0.6-0.3,0.9-0.5C6.8,3.6,6.1,2.8,5.4,2.1c0,0-0.9,0.5-0.9,0.5
				c0.2,1,0.4,2,0.6,2.9C5.2,5.7,5.2,6,5.3,6.3C5.3,6.4,5.4,7,5.5,7C5.6,7.1,6,6.9,6.1,6.8c0.1-0.1,0.3-0.1,0.4-0.2
				c0.1,0,0.1-0.1,0.2-0.1c0.2-0.1,0.1,0-0.4,0.2c0.1,0.1,0.3,0,0.4,0.1C6.9,6.9,6.8,7,6.9,7c0.2,0,0.5-0.3,0.6-0.3
				C7.8,6.5,8,6.4,8.1,6.2C8,6.4,7.4,6.4,7.3,6.7L7.3,6.7z"/>
		</g>
	</g>
	<g class="st1">
		<g>
			<path class="st2" d="M7.2,8.6C7.1,8.6,7,8.7,6.9,8.7C6.8,8.8,6.6,8.9,6.4,9C6.2,9.1,6.1,9.2,6,9.4c-0.2,0.4-0.4,0.8-0.6,1.2
				C5.2,11,5,11.4,4.9,11.8c-0.1,0.3-0.2,0.7,0.1,0.8c0,0,0.1-0.1,0.1-0.1c0.1-0.1,0.2-0.1,0.3-0.2c0.1-0.1,0.3-0.1,0.4-0.3
				c0.7-0.6,1.3-1.3,1.9-2c0,0,0.2-0.3,0.2-0.3c0,0-0.2,0.1-0.2,0.1c-0.3,0.2-0.6,0.3-0.9,0.5c-0.3,0.2-0.5,0.5-0.7,0.8
				c0.3-0.2,0.6-0.3,0.9-0.5c0.2-0.3,0.4-0.6,0.6-0.8C7.8,9.8,8,9.7,8.1,9.6c0.1-0.1,0.1-0.1,0.2-0.2c0,0,0.1-0.1,0.1-0.1
				c0,0,0,0,0.1,0c0.3-0.2,0-0.1-0.6,0.4c0,0,0,0-0.1,0C8,9.6,8.2,9.6,8.3,9.8c0.1,0.2,0.1,0.4,0.2,0.6c0.1,0.5,0,1-0.1,1.5
				c0,0,0.1-0.1,0.1-0.1c0.1-0.1,0.2-0.1,0.3-0.2c0.1-0.1,0.2-0.1,0.3-0.2c0,0,0.1-0.1,0.1-0.1c0.2-0.5,0.2-1,0.1-1.6
				c0-0.2,0-0.5-0.2-0.6C9,9.1,8.8,9.1,8.6,9.2c-1,0.5-1.8,1.1-2.4,2.1c0,0,0.1-0.1,0.1-0.1c0.1-0.1,0.2-0.1,0.3-0.2
				c0.1-0.1,0.2-0.1,0.3-0.2c0,0,0.1,0,0.1-0.1c0.2-0.3,0.3-0.5,0.6-0.7c0,0,0,0,0,0c-0.2,0.1-0.4,0.3-0.6,0.4c0,0,0.1,0,0.1,0
				c0,0-0.2,0.2-0.2,0.2c-0.1,0.1-0.2,0.3-0.4,0.4c-0.5,0.6-1,1.1-1.5,1.6c0.3-0.2,0.6-0.3,0.9-0.5c-0.2-0.1-0.2-0.4-0.2-0.6
				c0.1-0.3,0.2-0.7,0.3-1c0.1-0.3,0.3-0.7,0.4-1c0.1-0.2,0.2-0.3,0.3-0.5c0.1-0.2,0.2-0.3,0.3-0.4C6.8,8.8,6.5,9,6.2,9.1
				c0,0,0.1,0,0.1,0c0.1,0,0.3-0.2,0.4-0.2C6.8,8.8,6.9,8.7,7,8.7C7.1,8.7,7.1,8.6,7.2,8.6L7.2,8.6z"/>
		</g>
	</g>
	<g class="st1">
		<g>
			<path class="st2" d="M13.3,8.3c0.6,0.2,1.2,0.3,1.8,0.3c0.3,0,0.6,0.1,0.8,0c0.1,0,0.2-0.1,0.3-0.1c0.2-0.1,0.4-0.2,0.6-0.3
				C16.9,8.1,17,8,17,7.7c-0.1-0.2-0.2-0.4-0.4-0.6c-0.3-0.4-0.8-0.6-1.2-0.8c-0.3,0.2-0.6,0.3-0.9,0.5c0.3-0.1,0.7-0.1,1-0.2
				c0.2-0.1,0.5-0.3,0.7-0.4C16.4,6,16.5,6,16.6,5.8c0.1-0.4-0.2-0.7-0.5-0.9c-0.3-0.3-0.6-0.6-1-0.9c0,0-0.4,0.2-0.4,0.2
				c0,0-0.4,0.3-0.4,0.3c0.3,0.2,0.5,0.4,0.7,0.7c0.2,0.2,0.5,0.4,0.6,0.7c0.2,0.3,0.1,0.5-0.1,0.6c0.5-0.6,0.9-0.5,0.6-0.4
				c-0.1,0-0.1,0-0.2,0c-0.2,0-0.3,0-0.5,0.1c-0.1,0-0.3,0.2-0.4,0.2c-0.1,0.1-0.2,0.1-0.3,0.2c0,0-0.1,0.1-0.1,0.1
				c0.4,0.2,0.8,0.4,1.1,0.8c0.2,0.2,0.7,0.8,0.4,1.1c0.3-0.2,0.6-0.3,0.8-0.5c-0.2,0.1-0.5,0-0.7,0c-0.2,0-0.5,0-0.7-0.1
				C15,8,14.6,7.9,14.1,7.8c0,0-0.1,0.1-0.1,0.1C13.9,7.9,13.8,8,13.7,8c-0.1,0.1-0.2,0.1-0.3,0.2C13.4,8.2,13.3,8.3,13.3,8.3
				L13.3,8.3z"/>
		</g>
	</g>
	<g class="st1">
		<g>
			<path class="st2" d="M13,21.2C13,21.2,13,21.2,13,21.2c0.3-0.1,0.6-0.3,0.8-0.4c-0.3,0-0.5-0.7-0.6-1c-0.2-0.4-0.3-0.8-0.5-1.2
				c-0.3-0.8-0.6-1.7-0.8-2.6c-0.4-1.8-0.6-3.6-0.6-5.4c0,0.2-0.9,0.3-0.9,0.5c0,1.8,0.2,3.6,0.6,5.4c0.2,0.9,0.5,1.7,0.8,2.6
				c0.1,0.4,0.3,0.8,0.5,1.2C12.5,20.6,12.6,21.3,13,21.2c0.1,0.1,0.8-0.3,0.8-0.4c0,0,0,0,0-0.1C13.8,20.9,13.1,21,13,21.2L13,21.2
				z"/>
		</g>
	</g>
</g>
<g id="Layer_4">
</g>
<g id="Layer_3">
	<g id="XMLID_1_">
		<g>
			<rect x="8" width="1" height="1"/>
			<rect x="22" y="7" width="1" height="1"/>
			<rect x="23" y="5" width="1" height="1"/>
			<rect x="22" y="6" width="1" height="1"/>
			<rect x="22" y="5" class="st3" width="1" height="1"/>
			<rect x="22" y="4" width="1" height="1"/>
			<rect x="21" y="11" width="1" height="1"/>
			<rect x="21" y="10" width="1" height="1"/>
			<rect x="21" y="9" width="1" height="1"/>
			<rect x="21" y="8" width="1" height="1"/>
			<rect x="21" y="7" class="st3" width="1" height="1"/>
			<rect x="21" y="6" class="st3" width="1" height="1"/>
			<rect x="21" y="5" class="st3" width="1" height="1"/>
			<rect x="21" y="4" width="1" height="1"/>
			<rect x="20" y="14" width="1" height="1"/>
			<rect x="20" y="13" width="1" height="1"/>
			<rect x="20" y="12" width="1" height="1"/>
			<rect x="20" y="11" class="st4" width="1" height="1"/>
			<rect x="20" y="10" class="st4" width="1" height="1"/>
			<rect x="20" y="9" class="st4" width="1" height="1"/>
			<rect x="20" y="8" class="st4" width="1" height="1"/>
			<rect x="20" y="7" width="1" height="1"/>
			<rect x="20" y="6" width="1" height="1"/>
			<rect x="20" y="5" class="st3" width="1" height="1"/>
			<rect x="20" y="4" width="1" height="1"/>
			<rect x="19" y="19" width="1" height="1"/>
			<rect x="19" y="18" width="1" height="1"/>
			<rect x="19" y="17" width="1" height="1"/>
			<rect x="19" y="16" width="1" height="1"/>
			<rect x="19" y="15" width="1" height="1"/>
			<rect x="19" y="14" class="st4" width="1" height="1"/>
			<rect x="19" y="13" class="st4" width="1" height="1"/>
			<rect x="19" y="12" class="st4" width="1" height="1"/>
			<rect x="19" y="11" width="1" height="1"/>
			<rect x="19" y="10" width="1" height="1"/>
			<rect x="19" y="9" width="1" height="1"/>
			<rect x="19" y="8" width="1" height="1"/>
			<rect x="19" y="5" width="1" height="1"/>
			<rect x="18" y="20" width="1" height="1"/>
			<rect x="18" y="19" class="st4" width="1" height="1"/>
			<rect x="18" y="18" class="st4" width="1" height="1"/>
			<rect x="18" y="17" class="st4" width="1" height="1"/>
			<rect x="18" y="16" class="st4" width="1" height="1"/>
			<rect x="18" y="15" class="st4" width="1" height="1"/>
			<rect x="18" y="14" width="1" height="1"/>
			<rect x="18" y="13" width="1" height="1"/>
			<rect x="18" y="12" width="1" height="1"/>
			<rect x="17" y="20" width="1" height="1"/>
			<rect x="17" y="19" width="1" height="1"/>
			<rect x="17" y="18" width="1" height="1"/>
			<rect x="17" y="17" width="1" height="1"/>
			<rect x="17" y="16" width="1" height="1"/>
			<rect x="17" y="15" width="1" height="1"/>
			<rect x="17" y="8" width="1" height="1"/>
			<rect x="17" y="7" width="1" height="1"/>
			<rect x="17" y="6" width="1" height="1"/>
			<rect x="16" y="21" width="1" height="1"/>
			<rect x="16" y="20" class="st3" width="1" height="1"/>
			<rect x="16" y="19" class="st4" width="1" height="1"/>
			<rect x="16" y="18" class="st4" width="1" height="1"/>
			<rect x="16" y="17" class="st4" width="1" height="1"/>
			<rect x="16" y="16" class="st4" width="1" height="1"/>
			<rect x="16" y="15" width="1" height="1"/>
			<rect x="16" y="14" width="1" height="1"/>
			<rect x="16" y="13" width="1" height="1"/>
			<rect x="16" y="12" width="1" height="1"/>
			<rect x="16" y="11" width="1" height="1"/>
			<rect x="16" y="8" width="1" height="1"/>
			<rect x="16" y="7" class="st3" width="1" height="1"/>
			<rect x="16" y="6" width="1" height="1"/>
			<rect x="16" y="5" width="1" height="1"/>
			<rect x="15" y="21" width="1" height="1"/>
			<rect x="15" y="20" width="1" height="1"/>
			<rect x="15" y="19" width="1" height="1"/>
			<rect x="15" y="18" width="1" height="1"/>
			<rect x="15" y="17" width="1" height="1"/>
			<rect x="15" y="16" width="1" height="1"/>
			<rect x="15" y="15" class="st4" width="1" height="1"/>
			<rect x="15" y="14" class="st4" width="1" height="1"/>
			<rect x="15" y="13" class="st4" width="1" height="1"/>
			<rect x="15" y="12" class="st4" width="1" height="1"/>
			<rect x="15" y="11" class="st4" width="1" height="1"/>
			<rect x="15" y="10" width="1" height="1"/>
			<rect x="15" y="9" width="1" height="1"/>
			<rect x="15" y="8" width="1" height="1"/>
			<rect x="15" y="7" width="1" height="1"/>
			<rect x="15" y="6" width="1" height="1"/>
			<rect x="15" y="5" width="1" height="1"/>
			<rect x="15" y="4" width="1" height="1"/>
			<rect x="15" y="3" width="1" height="1"/>
			<rect x="14" y="22" width="1" height="1"/>
			<rect x="14" y="21" class="st3" width="1" height="1"/>
			<rect x="14" y="20" class="st4" width="1" height="1"/>
			<rect x="14" y="19" class="st4" width="1" height="1"/>
			<rect x="14" y="18" class="st4" width="1" height="1"/>
			<rect x="14" y="17" class="st4" width="1" height="1"/>
			<rect x="14" y="16" width="1" height="1"/>
			<rect x="14" y="15" width="1" height="1"/>
			<rect x="14" y="14" width="1" height="1"/>
			<rect x="14" y="13" width="1" height="1"/>
			<rect x="14" y="12" width="1" height="1"/>
			<rect x="14" y="11" width="1" height="1"/>
			<rect x="14" y="10" class="st4" width="1" height="1"/>
			<rect x="14" y="9" class="st4" width="1" height="1"/>
			<rect x="14" y="8" class="st4" width="1" height="1"/>
			<rect x="14" y="7" width="1" height="1"/>
			<rect x="14" y="6" class="st3" width="1" height="1"/>
			<rect x="14" y="5" width="1" height="1"/>
			<rect x="14" y="4" class="st3" width="1" height="1"/>
			<rect x="14" y="3" width="1" height="1"/>
			<rect x="14" y="2" width="1" height="1"/>
			<rect x="13" y="22" width="1" height="1"/>
			<rect x="13" y="21" width="1" height="1"/>
			<rect x="13" y="20" width="1" height="1"/>
			<rect x="13" y="19" width="1" height="1"/>
			<rect x="13" y="18" class="st4" width="1" height="1"/>
			<rect x="13" y="17" class="st4" width="1" height="1"/>
			<rect x="13" y="16" class="st4" width="1" height="1"/>
			<rect x="13" y="15" class="st4" width="1" height="1"/>
			<rect x="13" y="14" class="st4" width="1" height="1"/>
			<rect x="13" y="13" class="st4" width="1" height="1"/>
			<rect x="13" y="12" class="st4" width="1" height="1"/>
			<rect x="13" y="11" width="1" height="1"/>
			<rect x="13" y="10" width="1" height="1"/>
			<rect x="13" y="9" width="1" height="1"/>
			<rect x="13" y="8" width="1" height="1"/>
			<rect x="13" y="7" class="st3" width="1" height="1"/>
			<rect x="13" y="6" class="st3" width="1" height="1"/>
			<rect x="13" y="5" class="st3" width="1" height="1"/>
			<rect x="13" y="4" class="st3" width="1" height="1"/>
			<rect x="13" y="3" width="1" height="1"/>
			<rect x="12" y="22" width="1" height="1"/>
			<rect x="12" y="21" class="st3" width="1" height="1"/>
			<rect x="12" y="20" class="st4" width="1" height="1"/>
			<rect x="12" y="19" width="1" height="1"/>
			<rect x="12" y="18" width="1" height="1"/>
			<rect x="12" y="17" width="1" height="1"/>
			<rect x="12" y="16" class="st3" width="1" height="1"/>
			<rect x="12" y="15" class="st3" width="1" height="1"/>
			<rect x="12" y="14" class="st3" width="1" height="1"/>
			<rect x="12" y="13" class="st3" width="1" height="1"/>
			<rect x="12" y="12" class="st4" width="1" height="1"/>
			<rect x="12" y="11" class="st4" width="1" height="1"/>
			<rect x="12" y="10" class="st4" width="1" height="1"/>
			<rect x="12" y="9" class="st4" width="1" height="1"/>
			<rect x="12" y="8" class="st3" width="1" height="1"/>
			<rect x="12" y="7" width="1" height="1"/>
			<rect x="12" y="6" class="st3" width="1" height="1"/>
			<rect x="12" y="5" class="st3" width="1" height="1"/>
			<rect x="12" y="4" width="1" height="1"/>
			<rect x="12" y="3" width="1" height="1"/>
			<rect x="12" y="2" width="1" height="1"/>
			<rect x="11" y="22" width="1" height="1"/>
			<rect x="11" y="21" class="st3" width="1" height="1"/>
			<rect x="11" y="20" class="st3" width="1" height="1"/>
			<rect x="11" y="19" class="st4" width="1" height="1"/>
			<rect x="11" y="18" class="st4" width="1" height="1"/>
			<rect x="11" y="17" width="1" height="1"/>
			<rect x="11" y="16" width="1" height="1"/>
			<rect x="11" y="15" width="1" height="1"/>
			<rect x="11" y="14" width="1" height="1"/>
			<rect x="11" y="13" class="st3" width="1" height="1"/>
			<rect x="11" y="12" class="st3" width="1" height="1"/>
			<rect x="11" y="11" class="st3" width="1" height="1"/>
			<rect x="11" y="10" class="st4" width="1" height="1"/>
			<rect x="11" y="9" class="st3" width="1" height="1"/>
			<rect x="11" y="8" class="st3" width="1" height="1"/>
			<rect x="11" y="7" width="1" height="1"/>
			<rect x="11" y="6" width="1" height="1"/>
			<rect x="11" y="5" class="st3" width="1" height="1"/>
			<rect x="11" y="4" width="1" height="1"/>
			<rect x="11" y="3" class="st3" width="1" height="1"/>
			<rect x="11" y="2" width="1" height="1"/>
			<rect x="11" y="1" width="1" height="1"/>
			<rect x="10" y="21" width="1" height="1"/>
			<rect x="10" y="20" width="1" height="1"/>
			<rect x="10" y="19" width="1" height="1"/>
			<rect x="10" y="18" class="st3" width="1" height="1"/>
			<rect x="10" y="17" class="st4" width="1" height="1"/>
			<rect x="10" y="16" class="st4" width="1" height="1"/>
			<rect x="10" y="15" class="st4" width="1" height="1"/>
			<rect x="10" y="14" width="1" height="1"/>
			<rect x="10" y="13" width="1" height="1"/>
			<rect x="10" y="12" width="1" height="1"/>
			<rect x="10" y="11" width="1" height="1"/>
			<rect x="10" y="10" width="1" height="1"/>
			<rect x="10" y="9" class="st4" width="1" height="1"/>
			<rect x="10" y="8" class="st3" width="1" height="1"/>
			<rect x="10" y="7" class="st3" width="1" height="1"/>
			<rect x="10" y="6" width="1" height="1"/>
			<rect x="10" y="5" width="1" height="1"/>
			<rect x="10" y="4" width="1" height="1"/>
			<rect x="10" y="3" class="st3" width="1" height="1"/>
			<rect x="10" y="2" width="1" height="1"/>
			<rect x="10" y="1" width="1" height="1"/>
			<rect x="9" y="19" width="1" height="1"/>
			<rect x="9" y="18" width="1" height="1"/>
			<rect x="9" y="17" width="1" height="1"/>
			<rect x="9" y="16" width="1" height="1"/>
			<rect x="9" y="15" width="1" height="1"/>
			<rect x="9" y="14" class="st4" width="1" height="1"/>
			<rect x="9" y="13" class="st4" width="1" height="1"/>
			<rect x="9" y="12" class="st4" width="1" height="1"/>
			<rect x="9" y="11" class="st4" width="1" height="1"/>
			<rect x="9" y="10" width="1" height="1"/>
			<rect x="9" y="9" width="1" height="1"/>
			<rect x="9" y="8" width="1" height="1"/>
			<rect x="9" y="7" class="st3" width="1" height="1"/>
			<rect x="9" y="6" class="st3" width="1" height="1"/>
			<rect x="9" y="5" width="1" height="1"/>
			<rect x="9" y="4" class="st3" width="1" height="1"/>
			<rect x="9" y="3" width="1" height="1"/>
			<rect x="9" y="2" width="1" height="1"/>
			<rect x="9" y="1" width="1" height="1"/>
			<rect x="8" y="15" width="1" height="1"/>
			<rect x="8" y="14" width="1" height="1"/>
			<rect x="8" y="13" width="1" height="1"/>
			<rect x="8" y="12" width="1" height="1"/>
			<rect x="8" y="11" width="1" height="1"/>
			<rect x="8" y="10" class="st3" width="1" height="1"/>
			<rect x="8" y="9" class="st3" width="1" height="1"/>
			<rect x="8" y="8" width="1" height="1"/>
			<rect x="8" y="7" width="1" height="1"/>
			<rect x="8" y="6" width="1" height="1"/>
			<rect x="8" y="5" width="1" height="1"/>
			<rect x="8" y="4" width="1" height="1"/>
			<rect x="8" y="3" width="1" height="1"/>
			<rect x="8" y="2" class="st3" width="1" height="1"/>
			<rect x="8" y="1" class="st3" width="1" height="1"/>
			<rect x="7" y="12" width="1" height="1"/>
			<rect x="7" y="11" width="1" height="1"/>
			<rect x="7" y="10" width="1" height="1"/>
			<rect x="7" y="9" class="st3" width="1" height="1"/>
			<rect x="7" y="8" class="st3" width="1" height="1"/>
			<rect x="7" y="7" width="1" height="1"/>
			<rect x="7" y="6" width="1" height="1"/>
			<rect x="7" y="5" class="st3" width="1" height="1"/>
			<rect x="7" y="4" class="st3" width="1" height="1"/>
			<rect x="7" y="3" width="1" height="1"/>
			<rect x="7" y="2" width="1" height="1"/>
			<rect x="7" y="1" width="1" height="1"/>
			<rect x="6" y="12" width="1" height="1"/>
			<rect x="6" y="11" class="st3" width="1" height="1"/>
			<rect x="6" y="10" width="1" height="1"/>
			<rect x="6" y="9" class="st3" width="1" height="1"/>
			<rect x="6" y="8" class="st3" width="1" height="1"/>
			<rect x="6" y="7" width="1" height="1"/>
			<rect x="6" y="6" class="st3" width="1" height="1"/>
			<rect x="6" y="5" class="st3" width="1" height="1"/>
			<rect x="6" y="4" class="st3" width="1" height="1"/>
			<rect x="6" y="3" width="1" height="1"/>
			<rect x="6" y="2" width="1" height="1"/>
			<rect x="6" y="1" width="1" height="1"/>
			<rect x="5" y="11" width="1" height="1"/>
			<rect x="5" y="10" width="1" height="1"/>
			<rect x="5" y="9" class="st3" width="1" height="1"/>
			<rect x="5" y="8" width="1" height="1"/>
			<rect x="5" y="7" width="1" height="1"/>
			<rect x="5" y="6" width="1" height="1"/>
			<rect x="5" y="5" width="1" height="1"/>
			<rect x="5" y="4" width="1" height="1"/>
			<rect x="5" y="3" width="1" height="1"/>
			<rect x="5" y="2" width="1" height="1"/>
			<rect x="4" y="9" width="1" height="1"/>
			<rect x="4" y="8" width="1" height="1"/>
			<rect x="4" y="7" width="1" height="1"/>
			<rect x="4" y="6" width="1" height="1"/>
		</g>
		<g>
		</g>
	</g>
</g>
</svg>
