<?xml version="1.0" encoding="utf-8"?>
<!-- Generator: Adobe Illustrator 23.1.1, SVG Export Plug-In . SVG Version: 6.00 Build 0)  -->
<svg version="1.1" xmlns="http://www.w3.org/2000/svg" xmlns:xlink="http://www.w3.org/1999/xlink" x="0px" y="0px"
	 viewBox="0 0 24 24" style="enable-background:new 0 0 24 24;" xml:space="preserve">
<style type="text/css">
	.st0{display:none;}
	.st1{display:inline;}
	.st2{fill:#7E6976;}
	.st3{fill:#606060;}
	.st4{fill:#A23B72;}
	.st5{fill:#D7C0D0;}
	.st6{fill:#5DA043;}
	.st7{fill:#84732B;}
</style>
<g id="Layer_2" class="st0">
	<g class="st1">
		<g>
			<path class="st2" d="M7.5,6.4c1.6,0.6,2.7,2,2.9,3.7c0-0.1,0.9-0.4,0.9-0.5c-0.2-1.3-1-2.4-2.2-3C7.9,5.9,6.7,6.1,5.6,6.7
				C4.5,7.4,3.9,8.3,3.5,9.5c-0.4,1.4-0.4,3,0,4.4c0.4,1.3,1.3,2.7,2.7,2.9c0.7,0.1,1.5,0,2.2-0.1c0.8-0.1,1.6-0.2,2.3-0.5
				c0.9-0.3,1.9-0.9,2.7-1.6c1.1-1,1.6-2.5,1.7-4c0.1-1.5-0.1-3.6-1.2-4.8c-1.3-1.4-3.4-0.6-4.8,0.1C8.8,6.2,8.5,6.4,8.2,6.6
				c1-0.5,2.1-1,3.2-0.9c1.1,0.1,1.8,0.8,2.3,1.7c0.8,1.9,0.8,4.6-0.1,6.4c-0.2,0.4-0.5,0.8-0.8,1.1c-0.2,0.2-0.4,0.4-0.6,0.5
				c-0.1,0.1-0.6,0.4-0.2,0.1c0.5-0.3-0.1,0-0.3,0.1c-1,0.4-2.1,0.5-3.2,0.7c-1.1,0.1-2.1,0-2.9-0.7C5,15,4.5,14,4.3,13
				C4,11.9,4,10.7,4.2,9.6C4.4,9,4.6,8.4,4.8,7.9C5,7.7,5.1,7.5,5.2,7.3C5.3,7.1,5.4,7,5.5,6.9c0.1-0.1,0.5-0.4-0.1-0.1
				c0,0-0.1,0-0.1,0.1c2.2-1,4.8,0.8,5.1,3.1c0.3-0.2,0.6-0.3,0.9-0.5C11,7.9,9.9,6.5,8.3,5.9C8.1,5.8,7.6,6.4,7.5,6.4L7.5,6.4z"/>
		</g>
	</g>
	<g class="st1">
		<g>
			<path class="st2" d="M8.5,5.9c0.2-0.6,0.5-1.2,0.8-1.7c0.1-0.3,0.3-0.5,0.4-0.8c0.1-0.2,0.3-0.6,0.5-0.7C9.9,2.8,9.6,3,9.3,3.1
				c0.1,0,0.1,0,0.2,0.1c0,0.1,0,0.1,0,0.2c0,0.1,0,0.2,0,0.4C9.4,4,9.3,4.3,9.2,4.5C9,5,8.7,5.5,8.3,5.9c0,0,0.1-0.1,0.1-0.1
				c0.1-0.1,0.2-0.1,0.3-0.2C8.8,5.6,8.9,5.5,9,5.5c0,0,0.1,0,0.1-0.1C9.5,5,9.8,4.6,10,4.2c0.1-0.2,0.2-0.4,0.3-0.7
				c0.1-0.2,0.2-0.5,0.1-0.7c0,0,0-0.1,0-0.1c0-0.1,0-0.1-0.1-0.1c-0.1,0-0.3,0.1-0.4,0.2C9.6,3,9.3,3.1,9.1,3.4
				C8.8,3.8,8.6,4.3,8.3,4.8C8.1,5.3,7.8,5.9,7.6,6.4c0,0,0.1-0.1,0.1-0.1C7.8,6.3,7.9,6.3,8,6.2C8.2,6.1,8.3,6.1,8.4,6
				C8.4,6,8.5,6,8.5,5.9L8.5,5.9z"/>
		</g>
	</g>
	<g class="st1">
		<g>
			<path class="st2" d="M10.9,8.6C10.1,7.4,9.1,6,7.5,5.5C6.4,5.2,5.4,5.7,4.4,6.3C3.2,7.1,2.6,8.6,2.6,10c-0.1,1.4,0.2,3.2,1,4.4
				c1.1,1.5,3.3,1.9,5,2.1c0.3,0,0.6-0.5,0.9-0.5c-1.7-0.2-3.9-0.6-5-2.1c-1-1.3-1.2-3.5-1-5.1C3.6,8,3.9,7.2,4.4,6.6
				c0.1-0.2,0.3-0.3,0.4-0.4C4.9,6.1,5,6,5.1,6C4.8,6.1,4.8,6.1,5,6.1C5.4,6,5.7,5.9,6.1,5.9C8,6.1,9.1,7.7,10,9.1
				C10.1,9.2,10.9,8.6,10.9,8.6L10.9,8.6z"/>
		</g>
	</g>
	<g class="st1">
		<g>
			<path class="st2" d="M7.3,13.9c-0.2,0.6-0.4,1.2-0.6,1.8c-0.1,0.5-0.4,1-0.4,1.5c-0.1,1,0.9,1.6,1.6,2.1c1.7,1.1,3.8,1.5,5.8,1.4
				c1.8,0,3.7-0.4,5.4-1.3c1.3-0.7,2.6-1.5,3.4-2.8c-0.2,0.2-0.7,0.2-0.9,0.5c-0.4,0.7-1,1.3-1.6,1.7c-0.1,0.1-0.7,0.4-0.2,0.2
				c-0.2,0.1-0.5,0.2-0.7,0.3c-0.4,0.2-0.8,0.3-1.2,0.4c-1.6,0.4-3.3,0.6-5,0.4c-1.7-0.2-3.4-0.7-4.7-1.8c-0.7-0.5-1.1-1.1-0.9-2
				c0.3-1,0.6-1.9,0.9-2.8C8.1,13.6,7.4,13.7,7.3,13.9L7.3,13.9z"/>
		</g>
	</g>
	<g class="st1">
		<g>
			<path class="st2" d="M8,14.1c1.8,1.2,4,0.7,6.1,0.8c2,0.1,4,0.2,5.8-0.8c0.6-0.3,1.2-0.7,1.6-1.2c0.1-0.1,0.2-0.2,0.2-0.3
				c0.1-0.2,0.1-0.1,0-0.2c-0.1-0.1-0.6-0.2-0.7-0.2c-0.6-0.2-1.1-0.3-1.7-0.4c-2.2-0.4-4.5-0.5-6.7-0.1c-1.1,0.2-2.4,0.5-3.4,1
				c-0.5,0.2-1.5,0.7-1.2,1.4c0,0,0.9-0.5,0.9-0.5c-0.2-0.4,0-0.6,0.3-0.8c-0.3,0.2-0.6,0.3-0.9,0.5c2-1,4.4-1.3,6.6-1.3
				c1.1,0,2.2,0.1,3.3,0.3c0.5,0.1,1,0.2,1.5,0.4c0.3,0.1,0.6,0.2,0.8,0.3c0.1,0,0.3,0.1,0.4,0.1c-0.1,0.1-0.1,0.2-0.2,0.3
				c-0.6,0.8-1.1,1-2.2,1.1c-1.2,0.2-2.4,0.1-3.5,0c-2.1-0.1-4.4,0.3-6.2-0.8C8.7,13.6,8.1,14.2,8,14.1L8,14.1z"/>
		</g>
	</g>
	<g class="st1">
		<g>
			<path class="st2" d="M21.3,13.7c0-0.1,0.1-0.2,0.1-0.4c-0.3,0.2-0.6,0.3-0.9,0.5c0.1,1.2,0,2.4-0.3,3.6c0.3-0.2,0.6-0.3,0.9-0.5
				c0-0.8,0.2-1.6,0.6-2.3c-0.3,0.2-0.6,0.3-0.9,0.5c0.1,1,0.1,1.9-0.2,2.9c0,0,0.1-0.1,0.1-0.1c0.1-0.1,0.2-0.1,0.3-0.2
				c0.1-0.1,0.2-0.1,0.3-0.2c0,0,0.1-0.1,0.1-0.1c0.2-0.9,0.3-1.9,0.2-2.9c0,0-0.4,0.2-0.4,0.2C21.2,14.9,21.1,15,21,15
				c0,0-0.1,0-0.1,0.1c-0.4,0.7-0.6,1.5-0.6,2.3c0,0,0.4-0.2,0.4-0.2c0.1-0.1,0.2-0.1,0.3-0.2c0,0,0.1-0.1,0.1-0.1
				c0.3-1.2,0.5-2.4,0.3-3.6c0,0-0.4,0.2-0.4,0.2c-0.1,0.1-0.2,0.1-0.3,0.2c0,0-0.1,0.1-0.1,0.1c0,0.1-0.1,0.2-0.1,0.4
				c0,0,0.1-0.1,0.1-0.1c0.1-0.1,0.2-0.1,0.3-0.2c0.1-0.1,0.2-0.1,0.3-0.2C21.2,13.8,21.3,13.8,21.3,13.7L21.3,13.7z"/>
		</g>
	</g>
	<g class="st1">
		<g>
			<path class="st2" d="M6.4,14.2c0,1.3,0.2,2.6,0.5,3.9c0,0,0.4-0.2,0.4-0.2c0.1-0.1,0.2-0.1,0.3-0.2c0,0,0.1-0.1,0.1-0.1
				c0.1-0.8,0.3-1.7,0.4-2.5c-0.3,0.2-0.6,0.3-0.9,0.5c0.2,1.1,0.2,2.2,0.2,3.3c0,0,0.4-0.2,0.4-0.2c0.1,0,0.4-0.2,0.4-0.3
				c0-1,0.1-2,0.1-3c0,0-0.4,0.2-0.4,0.2c-0.1,0-0.4,0.2-0.4,0.3c0,1-0.1,2-0.1,3c0.3-0.2,0.6-0.3,0.9-0.5c0-1.1,0.1-2.2-0.2-3.3
				c0,0-0.4,0.2-0.4,0.2c-0.1,0.1-0.2,0.1-0.3,0.2c0,0-0.1,0.1-0.1,0.1c-0.1,0.8-0.3,1.7-0.4,2.5c0.3-0.2,0.6-0.3,0.9-0.5
				c-0.3-1.3-0.4-2.6-0.5-3.9c0,0-0.4,0.2-0.4,0.2C6.8,14,6.4,14.2,6.4,14.2L6.4,14.2z"/>
		</g>
	</g>
	<g class="st1">
		<g>
			<path class="st2" d="M3.2,12.2c0.1,1.4,0.6,2.8,1.8,3.7c1,0.7,2.3,0.9,3.5,0.8c1.4-0.1,2.6-0.8,3.8-1.5c1.1-0.7,2.1-1.6,2.7-2.8
				c0.8-1.6,0.6-3.4-0.1-4.9c0,0-0.9,0.5-0.9,0.5c1.2,2.6,0.5,5.4-1.7,7.1c-0.1,0.1-0.2,0.2-0.4,0.3c-0.1,0-0.2,0.2-0.3,0.2
				c0,0,0.6-0.3,0.3-0.2c-0.3,0.1-0.6,0.3-0.9,0.4c-0.6,0.2-1.2,0.3-1.8,0.4c-1.1,0.1-2.3-0.1-3.2-0.8c-1.2-0.9-1.8-2.3-1.9-3.8
				C4.1,11.9,3.2,12.1,3.2,12.2L3.2,12.2z"/>
		</g>
	</g>
	<g class="st1">
		<g>
			<path class="st2" d="M2.8,12.3c0.2,1.3,0.9,2.4,2.1,3.2c1.1,0.7,2.5,1,3.8,1.1c0.1,0,0.3-0.2,0.4-0.2c0.1-0.1,0.2-0.1,0.3-0.2
				c0,0,0.1-0.1,0.1-0.1c-1.3-0.1-2.7-0.4-3.8-1.1c-1.2-0.7-1.9-1.8-2.1-3.2c0,0-0.4,0.2-0.4,0.2C3.2,12.1,2.8,12.3,2.8,12.3
				L2.8,12.3z"/>
		</g>
	</g>
	<g class="st1">
		<g>
			<path class="st2" d="M7.3,13.9c-0.2,0.6-0.4,1.2-0.6,1.8c-0.1,0.5-0.4,1-0.4,1.5c-0.1,1,0.9,1.6,1.6,2.1c1.7,1.1,3.8,1.5,5.8,1.4
				c1.8,0,3.7-0.4,5.4-1.3c1.3-0.7,2.6-1.5,3.4-2.8c-0.2,0.2-0.7,0.2-0.9,0.5c-0.4,0.7-1,1.3-1.6,1.7c-0.1,0.1-0.7,0.4-0.2,0.2
				c-0.2,0.1-0.5,0.2-0.7,0.3c-0.4,0.2-0.8,0.3-1.2,0.4c-1.6,0.4-3.3,0.6-5,0.4c-1.7-0.2-3.4-0.7-4.7-1.8c-0.7-0.5-1.1-1.1-0.9-2
				c0.3-1,0.6-1.9,0.9-2.8C8.1,13.6,7.4,13.7,7.3,13.9L7.3,13.9z"/>
		</g>
	</g>
	<g class="st1">
		<g>
			<path class="st2" d="M8,14.1c1.8,1.2,4,0.7,6.1,0.8c2,0.1,4,0.2,5.8-0.8c0.6-0.3,1.2-0.7,1.6-1.2c0.1-0.1,0.2-0.2,0.2-0.3
				c0.1-0.2,0.1-0.1,0-0.2c-0.1-0.1-0.6-0.2-0.7-0.2c-0.6-0.2-1.1-0.3-1.7-0.4c-2.2-0.4-4.5-0.5-6.7-0.1c-1.1,0.2-2.4,0.5-3.4,1
				c-0.5,0.2-1.5,0.7-1.2,1.4c0,0,0.9-0.5,0.9-0.5c-0.2-0.4,0-0.6,0.3-0.8c-0.3,0.2-0.6,0.3-0.9,0.5c2-1,4.4-1.3,6.6-1.3
				c1.1,0,2.2,0.1,3.3,0.3c0.5,0.1,1,0.2,1.5,0.4c0.3,0.1,0.6,0.2,0.8,0.3c0.1,0,0.3,0.1,0.4,0.1c-0.1,0.1-0.1,0.2-0.2,0.3
				c-0.6,0.8-1.1,1-2.2,1.1c-1.2,0.2-2.4,0.1-3.5,0c-2.1-0.1-4.4,0.3-6.2-0.8C8.7,13.6,8.1,14.2,8,14.1L8,14.1z"/>
		</g>
	</g>
	<g class="st1">
		<g>
			<path class="st2" d="M21.3,13.7c0-0.1,0.1-0.2,0.1-0.4c-0.3,0.2-0.6,0.3-0.9,0.5c0.1,1.2,0,2.4-0.3,3.6c0.3-0.2,0.6-0.3,0.9-0.5
				c0-0.8,0.2-1.6,0.6-2.3c-0.3,0.2-0.6,0.3-0.9,0.5c0.1,1,0.1,1.9-0.2,2.9c0,0,0.1-0.1,0.1-0.1c0.1-0.1,0.2-0.1,0.3-0.2
				c0.1-0.1,0.2-0.1,0.3-0.2c0,0,0.1-0.1,0.1-0.1c0.2-0.9,0.3-1.9,0.2-2.9c0,0-0.4,0.2-0.4,0.2C21.2,14.9,21.1,15,21,15
				c0,0-0.1,0-0.1,0.1c-0.4,0.7-0.6,1.5-0.6,2.3c0,0,0.4-0.2,0.4-0.2c0.1-0.1,0.2-0.1,0.3-0.2c0,0,0.1-0.1,0.1-0.1
				c0.3-1.2,0.5-2.4,0.3-3.6c0,0-0.4,0.2-0.4,0.2c-0.1,0.1-0.2,0.1-0.3,0.2c0,0-0.1,0.1-0.1,0.1c0,0.1-0.1,0.2-0.1,0.4
				c0,0,0.1-0.1,0.1-0.1c0.1-0.1,0.2-0.1,0.3-0.2c0.1-0.1,0.2-0.1,0.3-0.2C21.2,13.8,21.3,13.8,21.3,13.7L21.3,13.7z"/>
		</g>
	</g>
	<g class="st1">
		<g>
			<path class="st2" d="M6.4,14.2c0,1.3,0.2,2.6,0.5,3.9c0,0,0.4-0.2,0.4-0.2c0.1-0.1,0.2-0.1,0.3-0.2c0,0,0.1-0.1,0.1-0.1
				c0.1-0.8,0.3-1.7,0.4-2.5c-0.3,0.2-0.6,0.3-0.9,0.5c0.2,1.1,0.2,2.2,0.2,3.3c0,0,0.4-0.2,0.4-0.2c0.1,0,0.4-0.2,0.4-0.3
				c0-1,0.1-2,0.1-3c0,0-0.4,0.2-0.4,0.2c-0.1,0-0.4,0.2-0.4,0.3c0,1-0.1,2-0.1,3c0.3-0.2,0.6-0.3,0.9-0.5c0-1.1,0.1-2.2-0.2-3.3
				c0,0-0.4,0.2-0.4,0.2c-0.1,0.1-0.2,0.1-0.3,0.2c0,0-0.1,0.1-0.1,0.1c-0.1,0.8-0.3,1.7-0.4,2.5c0.3-0.2,0.6-0.3,0.9-0.5
				c-0.3-1.3-0.4-2.6-0.5-3.9c0,0-0.4,0.2-0.4,0.2C6.8,14,6.4,14.2,6.4,14.2L6.4,14.2z"/>
		</g>
	</g>
	<g class="st1">
		<g>
			<path class="st3" d="M7.1,4.8C6.8,5.2,6.6,5.7,6.7,6.2C7,6,7.3,5.8,7.5,5.7c-0.5-1.1-1-2.1-1.5-3.2C5.8,2,5.6,1.5,5.4,1
				C5.2,0.5,4.8,0.1,5.3-0.3C5-0.1,4.7,0.1,4.4,0.2c0.8-0.3,1.5,0.6,1.9,1.1C7,2,7.5,2.7,7.9,3.5c0,0,0.9-0.4,0.9-0.5
				c-0.1-1,0-2.6,0.9-3.4C9.4-0.3,9.2-0.1,8.9,0C9,0,9,0,9.1,0C9,0,9,0,8.9,0c0.3-0.1,0.3,0,0.4,0.3c0.1,0.3,0.1,0.5,0.1,0.8
				c0,0.5-0.2,1-0.5,1.4C9,2.3,9.5,2.2,9.8,2.1c0.5-0.4,0.9-0.8,1.4-1.2c0.1-0.1,0.2-0.2,0.4-0.3c0.3-0.2,0.2-0.2-0.1,0
				c0,0,0.4-0.1,0.4,0c0.3,0.1,0.2,0.3,0.1,0.5c-0.1,0.2-0.2,0.4-0.4,0.6c-0.3,0.4-0.6,0.8-0.9,1.1c-0.3,0.3-0.1,0.1,0.2,0
				c0.3-0.1,0.5-0.2,0.8-0.3c0.5-0.2,1-0.3,1.5-0.3c0.4,0,0.3,0.1,0,0.3c-0.2,0.2-0.4,0.3-0.7,0.5c-0.5,0.4-1.1,0.6-1.7,0.9
				c-0.1,0-0.8,0.5-0.9,0.5c1.3,0.8,2.4,1.9,3.2,3.3c0.4,0.7,0.7,1.4,0.9,2.1c0.1,0.3,0.2,0.7,0.2,1c0,0.3,0.2,0.8,0,1
				c0.3-0.2,0.6-0.3,0.9-0.5c-0.1,0-0.1,0-0.1-0.1c-0.3,0.2-0.6,0.3-0.9,0.5c0,0,0,0,0,0c0.3,0,0.6-0.5,0.9-0.5c0,0,0,0,0,0
				c-0.1,0-0.9,0.4-0.9,0.5c0,0.3,0.4,0,0.5-0.1c0.2-0.1,0.5-0.2,0.6-0.4c0.1-0.4-0.1-1-0.2-1.4c-0.1-0.5-0.3-1-0.5-1.4
				c-0.8-1.9-2.1-3.4-3.8-4.5c-0.3,0.2-0.6,0.3-0.9,0.5c1.1-0.4,2.1-1,3.1-1.6c0.3-0.2,0.6-0.4,0.9-0.7c0,0,0.4-0.3,0.4-0.3
				c0-0.1-0.5,0-0.6,0c-0.4,0-0.8,0.1-1.2,0.3c-0.2,0.1-1.1,0.6-1.2,0.5c0.2,0.1,1.3-1.5,1.4-1.7c0.1-0.3,0.5-0.6,0.1-0.7
				C12.4,0,12.2,0.2,12,0.3c-1.1,0.6-2.1,1.5-3.1,2.3c0.3-0.2,0.6-0.3,0.9-0.5c0.4-0.7,0.6-1.4,0.4-2.2c-0.1-0.3-0.1-0.4-0.4-0.3
				C9.6-0.4,9.4-0.2,9.2-0.1C8,0.6,7.9,2.2,7.9,3.5C8.2,3.3,8.5,3.1,8.8,3C8.2,2,7.5,1,6.7,0.2C6.3-0.1,5.9-0.5,5.4-0.3
				C5.1-0.2,4.9,0,4.7,0.1C4.4,0.2,4.2,0.4,4.2,0.7c0,0.3,0.2,0.6,0.4,0.8C4.7,1.8,4.8,2.1,5,2.4c0.6,1.3,1.2,2.5,1.7,3.8
				c0,0,0.9-0.4,0.9-0.5c0-0.5,0.1-1,0.4-1.4C7.8,4.5,7.3,4.6,7.1,4.8L7.1,4.8z"/>
		</g>
	</g>
	<g class="st1">
		<g>
			<path class="st3" d="M6.7,4.7C5.5,5.2,4.2,6,3.5,7.1c-1.1,1.7-1.3,3.7-1.1,5.7c0.2,2.2,0.6,4.4,1,6.6c0.1,1,0.2,1.9,1.3,1.9
				c0.6,0,1.2,0,1.7,0c0.3,0,0.7,0,1,0c0.2,0,0.3,0,0.5,0c0.3-0.1,0.3,0,0.1,0.1c0.2-0.1,0.4-0.2,0.5-0.3c-0.1,0-0.1,0.1-0.2,0.1
				C8.5,21,8.7,21,8.8,20.9c-1.1,0.4-2.1-0.5-2.9-1.2c-0.9-0.8-1.7-1.6-2.4-2.5c0,0-0.9,0.5-0.9,0.5c0.2,1.4,1.2,2.7,2.5,3.3
				c0.6,0.3,1.3,0.5,2,0.5c0.4,0,0.8-0.1,1.2-0.2c0.3-0.1,1-0.5,1.3-0.4c0.7,0.2-0.3,1.3-0.1,1.7c0.2,0.8,1.5,0.1,1.9-0.1
				c1.2-0.6,2.4-1.3,3.5-2c-0.3,0.2-0.6,0.3-0.9,0.5c-0.7,0.8-1.5,1.8-2.5,2.1c-1.2,0.3-2.5,0.1-3.6-0.4c-1.1-0.5-2.1-1.1-3-1.9
				c-0.8-0.6-1.6-1.5-1.5-2.6c-0.3,0.2-0.6,0.3-0.9,0.5c0.3,0.5,0.6,1,0.7,1.6c0.1,0.4,0.1,1.1,0.5,1.2c0.4,0.1,1.1-0.4,1.3-0.6
				c-0.2,0.2-0.7,0.3-0.9,0.5c0,0-0.1,0.1-0.1,0.1c0.3-0.2,0.6-0.3,0.9-0.5c-0.6,0.3-0.7-0.5-0.8-1c-0.1-0.6-0.4-1.2-0.8-1.8
				c0,0-0.9,0.4-0.9,0.5c-0.1,1.4,1.1,2.4,2.2,3.1c1.2,0.9,2.6,1.7,4.1,1.9c2.5,0.3,4.6-1.5,6.1-3.2c-0.2,0.2-0.6,0.3-0.9,0.5
				c-0.5,0.3-3.5,2.4-3.8,1.1c-0.1-0.5,0.6-1.2,0.4-1.5c-0.2-0.4-1.6,0.3-2,0.4c-2.4,0.5-4.9-1.3-5.3-3.7c-0.3,0.2-0.6,0.3-0.9,0.5
				c0.6,0.8,1.3,1.6,2.1,2.2c0.7,0.6,1.6,1.5,2.5,1.6c0.6,0.1,1.1-0.3,1.6-0.6c0,0,0.1,0,0.1-0.1c0.2-0.2,0.2-0.1-0.1-0.1
				c-0.1,0-0.2,0-0.4,0c-0.6,0-1.2,0.1-1.7,0.1c-1,0-2,0.2-2.3-1c-0.2-1.1-0.3-2.2-0.5-3.3c-0.3-2.1-0.8-4.3-0.7-6.5
				c0.1-1,0.3-2,0.8-3C4.3,6.7,4.6,6.3,4.9,6C5,5.8,5.2,5.6,5.4,5.5c0.1-0.1,0.1-0.1,0.2-0.2C5.4,5.5,5.8,5.2,5.9,5.2
				C6.2,5.1,6.4,4.8,6.7,4.7L6.7,4.7z"/>
		</g>
	</g>
	<g class="st1">
		<g>
			<path class="st3" d="M5.5,6.5c-1.1,1.2-1.9,2.6-2.6,4.1c-0.7,1.5-1.3,3.2-1.7,4.8c-0.4,1.7-0.4,3.4,0.4,5C2.2,21.6,3.2,23,4.7,23
				c0.3,0,0.6-0.5,0.9-0.5c-1.5,0.1-2.5-1.4-3.1-2.6c-0.8-1.6-0.8-3.3-0.4-5c0.4-1.6,1-3.3,1.7-4.8C4.4,8.6,5.2,7.2,6.4,6
				C6.1,6.2,5.7,6.3,5.5,6.5L5.5,6.5z"/>
		</g>
	</g>
	<g class="st1">
		<g>
			<path class="st3" d="M11.4,6.4C12,7,12.5,7.6,13.1,8.1c0,0,0.4-0.2,0.4-0.2c0.1-0.1,0.2-0.1,0.3-0.2c0,0,0.1-0.1,0.1-0.1
				c-0.5-0.6-1.1-1.2-1.6-1.8c0,0-0.4,0.2-0.4,0.2c-0.1,0.1-0.2,0.1-0.3,0.2C11.5,6.3,11.4,6.4,11.4,6.4L11.4,6.4z"/>
		</g>
	</g>
	<g class="st1">
		<g>
			<path class="st3" d="M5.2,5.7c0.2-0.2-0.3,0-0.4,0C4.7,5.8,4.3,5.9,4.2,6.1c0,0.2,0.3,0.6,0.4,0.7C4.8,7.1,5,7.4,5.2,7.6
				C5.6,8.2,6,8.7,6.4,9.3C6.7,9.1,6.9,9,7.2,8.8C6.4,8.2,5.6,7.5,4.7,6.9C4.4,6.5,4,6.2,3.6,5.9C3.3,5.6,2.9,5.4,3.2,5
				C3.1,5.1,2.9,5.2,2.8,5.3c0,0,0.1,0,0.1-0.1C2.8,5.3,2.6,5.4,2.5,5.4C4.1,4.8,6,6.4,7.2,7.4C7.5,7.2,7.8,7,8.1,6.9
				C7.7,6.6,7.3,6.1,7.7,5.7C7.4,5.8,7.1,6,6.8,6.2c0.9-0.4,1.8,1.1,2,1.8c0,0,0.8-0.4,0.9-0.5c0.5-0.5,1-0.9,1.5-1.4
				c0.3-0.3,0.6-0.5,1-0.7c0.2-0.1,0.2-0.1,0.1-0.1c-0.2,0.1-0.1,0.1,0.3-0.1c0.1-0.1,0.2-0.1,0.4-0.1c0.3-0.1,0.6-0.3,1-0.2
				c0.2,0,0.3,0,0.2,0.3c0,0.1-0.1,0.2-0.2,0.3c-0.4,0.6-1,1.1-1.6,1.5c-0.3,0.2-0.6,0.4-0.8,0.7c-0.2,0.1-0.4,0.3-0.6,0.4
				c-0.1,0.1-0.3,0.2-0.4,0.2c0.1-0.2,0.8-0.4,1-0.4c0.3-0.1,0.8-0.3,1-0.3c0.1,0,0.1,0,0,0.1c-0.1,0.1-0.2,0.1-0.2,0.2
				c-0.2,0.1-0.3,0.2-0.5,0.4c-0.2,0.1-0.2,0.2-0.1,0.1c-0.1,0.1-0.2,0.1-0.4,0.2c-0.2,0.1-0.3,0.1-0.5,0.2
				c-0.3,0.1-0.2,0.1-0.4-0.1c-0.1-0.1-0.1-0.4-0.2-0.6c-0.1-0.3-0.3-0.7-0.2-1c-0.1,0-0.1,0.1-0.2,0.1c0,0,0.1,0,0.1-0.1
				C9.9,7.3,9.7,7.4,9.5,7.6c1-0.3,2.5,0.1,3.4,0.5c0.5,0.2,0.9,0.5,1,1c0.2,0.6-0.3,1-0.5,1.5c0.3-0.2,0.6-0.3,0.9-0.5
				c-0.8-1.7-2.8-2.1-4.6-2C8.1,8,6.1,8,4.7,8.8C4.2,9,3.7,9.3,3.2,9.7c-0.7,0.6-1.1,1.4-1.5,2.2c-0.8,1.7-0.9,3.7-0.5,5.6
				c0-0.1,0.9-0.4,0.9-0.5c-0.3-1.8-0.6-3.8,0-5.6c0.3-0.8,0.7-1.5,1.3-2.1c0.6-0.6,1.3-1,1.7-1.8C5,7.7,4.4,7.7,4.3,8
				C3.9,8.7,3.2,9.2,2.6,9.7c-0.6,0.6-1,1.3-1.3,2.1c-0.6,1.8-0.4,3.8,0,5.6c0.3-0.2,0.6-0.3,0.9-0.5c-0.3-1.6-0.3-3.2,0.2-4.8
				c0.2-0.7,0.6-1.4,1-2.1c0.4-0.7,0.8-1,1.6-1.2c0.7-0.2,1.5-0.2,2.2-0.2C8,8.5,8.9,8.4,9.8,8.5c1.5,0.1,3,0.6,3.7,2
				c0,0,0.8-0.4,0.9-0.5c0.2-0.4,0.5-0.7,0.5-1.2c0-0.4-0.3-0.8-0.7-1.1c-0.7-0.5-1.8-0.7-2.6-0.7C10.7,7,10.4,7,9.7,7.4
				C9.6,7.5,9.4,7.6,9.3,7.7C9.2,7.9,9.6,9,9.7,9.2c0,0.2,0.1,0.3,0.3,0.2c0.1,0,0.1-0.1,0.2-0.1c0.2-0.1,0.4-0.2,0.6-0.3
				c0.2-0.1,0.5-0.2,0.7-0.4c0.6-0.4,1.2-0.7,1.8-1.2c0.1,0,0.1-0.1,0.2-0.1c0.2-0.2,0.2-0.2,0-0.1c-0.2,0-0.4,0.1-0.6,0.2
				c-0.4,0.1-0.8,0.3-1.2,0.5C11,8.1,10.5,8.4,10,8.7c0.1,0,0.3-0.2,0.4-0.2c0.9-0.5,1.9-1.1,2.7-1.8c0.5-0.4,1.1-0.9,1.5-1.4
				C14.8,5,15.1,4.7,15,4.4c-0.1-0.2-0.7,0-0.9,0.1c-2,0.6-3.7,2.1-5.2,3.5c0.3-0.2,0.6-0.3,0.9-0.5C9.5,6.8,8.6,5.2,7.6,5.7
				C7.4,5.9,7.1,6,6.9,6.2c-0.4,0.4,0,0.9,0.3,1.2C7.3,7.4,8,6.8,8.1,6.9C7.2,6.1,6.2,5.4,5.1,5C4.7,4.9,4.1,4.8,3.6,4.9
				C3.3,4.9,3,5.1,2.8,5.3C2.6,5.3,2.2,5.5,2.2,5.7C2.1,6.1,3,6.6,3.3,6.8c1,0.9,2,1.7,3.1,2.5c0.1,0.1,0.8-0.5,0.9-0.5
				C6.8,8.2,6.4,7.7,6.1,7.1C5.8,6.8,5,6,5.1,5.6C4.8,5.7,4.5,5.9,4.2,6.1c0.1,0,0.2,0,0.1,0.1C4.5,5.9,5.1,5.9,5.2,5.7L5.2,5.7z"/>
		</g>
	</g>
</g>
<g id="Layer_4">
</g>
<g id="Layer_3">
	<g id="XMLID_1_">
		<g>
			<rect x="11" y="18" class="st4" width="1" height="1"/>
			<rect x="3" y="11" width="1" height="1"/>
			<rect x="3" y="10" width="1" height="1"/>
			<rect x="11" y="1" width="1" height="1"/>
			<rect x="13" y="1" width="1" height="1"/>
			<rect x="13" y="3" width="1" height="1"/>
			<rect x="13" width="1" height="1"/>
			<rect x="13" y="2" width="1" height="1"/>
			<rect x="12" width="1" height="1"/>
			<rect x="16" y="15" class="st4" width="1" height="1"/>
			<rect x="16" y="14" class="st4" width="1" height="1"/>
			<rect x="6" y="12" class="st4" width="1" height="1"/>
			<rect x="11" y="17" class="st4" width="1" height="1"/>
			<rect x="15" y="18" class="st5" width="1" height="1"/>
			<rect x="14" y="19" class="st4" width="1" height="1"/>
			<rect x="14" y="17" class="st5" width="1" height="1"/>
			<rect x="13" y="18" class="st4" width="1" height="1"/>
			<rect x="14" y="18" class="st4" width="1" height="1"/>
			<rect x="12" y="20" class="st4" width="1" height="1"/>
			<rect x="12" y="21" class="st4" width="1" height="1"/>
			<rect x="11" y="20" class="st4" width="1" height="1"/>
			<rect x="11" y="21" class="st4" width="1" height="1"/>
			<rect x="9" y="19" class="st4" width="1" height="1"/>
			<rect x="9" y="18" class="st4" width="1" height="1"/>
			<rect x="8" y="18" class="st4" width="1" height="1"/>
			<rect x="7" y="19" class="st4" width="1" height="1"/>
			<rect x="8" y="19" class="st4" width="1" height="1"/>
			<rect x="7" y="14" class="st5" width="1" height="1"/>
			<rect x="8" y="14" class="st5" width="1" height="1"/>
			<rect x="8" y="15" class="st5" width="1" height="1"/>
			<rect x="6" y="14" class="st4" width="1" height="1"/>
			<rect x="6" y="15" class="st4" width="1" height="1"/>
			<rect x="8" y="16" class="st4" width="1" height="1"/>
			<rect x="6" y="16" class="st4" width="1" height="1"/>
			<rect x="7" y="16" class="st4" width="1" height="1"/>
			<rect x="7" y="15" class="st4" width="1" height="1"/>
			<rect x="9" y="12" class="st4" width="1" height="1"/>
			<rect x="8" y="12" class="st4" width="1" height="1"/>
			<rect x="8" y="11" class="st4" width="1" height="1"/>
			<rect x="11" y="11" class="st4" width="1" height="1"/>
			<rect x="10" y="12" class="st4" width="1" height="1"/>
			<rect x="9" y="11" class="st4" width="1" height="1"/>
			<rect x="10" y="10" class="st4" width="1" height="1"/>
			<rect x="10" y="11" class="st4" width="1" height="1"/>
			<rect x="13" y="15" class="st4" width="1" height="1"/>
			<rect x="13" y="14" class="st4" width="1" height="1"/>
			<rect x="14" y="15" class="st4" width="1" height="1"/>
			<rect x="14" y="14" class="st4" width="1" height="1"/>
			<rect x="13" y="12" class="st5" width="1" height="1"/>
			<rect x="14" y="13" class="st5" width="1" height="1"/>
			<rect x="11" y="14" class="st4" width="1" height="1"/>
			<rect x="11" y="15" class="st4" width="1" height="1"/>
			<rect x="12" y="15" class="st4" width="1" height="1"/>
			<rect x="12" y="14" class="st4" width="1" height="1"/>
			<rect x="12" y="13" class="st4" width="1" height="1"/>
			<rect x="13" y="13" class="st5" width="1" height="1"/>
			<rect x="15" y="6" class="st5" width="1" height="1"/>
			<rect x="12" y="8" class="st4" width="1" height="1"/>
			<rect x="12" y="9" class="st4" width="1" height="1"/>
			<rect x="13" y="9" class="st4" width="1" height="1"/>
			<rect x="15" y="8" class="st4" width="1" height="1"/>
			<rect x="13" y="6" class="st4" width="1" height="1"/>
			<rect x="14" y="6" class="st5" width="1" height="1"/>
			<rect x="12" y="6" class="st4" width="1" height="1"/>
			<rect x="12" y="7" class="st4" width="1" height="1"/>
			<rect x="13" y="7" class="st4" width="1" height="1"/>
			<rect x="14" y="9" class="st4" width="1" height="1"/>
			<rect x="15" y="7" class="st5" width="1" height="1"/>
			<rect x="14" y="7" class="st4" width="1" height="1"/>
			<rect x="14" y="8" class="st4" width="1" height="1"/>
			<rect x="13" y="8" class="st4" width="1" height="1"/>
			<rect x="20" y="8" width="1" height="1"/>
			<rect x="19" y="6" class="st5" width="1" height="1"/>
			<rect x="19" y="8" class="st4" width="1" height="1"/>
			<rect x="20" y="7" width="1" height="1"/>
			<rect x="19" y="7" class="st5" width="1" height="1"/>
			<rect x="17" y="9" class="st4" width="1" height="1"/>
			<rect x="17" y="10" class="st5" width="1" height="1"/>
			<rect x="18" y="12" class="st4" width="1" height="1"/>
			<rect x="18" y="10" class="st5" width="1" height="1"/>
			<rect x="18" y="11" class="st4" width="1" height="1"/>
			<rect x="16" y="12" class="st4" width="1" height="1"/>
			<rect x="17" y="13" class="st4" width="1" height="1"/>
			<rect x="15" y="11" class="st4" width="1" height="1"/>
			<rect x="16" y="11" class="st4" width="1" height="1"/>
			<rect x="17" y="12" class="st4" width="1" height="1"/>
			<rect x="17" y="11" class="st4" width="1" height="1"/>
			<rect x="6" y="7" class="st6" width="1" height="1"/>
			<rect x="8" y="7" class="st6" width="1" height="1"/>
			<rect x="7" y="5" class="st7" width="1" height="1"/>
			<rect x="8" y="5" class="st7" width="1" height="1"/>
			<rect x="6" y="6" class="st6" width="1" height="1"/>
			<rect x="7" y="7" class="st7" width="1" height="1"/>
			<rect x="7" y="6" class="st7" width="1" height="1"/>
			<rect x="8" y="6" class="st7" width="1" height="1"/>
			<rect x="9" y="6" class="st7" width="1" height="1"/>
			<rect x="5" y="4" class="st6" width="1" height="1"/>
			<rect x="9" y="7" class="st7" width="1" height="1"/>
			<rect x="4" y="8" class="st7" width="1" height="1"/>
			<rect x="4" y="6" class="st6" width="1" height="1"/>
			<rect x="4" y="9" class="st6" width="1" height="1"/>
			<rect x="8" y="3" class="st6" width="1" height="1"/>
			<rect x="7" y="3" class="st6" width="1" height="1"/>
			<rect x="6" y="3" class="st6" width="1" height="1"/>
			<rect x="4" y="7" class="st6" width="1" height="1"/>
			<rect x="4" y="12" width="1" height="1"/>
			<rect x="3" y="6" width="1" height="1"/>
			<rect x="4" y="11" width="1" height="1"/>
			<rect x="8" y="2" width="1" height="1"/>
			<rect x="4" y="3" width="1" height="1"/>
			<rect x="3" y="9" width="1" height="1"/>
			<rect x="5" y="2" width="1" height="1"/>
			<rect x="9" y="3" class="st6" width="1" height="1"/>
			<rect x="3" y="8" width="1" height="1"/>
			<rect x="4" y="5" width="1" height="1"/>
			<rect x="4" y="10" class="st6" width="1" height="1"/>
			<rect x="5" y="3" width="1" height="1"/>
			<rect x="3" y="7" width="1" height="1"/>
			<rect x="7" y="2" width="1" height="1"/>
			<rect x="6" y="2" width="1" height="1"/>
			<rect x="9" y="2" width="1" height="1"/>
			<rect x="6" y="11" width="1" height="1"/>
			<rect x="8" y="10" width="1" height="1"/>
			<rect x="6" y="10" class="st6" width="1" height="1"/>
			<rect x="4" y="4" width="1" height="1"/>
			<rect x="9" y="10" width="1" height="1"/>
			<rect x="10" y="21" width="1" height="1"/>
			<rect x="10" y="20" width="1" height="1"/>
			<rect x="11" y="19" width="1" height="1"/>
			<rect x="13" y="22" width="1" height="1"/>
			<rect x="10" y="18" width="1" height="1"/>
			<rect x="9" y="20" width="1" height="1"/>
			<rect x="10" y="17" width="1" height="1"/>
			<rect x="9" y="17" width="1" height="1"/>
			<rect x="10" y="19" width="1" height="1"/>
			<rect x="8" y="20" width="1" height="1"/>
			<rect x="7" y="18" class="st4" width="1" height="1"/>
			<rect x="13" y="17" class="st4" width="1" height="1"/>
			<rect x="13" y="19" class="st4" width="1" height="1"/>
			<rect x="12" y="18" width="1" height="1"/>
			<rect x="12" y="19" width="1" height="1"/>
			<rect x="13" y="20" width="1" height="1"/>
			<rect x="15" y="17" class="st5" width="1" height="1"/>
			<rect x="12" y="17" width="1" height="1"/>
			<rect x="14" y="12" width="1" height="1"/>
			<rect x="15" y="16" width="1" height="1"/>
			<rect x="10" y="14" width="1" height="1"/>
			<rect x="11" y="16" width="1" height="1"/>
			<rect x="10" y="15" width="1" height="1"/>
			<rect x="13" y="16" width="1" height="1"/>
			<rect x="12" y="16" width="1" height="1"/>
			<rect x="14" y="16" width="1" height="1"/>
			<rect x="15" y="15" width="1" height="1"/>
			<rect x="15" y="14" width="1" height="1"/>
			<rect x="10" y="16" width="1" height="1"/>
			<rect x="13" y="11" width="1" height="1"/>
			<rect x="6" y="13" width="1" height="1"/>
			<rect x="8" y="17" width="1" height="1"/>
			<rect x="7" y="13" width="1" height="1"/>
			<rect x="9" y="14" width="1" height="1"/>
			<rect x="7" y="17" width="1" height="1"/>
			<rect x="9" y="16" width="1" height="1"/>
			<rect x="9" y="15" width="1" height="1"/>
			<rect x="10" y="13" width="1" height="1"/>
			<rect x="8" y="9" class="st6" width="1" height="1"/>
			<rect x="12" y="11" width="1" height="1"/>
			<rect x="11" y="13" width="1" height="1"/>
			<rect x="10" y="9" width="1" height="1"/>
			<rect x="9" y="13" width="1" height="1"/>
			<rect x="11" y="12" width="1" height="1"/>
			<rect x="7" y="11" width="1" height="1"/>
			<rect x="8" y="13" width="1" height="1"/>
			<rect x="11" y="10" width="1" height="1"/>
			<rect x="12" y="12" width="1" height="1"/>
			<rect x="9" y="9" width="1" height="1"/>
			<rect x="7" y="10" class="st6" width="1" height="1"/>
			<rect x="7" y="9" class="st6" width="1" height="1"/>
			<rect x="7" y="12" width="1" height="1"/>
			<rect x="15" y="13" width="1" height="1"/>
			<rect x="16" y="10" width="1" height="1"/>
			<rect x="18" y="13" width="1" height="1"/>
			<rect x="15" y="12" width="1" height="1"/>
			<rect x="14" y="11" width="1" height="1"/>
			<rect x="17" y="14" width="1" height="1"/>
			<rect x="16" y="13" width="1" height="1"/>
			<rect x="17" y="5" width="1" height="1"/>
			<rect x="18" y="6" class="st4" width="1" height="1"/>
			<rect x="18" y="5" width="1" height="1"/>
			<rect x="19" y="5" width="1" height="1"/>
			<rect x="17" y="8" width="1" height="1"/>
			<rect x="20" y="6" width="1" height="1"/>
			<rect x="11" y="9" width="1" height="1"/>
			<rect x="12" y="5" width="1" height="1"/>
			<rect x="16" y="7" width="1" height="1"/>
			<rect x="11" y="8" width="1" height="1"/>
			<rect x="11" y="7" width="1" height="1"/>
			<rect x="16" y="9" width="1" height="1"/>
			<rect x="13" y="10" width="1" height="1"/>
			<rect x="14" y="10" width="1" height="1"/>
			<rect x="15" y="9" width="1" height="1"/>
			<rect x="14" y="4" width="1" height="1"/>
			<rect x="11" y="6" width="1" height="1"/>
			<rect x="12" y="10" width="1" height="1"/>
			<rect x="15" y="10" width="1" height="1"/>
			<rect x="13" y="5" width="1" height="1"/>
			<rect x="16" y="8" width="1" height="1"/>
			<rect x="17" y="6" width="1" height="1"/>
			<rect x="14" y="21" width="1" height="1"/>
			<rect x="5" y="13" width="1" height="1"/>
			<rect x="16" y="18" width="1" height="1"/>
			<rect x="5" y="16" width="1" height="1"/>
			<rect x="6" y="17" width="1" height="1"/>
			<rect x="14" y="20" width="1" height="1"/>
			<rect x="19" y="11" width="1" height="1"/>
			<rect x="16" y="17" width="1" height="1"/>
			<rect x="18" y="9" width="1" height="1"/>
			<rect x="19" y="9" width="1" height="1"/>
			<rect x="15" y="19" class="st4" width="1" height="1"/>
			<rect x="7" y="20" width="1" height="1"/>
			<rect x="13" y="4" width="1" height="1"/>
			<rect x="19" y="10" width="1" height="1"/>
			<rect x="16" y="6" width="1" height="1"/>
			<rect x="5" y="11" width="1" height="1"/>
			<rect x="19" y="12" width="1" height="1"/>
			<rect x="15" y="5" width="1" height="1"/>
			<rect x="6" y="19" width="1" height="1"/>
			<rect x="14" y="5" width="1" height="1"/>
			<rect x="16" y="16" width="1" height="1"/>
			<rect x="5" y="12" width="1" height="1"/>
			<rect x="18" y="7" class="st4" width="1" height="1"/>
			<rect x="17" y="15" width="1" height="1"/>
			<rect x="15" y="20" width="1" height="1"/>
			<rect x="5" y="14" width="1" height="1"/>
			<rect x="17" y="7" class="st4" width="1" height="1"/>
			<rect x="11" y="22" width="1" height="1"/>
			<rect x="6" y="18" width="1" height="1"/>
			<rect x="12" y="22" width="1" height="1"/>
			<rect x="13" y="21" width="1" height="1"/>
			<rect x="16" y="19" width="1" height="1"/>
			<rect x="18" y="8" class="st4" width="1" height="1"/>
			<rect x="18" y="14" width="1" height="1"/>
			<rect x="17" y="16" width="1" height="1"/>
			<rect x="5" y="15" width="1" height="1"/>
			<rect x="10" y="7" class="st6" width="1" height="1"/>
			<rect x="6" y="5" class="st7" width="1" height="1"/>
			<rect x="10" y="8" class="st6" width="1" height="1"/>
			<rect x="5" y="10" class="st7" width="1" height="1"/>
			<rect x="6" y="9" class="st7" width="1" height="1"/>
			<rect x="5" y="5" class="st7" width="1" height="1"/>
			<rect x="12" y="4" width="1" height="1"/>
			<rect x="5" y="9" class="st7" width="1" height="1"/>
			<rect x="7" y="4" class="st6" width="1" height="1"/>
			<rect x="8" y="4" class="st6" width="1" height="1"/>
			<rect x="12" y="3" class="st7" width="1" height="1"/>
			<rect x="7" y="8" class="st7" width="1" height="1"/>
			<rect x="6" y="4" class="st6" width="1" height="1"/>
			<rect x="6" y="8" class="st7" width="1" height="1"/>
			<rect x="5" y="8" class="st7" width="1" height="1"/>
			<rect x="9" y="4" class="st7" width="1" height="1"/>
			<rect x="10" y="6" class="st6" width="1" height="1"/>
			<rect x="5" y="7" class="st6" width="1" height="1"/>
			<rect x="11" y="5" width="1" height="1"/>
			<rect x="8" y="8" class="st6" width="1" height="1"/>
			<rect x="5" y="6" class="st6" width="1" height="1"/>
			<rect x="11" y="4" width="1" height="1"/>
			<rect x="9" y="8" class="st7" width="1" height="1"/>
			<rect x="12" y="1" class="st7" width="1" height="1"/>
			<rect x="10" y="4" width="1" height="1"/>
			<rect x="11" y="3" width="1" height="1"/>
			<rect x="11" y="2" width="1" height="1"/>
			<rect x="12" y="2" class="st7" width="1" height="1"/>
			<rect x="9" y="5" class="st6" width="1" height="1"/>
			<rect x="10" y="5" class="st6" width="1" height="1"/>
			<rect x="10" y="3" width="1" height="1"/>
		</g>
		<g>
		</g>
	</g>
</g>
</svg>
