<svg xmlns="http://www.w3.org/2000/svg" viewBox="0 0 1693.06 340"><defs><style>.cls-1{fill:#a23b72;}.cls-2{fill:#d7c0d0;}.cls-3{fill:#5da043;}.cls-4{fill:#84732b;}.cls-5{fill:#f2d0a4;}.cls-6{fill:#fcc174;}.cls-7{fill:#ffd932;}.cls-8{fill:#e28413;}.cls-9{fill:#ad2e24;}.cls-10{fill:#cc434e;}.cls-11{fill:#47230f;}.cls-12{fill:#f08a4b;}.cls-13{fill:#e26c2d;}.cls-14{fill:#813405;}.cls-15{fill:#a5693d;}.cls-16{fill:#a56017;}</style></defs><title>header</title><g id="Layer_3" data-name="Layer 3"><rect x="460" y="260" width="10" height="10"/><rect x="460" y="250" width="10" height="10"/><rect x="450" y="270" width="10" height="10"/><rect class="cls-1" x="450" y="260" width="10" height="10"/><rect class="cls-2" x="450" y="250" width="10" height="10"/><rect x="450" y="240" width="10" height="10"/><rect x="450" y="220" width="10" height="10"/><rect x="450" y="210" width="10" height="10"/><rect x="440" y="280" width="10" height="10"/><rect x="440" y="270" width="10" height="10"/><rect class="cls-1" x="440" y="260" width="10" height="10"/><rect class="cls-1" x="440" y="250" width="10" height="10"/><rect x="440" y="240" width="10" height="10"/><rect x="440" y="220" width="10" height="10"/><rect class="cls-3" x="440" y="210" width="10" height="10"/><rect x="440" y="200" width="10" height="10"/><rect x="430" y="310" width="10" height="10"/><rect x="430" y="300" width="10" height="10"/><rect x="430" y="290" width="10" height="10"/><rect class="cls-1" x="430" y="280" width="10" height="10"/><rect class="cls-2" x="430" y="270" width="10" height="10"/><rect x="430" y="260" width="10" height="10"/><rect x="430" y="250" width="10" height="10"/><rect x="430" y="240" width="10" height="10"/><rect x="430" y="230" width="10" height="10"/><rect class="cls-3" x="430" y="220" width="10" height="10"/><rect class="cls-3" x="430" y="210" width="10" height="10"/><rect class="cls-4" x="430" y="200" width="10" height="10"/><rect x="430" y="190" width="10" height="10"/><rect x="420" y="320" width="10" height="10"/><rect class="cls-1" x="420" y="310" width="10" height="10"/><rect class="cls-2" x="420" y="300" width="10" height="10"/><rect x="420" y="290" width="10" height="10"/><rect class="cls-1" x="420" y="280" width="10" height="10"/><rect class="cls-1" x="420" y="270" width="10" height="10"/><rect x="420" y="260" width="10" height="10"/><rect class="cls-1" x="420" y="250" width="10" height="10"/><rect class="cls-2" x="420" y="240" width="10" height="10"/><rect x="420" y="230" width="10" height="10"/><rect class="cls-3" x="420" y="220" width="10" height="10"/><rect class="cls-4" x="420" y="210" width="10" height="10"/><rect class="cls-3" x="420" y="200" width="10" height="10"/><rect x="420" y="190" width="10" height="10"/><rect x="410" y="320" width="10" height="10"/><rect class="cls-1" x="410" y="310" width="10" height="10"/><rect class="cls-1" x="410" y="300" width="10" height="10"/><rect x="410" y="290" width="10" height="10"/><rect x="410" y="280" width="10" height="10"/><rect x="410" y="270" width="10" height="10"/><rect x="410" y="260" width="10" height="10"/><rect class="cls-1" x="410" y="250" width="10" height="10"/><rect class="cls-2" x="410" y="240" width="10" height="10"/><rect x="410" y="230" width="10" height="10"/><rect class="cls-4" x="410" y="220" width="10" height="10"/><rect class="cls-3" x="410" y="210" width="10" height="10"/><rect x="410" y="200" width="10" height="10"/><rect x="400" y="320" width="10" height="10"/><rect x="400" y="310" width="10" height="10"/><rect x="400" y="300" width="10" height="10"/><rect x="400" y="290" width="10" height="10"/><rect x="400" y="280" width="10" height="10"/><rect x="400" y="270" width="10" height="10"/><rect x="400" y="260" width="10" height="10"/><rect x="400" y="250" width="10" height="10"/><rect x="400" y="240" width="10" height="10"/><rect x="400" y="230" width="10" height="10"/><rect x="400" y="220" width="10" height="10"/><rect x="400" y="210" width="10" height="10"/><rect x="400" y="200" width="10" height="10"/><rect x="390" y="320" width="10" height="10"/><rect x="390" y="310" width="10" height="10"/><rect x="390" y="300" width="10" height="10"/><rect class="cls-1" x="390" y="290" width="10" height="10"/><rect class="cls-2" x="390" y="280" width="10" height="10"/><rect x="390" y="270" width="10" height="10"/><rect class="cls-1" x="390" y="260" width="10" height="10"/><rect class="cls-2" x="390" y="250" width="10" height="10"/><rect x="390" y="240" width="10" height="10"/><rect class="cls-1" x="390" y="230" width="10" height="10"/><rect class="cls-2" x="390" y="220" width="10" height="10"/><rect x="390" y="210" width="10" height="10"/><rect x="380" y="320" width="10" height="10"/><rect class="cls-2" x="380" y="310" width="10" height="10"/><rect x="380" y="300" width="10" height="10"/><rect class="cls-1" x="380" y="290" width="10" height="10"/><rect class="cls-1" x="380" y="280" width="10" height="10"/><rect x="380" y="270" width="10" height="10"/><rect class="cls-1" x="380" y="260" width="10" height="10"/><rect class="cls-2" x="380" y="250" width="10" height="10"/><rect x="380" y="240" width="10" height="10"/><rect class="cls-1" x="380" y="230" width="10" height="10"/><rect class="cls-1" x="380" y="220" width="10" height="10"/><rect x="380" y="210" width="10" height="10"/><rect x="370" y="320" width="10" height="10"/><rect class="cls-1" x="370" y="310" width="10" height="10"/><rect x="370" y="300" width="10" height="10"/><rect x="370" y="290" width="10" height="10"/><rect x="370" y="280" width="10" height="10"/><rect x="370" y="260" width="10" height="10"/><rect x="370" y="250" width="10" height="10"/><rect x="370" y="240" width="10" height="10"/><rect x="370" y="230" width="10" height="10"/><rect x="370" y="220" width="10" height="10"/><rect x="370" y="210" width="10" height="10"/><rect x="370" y="200" width="10" height="10"/><rect x="360" y="320" width="10" height="10"/><rect x="360" y="310" width="10" height="10"/><rect x="360" y="300" width="10" height="10"/><rect x="360" y="260" width="10" height="10"/><rect class="cls-5" x="360" y="250" width="10" height="10"/><rect class="cls-5" x="360" y="240" width="10" height="10"/><rect class="cls-5" x="360" y="230" width="10" height="10"/><rect class="cls-5" x="360" y="220" width="10" height="10"/><rect class="cls-5" x="360" y="210" width="10" height="10"/><rect x="360" y="200" width="10" height="10"/><rect x="360" y="190" width="10" height="10"/><rect x="360" y="180" width="10" height="10"/><rect x="360" y="170" width="10" height="10"/><rect x="350" y="260" width="10" height="10"/><rect class="cls-6" x="350" y="250" width="10" height="10"/><rect class="cls-6" x="350" y="240" width="10" height="10"/><rect class="cls-5" x="350" y="230" width="10" height="10"/><rect class="cls-5" x="350" y="220" width="10" height="10"/><rect class="cls-5" x="350" y="210" width="10" height="10"/><rect class="cls-5" x="350" y="200" width="10" height="10"/><rect class="cls-5" x="350" y="190" width="10" height="10"/><rect class="cls-5" x="350" y="180" width="10" height="10"/><rect class="cls-5" x="350" y="170" width="10" height="10"/><rect x="350" y="160" width="10" height="10"/><rect x="350" y="150" width="10" height="10"/><rect x="350" y="140" width="10" height="10"/><rect x="350" y="130" width="10" height="10"/><rect x="340" y="260" width="10" height="10"/><rect x="340" y="250" width="10" height="10"/><rect x="340" y="240" width="10" height="10"/><rect class="cls-5" x="340" y="230" width="10" height="10"/><rect class="cls-5" x="340" y="220" width="10" height="10"/><rect class="cls-5" x="340" y="210" width="10" height="10"/><rect class="cls-5" x="340" y="200" width="10" height="10"/><rect class="cls-5" x="340" y="190" width="10" height="10"/><rect class="cls-5" x="340" y="180" width="10" height="10"/><rect class="cls-5" x="340" y="170" width="10" height="10"/><rect class="cls-5" x="340" y="160" width="10" height="10"/><rect x="340" y="150" width="10" height="10"/><rect class="cls-4" x="340" y="140" width="10" height="10"/><rect x="340" y="130" width="10" height="10"/><rect x="330" y="320" width="10" height="10"/><rect x="330" y="310" width="10" height="10"/><rect x="330" y="300" width="10" height="10"/><rect x="330" y="290" width="10" height="10"/><rect x="330" y="280" width="10" height="10"/><rect x="330" y="270" width="10" height="10"/><rect x="330" y="260" width="10" height="10"/><rect class="cls-3" x="330" y="250" width="10" height="10"/><rect class="cls-3" x="330" y="240" width="10" height="10"/><rect x="330" y="230" width="10" height="10"/><rect class="cls-5" x="330" y="220" width="10" height="10"/><rect class="cls-5" x="330" y="210" width="10" height="10"/><rect class="cls-5" x="330" y="200" width="10" height="10"/><rect class="cls-5" x="330" y="190" width="10" height="10"/><rect class="cls-5" x="330" y="180" width="10" height="10"/><rect class="cls-5" x="330" y="170" width="10" height="10"/><rect class="cls-5" x="330" y="160" width="10" height="10"/><rect x="330" y="150" width="10" height="10"/><rect x="330" y="140" width="10" height="10"/><rect x="330" y="130" width="10" height="10"/><rect x="320" y="330" width="10" height="10"/><rect x="320" y="320" width="10" height="10"/><rect class="cls-4" x="320" y="310" width="10" height="10"/><rect class="cls-3" x="320" y="300" width="10" height="10"/><rect class="cls-3" x="320" y="290" width="10" height="10"/><rect class="cls-3" x="320" y="280" width="10" height="10"/><rect class="cls-3" x="320" y="270" width="10" height="10"/><rect class="cls-3" x="320" y="260" width="10" height="10"/><rect x="320" y="250" width="10" height="10"/><rect x="320" y="240" width="10" height="10"/><rect x="320" y="230" width="10" height="10"/><rect x="320" y="220" width="10" height="10"/><rect class="cls-5" x="320" y="210" width="10" height="10"/><rect class="cls-6" x="320" y="200" width="10" height="10"/><rect class="cls-6" x="320" y="190" width="10" height="10"/><rect class="cls-6" x="320" y="180" width="10" height="10"/><rect class="cls-6" x="320" y="170" width="10" height="10"/><rect x="320" y="160" width="10" height="10"/><rect x="310" y="330" width="10" height="10"/><rect class="cls-4" x="310" y="320" width="10" height="10"/><rect class="cls-3" x="310" y="310" width="10" height="10"/><rect class="cls-3" x="310" y="300" width="10" height="10"/><rect class="cls-3" x="310" y="290" width="10" height="10"/><rect x="310" y="280" width="10" height="10"/><rect x="310" y="270" width="10" height="10"/><rect x="310" y="260" width="10" height="10"/><rect class="cls-7" x="310" y="250" width="10" height="10"/><rect class="cls-7" x="310" y="240" width="10" height="10"/><rect class="cls-8" x="310" y="230" width="10" height="10"/><rect class="cls-7" x="310" y="220" width="10" height="10"/><rect x="310" y="210" width="10" height="10"/><rect x="310" y="200" width="10" height="10"/><rect x="310" y="190" width="10" height="10"/><rect x="310" y="180" width="10" height="10"/><rect x="310" y="170" width="10" height="10"/><rect x="300" y="330" width="10" height="10"/><rect class="cls-4" x="300" y="320" width="10" height="10"/><rect class="cls-3" x="300" y="310" width="10" height="10"/><rect x="300" y="300" width="10" height="10"/><rect x="300" y="290" width="10" height="10"/><rect class="cls-7" x="300" y="280" width="10" height="10"/><rect class="cls-7" x="300" y="270" width="10" height="10"/><rect class="cls-7" x="300" y="260" width="10" height="10"/><rect class="cls-8" x="300" y="250" width="10" height="10"/><rect class="cls-7" x="300" y="240" width="10" height="10"/><rect class="cls-7" x="300" y="230" width="10" height="10"/><rect class="cls-8" x="300" y="220" width="10" height="10"/><rect class="cls-7" x="300" y="210" width="10" height="10"/><rect class="cls-8" x="300" y="200" width="10" height="10"/><rect class="cls-8" x="300" y="190" width="10" height="10"/><rect x="300" y="180" width="10" height="10"/><rect x="290" y="330" width="10" height="10"/><rect x="290" y="320" width="10" height="10"/><rect class="cls-4" x="290" y="310" width="10" height="10"/><rect class="cls-3" x="290" y="300" width="10" height="10"/><rect class="cls-3" x="290" y="290" width="10" height="10"/><rect x="290" y="280" width="10" height="10"/><rect x="290" y="270" width="10" height="10"/><rect class="cls-8" x="290" y="260" width="10" height="10"/><rect class="cls-7" x="290" y="250" width="10" height="10"/><rect class="cls-7" x="290" y="240" width="10" height="10"/><rect class="cls-8" x="290" y="230" width="10" height="10"/><rect class="cls-7" x="290" y="220" width="10" height="10"/><rect class="cls-7" x="290" y="210" width="10" height="10"/><rect class="cls-7" x="290" y="200" width="10" height="10"/><rect class="cls-8" x="290" y="190" width="10" height="10"/><rect x="290" y="180" width="10" height="10"/><rect x="290" y="170" width="10" height="10"/><rect x="290" y="160" width="10" height="10"/><rect x="280" y="320" width="10" height="10"/><rect x="280" y="310" width="10" height="10"/><rect class="cls-4" x="280" y="300" width="10" height="10"/><rect class="cls-3" x="280" y="290" width="10" height="10"/><rect class="cls-3" x="280" y="280" width="10" height="10"/><rect class="cls-3" x="280" y="270" width="10" height="10"/><rect x="280" y="260" width="10" height="10"/><rect x="280" y="250" width="10" height="10"/><rect class="cls-7" x="280" y="240" width="10" height="10"/><rect class="cls-7" x="280" y="230" width="10" height="10"/><rect class="cls-7" x="280" y="220" width="10" height="10"/><rect class="cls-8" x="280" y="210" width="10" height="10"/><rect x="280" y="200" width="10" height="10"/><rect x="280" y="190" width="10" height="10"/><rect x="280" y="180" width="10" height="10"/><rect x="280" y="170" width="10" height="10"/><rect x="280" y="160" width="10" height="10"/><rect x="280" y="150" width="10" height="10"/><rect x="280" y="140" width="10" height="10"/><rect x="280" y="130" width="10" height="10"/><rect x="270" y="300" width="10" height="10"/><rect x="270" y="290" width="10" height="10"/><rect class="cls-4" x="270" y="280" width="10" height="10"/><rect class="cls-3" x="270" y="270" width="10" height="10"/><rect class="cls-3" x="270" y="260" width="10" height="10"/><rect class="cls-3" x="270" y="250" width="10" height="10"/><rect x="270" y="240" width="10" height="10"/><rect x="270" y="230" width="10" height="10"/><rect x="270" y="220" width="10" height="10"/><rect x="270" y="210" width="10" height="10"/><rect x="270" y="200" width="10" height="10"/><rect x="270" y="190" width="10" height="10"/><rect x="270" y="180" width="10" height="10"/><rect x="270" y="170" width="10" height="10"/><rect x="270" y="160" width="10" height="10"/><rect x="270" y="150" width="10" height="10"/><rect x="270" y="140" width="10" height="10"/><rect x="270" y="130" width="10" height="10"/><rect x="270" y="120" width="10" height="10"/><rect x="270" y="110" width="10" height="10"/><rect x="260" y="280" width="10" height="10"/><rect x="260" y="270" width="10" height="10"/><rect x="260" y="260" width="10" height="10"/><rect class="cls-3" x="260" y="250" width="10" height="10"/><rect x="260" y="240" width="10" height="10"/><rect x="260" y="230" width="10" height="10"/><rect class="cls-9" x="260" y="220" width="10" height="10"/><rect class="cls-10" x="260" y="210" width="10" height="10"/><rect class="cls-10" x="260" y="200" width="10" height="10"/><rect class="cls-10" x="260" y="190" width="10" height="10"/><rect x="260" y="180" width="10" height="10"/><rect x="260" y="170" width="10" height="10"/><rect x="260" y="160" width="10" height="10"/><rect x="260" y="150" width="10" height="10"/><rect class="cls-11" x="260" y="140" width="10" height="10"/><rect class="cls-11" x="260" y="130" width="10" height="10"/><rect class="cls-11" x="260" y="120" width="10" height="10"/><rect x="260" y="110" width="10" height="10"/><rect x="260" y="100" width="10" height="10"/><rect x="250" y="270" width="10" height="10"/><rect x="250" y="260" width="10" height="10"/><rect x="250" y="250" width="10" height="10"/><rect class="cls-3" x="250" y="240" width="10" height="10"/><rect x="250" y="230" width="10" height="10"/><rect class="cls-10" x="250" y="220" width="10" height="10"/><rect class="cls-10" x="250" y="210" width="10" height="10"/><rect class="cls-10" x="250" y="200" width="10" height="10"/><rect class="cls-10" x="250" y="190" width="10" height="10"/><rect x="250" y="180" width="10" height="10"/><rect class="cls-3" x="250" y="170" width="10" height="10"/><rect class="cls-3" x="250" y="160" width="10" height="10"/><rect x="250" y="150" width="10" height="10"/><rect class="cls-11" x="250" y="140" width="10" height="10"/><rect class="cls-11" x="250" y="130" width="10" height="10"/><rect class="cls-11" x="250" y="120" width="10" height="10"/><rect x="250" y="110" width="10" height="10"/><rect x="250" y="100" width="10" height="10"/><rect x="240" y="280" width="10" height="10"/><rect x="240" y="270" width="10" height="10"/><rect x="240" y="260" width="10" height="10"/><rect x="240" y="250" width="10" height="10"/><rect x="240" y="240" width="10" height="10"/><rect x="240" y="230" width="10" height="10"/><rect class="cls-10" x="240" y="220" width="10" height="10"/><rect class="cls-10" x="240" y="210" width="10" height="10"/><rect class="cls-10" x="240" y="200" width="10" height="10"/><rect x="240" y="190" width="10" height="10"/><rect class="cls-3" x="240" y="180" width="10" height="10"/><rect class="cls-3" x="240" y="170" width="10" height="10"/><rect x="240" y="160" width="10" height="10"/><rect class="cls-11" x="240" y="150" width="10" height="10"/><rect class="cls-11" x="240" y="140" width="10" height="10"/><rect class="cls-11" x="240" y="130" width="10" height="10"/><rect class="cls-11" x="240" y="120" width="10" height="10"/><rect class="cls-11" x="240" y="110" width="10" height="10"/><rect x="240" y="100" width="10" height="10"/><rect x="240" y="90" width="10" height="10"/><rect x="240" y="80" width="10" height="10"/><rect x="230" y="280" width="10" height="10"/><rect x="230" y="270" width="10" height="10"/><rect class="cls-11" x="230" y="260" width="10" height="10"/><rect x="230" y="250" width="10" height="10"/><rect class="cls-9" x="230" y="240" width="10" height="10"/><rect class="cls-9" x="230" y="230" width="10" height="10"/><rect class="cls-9" x="230" y="220" width="10" height="10"/><rect class="cls-10" x="230" y="210" width="10" height="10"/><rect class="cls-10" x="230" y="200" width="10" height="10"/><rect class="cls-10" x="230" y="190" width="10" height="10"/><rect x="230" y="180" width="10" height="10"/><rect x="230" y="170" width="10" height="10"/><rect class="cls-11" x="230" y="160" width="10" height="10"/><rect class="cls-11" x="230" y="150" width="10" height="10"/><rect class="cls-11" x="230" y="140" width="10" height="10"/><rect class="cls-11" x="230" y="130" width="10" height="10"/><rect class="cls-11" x="230" y="120" width="10" height="10"/><rect class="cls-11" x="230" y="110" width="10" height="10"/><rect class="cls-11" x="230" y="100" width="10" height="10"/><rect class="cls-11" x="230" y="90" width="10" height="10"/><rect x="230" y="80" width="10" height="10"/><rect x="220" y="280" width="10" height="10"/><rect x="220" y="270" width="10" height="10"/><rect class="cls-11" x="220" y="260" width="10" height="10"/><rect x="220" y="250" width="10" height="10"/><rect class="cls-9" x="220" y="240" width="10" height="10"/><rect class="cls-9" x="220" y="230" width="10" height="10"/><rect class="cls-9" x="220" y="220" width="10" height="10"/><rect class="cls-9" x="220" y="210" width="10" height="10"/><rect class="cls-9" x="220" y="200" width="10" height="10"/><rect class="cls-10" x="220" y="190" width="10" height="10"/><rect x="220" y="180" width="10" height="10"/><rect x="220" y="170" width="10" height="10"/><rect x="220" y="160" width="10" height="10"/><rect class="cls-11" x="220" y="150" width="10" height="10"/><rect class="cls-11" x="220" y="140" width="10" height="10"/><rect class="cls-11" x="220" y="130" width="10" height="10"/><rect class="cls-11" x="220" y="120" width="10" height="10"/><rect class="cls-11" x="220" y="110" width="10" height="10"/><rect class="cls-11" x="220" y="100" width="10" height="10"/><rect class="cls-11" x="220" y="90" width="10" height="10"/><rect x="220" y="80" width="10" height="10"/><rect x="220" y="70" width="10" height="10"/><rect x="210" y="280" width="10" height="10"/><rect x="210" y="270" width="10" height="10"/><rect class="cls-11" x="210" y="260" width="10" height="10"/><rect x="210" y="250" width="10" height="10"/><rect x="210" y="240" width="10" height="10"/><rect x="210" y="230" width="10" height="10"/><rect class="cls-9" x="210" y="220" width="10" height="10"/><rect class="cls-9" x="210" y="210" width="10" height="10"/><rect class="cls-9" x="210" y="200" width="10" height="10"/><rect x="210" y="190" width="10" height="10"/><rect class="cls-12" x="210" y="180" width="10" height="10"/><rect class="cls-12" x="210" y="170" width="10" height="10"/><rect x="210" y="160" width="10" height="10"/><rect x="210" y="150" width="10" height="10"/><rect x="210" y="140" width="10" height="10"/><rect x="210" y="130" width="10" height="10"/><rect x="210" y="120" width="10" height="10"/><rect class="cls-11" x="210" y="110" width="10" height="10"/><rect class="cls-11" x="210" y="100" width="10" height="10"/><rect class="cls-11" x="210" y="90" width="10" height="10"/><rect x="210" y="80" width="10" height="10"/><rect x="210" y="70" width="10" height="10"/><rect x="200" y="280" width="10" height="10"/><rect x="200" y="270" width="10" height="10"/><rect class="cls-11" x="200" y="260" width="10" height="10"/><rect x="200" y="250" width="10" height="10"/><rect x="200" y="240" width="10" height="10"/><rect x="200" y="230" width="10" height="10"/><rect x="200" y="220" width="10" height="10"/><rect x="200" y="210" width="10" height="10"/><rect x="200" y="200" width="10" height="10"/><rect x="200" y="190" width="10" height="10"/><rect class="cls-12" x="200" y="180" width="10" height="10"/><rect class="cls-12" x="200" y="170" width="10" height="10"/><rect x="200" y="160" width="10" height="10"/><rect class="cls-3" x="200" y="150" width="10" height="10"/><rect class="cls-3" x="200" y="140" width="10" height="10"/><rect x="200" y="130" width="10" height="10"/><rect class="cls-11" x="200" y="120" width="10" height="10"/><rect class="cls-11" x="200" y="110" width="10" height="10"/><rect class="cls-11" x="200" y="100" width="10" height="10"/><rect x="200" y="90" width="10" height="10"/><rect x="200" y="80" width="10" height="10"/><rect x="200" y="70" width="10" height="10"/><rect x="190" y="280" width="10" height="10"/><rect x="190" y="270" width="10" height="10"/><rect class="cls-11" x="190" y="260" width="10" height="10"/><rect class="cls-11" x="190" y="250" width="10" height="10"/><rect x="190" y="240" width="10" height="10"/><rect x="190" y="230" width="10" height="10"/><rect class="cls-13" x="190" y="220" width="10" height="10"/><rect class="cls-13" x="190" y="210" width="10" height="10"/><rect class="cls-13" x="190" y="200" width="10" height="10"/><rect class="cls-13" x="190" y="190" width="10" height="10"/><rect class="cls-13" x="190" y="180" width="10" height="10"/><rect class="cls-13" x="190" y="170" width="10" height="10"/><rect class="cls-13" x="190" y="160" width="10" height="10"/><rect x="190" y="150" width="10" height="10"/><rect x="190" y="140" width="10" height="10"/><rect x="190" y="130" width="10" height="10"/><rect class="cls-11" x="190" y="120" width="10" height="10"/><rect class="cls-11" x="190" y="110" width="10" height="10"/><rect class="cls-11" x="190" y="100" width="10" height="10"/><rect x="190" y="90" width="10" height="10"/><rect x="190" y="80" width="10" height="10"/><rect x="190" y="70" width="10" height="10"/><rect x="180" y="270" width="10" height="10"/><rect x="180" y="260" width="10" height="10"/><rect class="cls-11" x="180" y="250" width="10" height="10"/><rect class="cls-11" x="180" y="240" width="10" height="10"/><rect x="180" y="230" width="10" height="10"/><rect x="180" y="220" width="10" height="10"/><rect class="cls-13" x="180" y="210" width="10" height="10"/><rect class="cls-13" x="180" y="200" width="10" height="10"/><rect class="cls-13" x="180" y="190" width="10" height="10"/><rect class="cls-13" x="180" y="180" width="10" height="10"/><rect class="cls-13" x="180" y="170" width="10" height="10"/><rect class="cls-13" x="180" y="160" width="10" height="10"/><rect x="180" y="150" width="10" height="10"/><rect x="180" y="140" width="10" height="10"/><rect class="cls-11" x="180" y="130" width="10" height="10"/><rect class="cls-11" x="180" y="120" width="10" height="10"/><rect class="cls-11" x="180" y="110" width="10" height="10"/><rect x="180" y="100" width="10" height="10"/><rect x="180" y="90" width="10" height="10"/><rect x="180" y="80" width="10" height="10"/><rect x="170" y="270" width="10" height="10"/><rect x="170" y="260" width="10" height="10"/><rect x="170" y="250" width="10" height="10"/><rect class="cls-11" x="170" y="240" width="10" height="10"/><rect class="cls-11" x="170" y="230" width="10" height="10"/><rect x="170" y="220" width="10" height="10"/><rect x="170" y="210" width="10" height="10"/><rect class="cls-13" x="170" y="200" width="10" height="10"/><rect class="cls-13" x="170" y="190" width="10" height="10"/><rect class="cls-13" x="170" y="180" width="10" height="10"/><rect class="cls-13" x="170" y="170" width="10" height="10"/><rect class="cls-13" x="170" y="160" width="10" height="10"/><rect x="170" y="150" width="10" height="10"/><rect class="cls-11" x="170" y="140" width="10" height="10"/><rect class="cls-11" x="170" y="130" width="10" height="10"/><rect class="cls-11" x="170" y="120" width="10" height="10"/><rect x="170" y="110" width="10" height="10"/><rect class="cls-14" x="170" y="100" width="10" height="10"/><rect class="cls-14" x="170" y="90" width="10" height="10"/><rect x="170" y="80" width="10" height="10"/><rect x="160" y="270" width="10" height="10"/><rect class="cls-11" x="160" y="260" width="10" height="10"/><rect x="160" y="250" width="10" height="10"/><rect x="160" y="240" width="10" height="10"/><rect class="cls-11" x="160" y="230" width="10" height="10"/><rect class="cls-14" x="160" y="220" width="10" height="10"/><rect class="cls-14" x="160" y="210" width="10" height="10"/><rect x="160" y="200" width="10" height="10"/><rect x="160" y="190" width="10" height="10"/><rect x="160" y="180" width="10" height="10"/><rect x="160" y="170" width="10" height="10"/><rect x="160" y="160" width="10" height="10"/><rect x="160" y="150" width="10" height="10"/><rect x="160" y="140" width="10" height="10"/><rect class="cls-14" x="160" y="130" width="10" height="10"/><rect class="cls-14" x="160" y="120" width="10" height="10"/><rect class="cls-14" x="160" y="110" width="10" height="10"/><rect class="cls-14" x="160" y="100" width="10" height="10"/><rect class="cls-14" x="160" y="90" width="10" height="10"/><rect x="160" y="80" width="10" height="10"/><rect x="150" y="270" width="10" height="10"/><rect class="cls-11" x="150" y="260" width="10" height="10"/><rect class="cls-11" x="150" y="250" width="10" height="10"/><rect class="cls-14" x="150" y="240" width="10" height="10"/><rect x="150" y="230" width="10" height="10"/><rect x="150" y="220" width="10" height="10"/><rect class="cls-14" x="150" y="210" width="10" height="10"/><rect class="cls-14" x="150" y="200" width="10" height="10"/><rect class="cls-14" x="150" y="190" width="10" height="10"/><rect class="cls-14" x="150" y="180" width="10" height="10"/><rect class="cls-14" x="150" y="170" width="10" height="10"/><rect class="cls-14" x="150" y="160" width="10" height="10"/><rect class="cls-14" x="150" y="150" width="10" height="10"/><rect class="cls-14" x="150" y="140" width="10" height="10"/><rect class="cls-14" x="150" y="130" width="10" height="10"/><rect class="cls-14" x="150" y="120" width="10" height="10"/><rect class="cls-14" x="150" y="110" width="10" height="10"/><rect x="150" y="100" width="10" height="10"/><rect x="150" y="90" width="10" height="10"/><rect x="140" y="270" width="10" height="10"/><rect class="cls-11" x="140" y="260" width="10" height="10"/><rect class="cls-14" x="140" y="250" width="10" height="10"/><rect class="cls-14" x="140" y="240" width="10" height="10"/><rect class="cls-14" x="140" y="230" width="10" height="10"/><rect x="140" y="220" width="10" height="10"/><rect x="140" y="210" width="10" height="10"/><rect x="140" y="200" width="10" height="10"/><rect x="140" y="190" width="10" height="10"/><rect x="140" y="180" width="10" height="10"/><rect x="140" y="170" width="10" height="10"/><rect x="140" y="160" width="10" height="10"/><rect x="140" y="150" width="10" height="10"/><rect x="140" y="140" width="10" height="10"/><rect x="140" y="130" width="10" height="10"/><rect x="140" y="120" width="10" height="10"/><rect x="140" y="110" width="10" height="10"/><rect x="140" y="100" width="10" height="10"/><rect x="140" y="90" width="10" height="10"/><rect x="130" y="270" width="10" height="10"/><rect x="130" y="260" width="10" height="10"/><rect class="cls-14" x="130" y="250" width="10" height="10"/><rect class="cls-14" x="130" y="240" width="10" height="10"/><rect class="cls-14" x="130" y="230" width="10" height="10"/><rect class="cls-14" x="130" y="220" width="10" height="10"/><rect class="cls-14" x="130" y="210" width="10" height="10"/><rect class="cls-14" x="130" y="200" width="10" height="10"/><rect class="cls-14" x="130" y="190" width="10" height="10"/><rect class="cls-14" x="130" y="180" width="10" height="10"/><rect x="130" y="170" width="10" height="10"/><rect x="130" y="160" width="10" height="10"/><rect x="130" y="150" width="10" height="10"/><rect class="cls-14" x="130" y="140" width="10" height="10"/><rect class="cls-14" x="130" y="130" width="10" height="10"/><rect class="cls-14" x="130" y="120" width="10" height="10"/><rect class="cls-14" x="130" y="110" width="10" height="10"/><rect x="130" y="100" width="10" height="10"/><rect x="130" y="20" width="10" height="10"/><rect x="130" y="10" width="10" height="10"/><rect x="130" width="10" height="10"/><rect x="120" y="270" width="10" height="10"/><rect x="120" y="260" width="10" height="10"/><rect class="cls-11" x="120" y="250" width="10" height="10"/><rect class="cls-14" x="120" y="240" width="10" height="10"/><rect class="cls-14" x="120" y="230" width="10" height="10"/><rect class="cls-14" x="120" y="220" width="10" height="10"/><rect class="cls-14" x="120" y="210" width="10" height="10"/><rect class="cls-14" x="120" y="200" width="10" height="10"/><rect class="cls-14" x="120" y="190" width="10" height="10"/><rect class="cls-14" x="120" y="180" width="10" height="10"/><rect class="cls-14" x="120" y="170" width="10" height="10"/><rect class="cls-14" x="120" y="160" width="10" height="10"/><rect class="cls-14" x="120" y="150" width="10" height="10"/><rect class="cls-14" x="120" y="140" width="10" height="10"/><rect class="cls-14" x="120" y="130" width="10" height="10"/><rect class="cls-15" x="120" y="120" width="10" height="10"/><rect class="cls-15" x="120" y="110" width="10" height="10"/><rect x="120" y="100" width="10" height="10"/><rect x="120" y="20" width="10" height="10"/><rect class="cls-14" x="120" y="10" width="10" height="10"/><rect x="120" width="10" height="10"/><rect x="110" y="270" width="10" height="10"/><rect x="110" y="260" width="10" height="10"/><rect class="cls-11" x="110" y="250" width="10" height="10"/><rect class="cls-14" x="110" y="240" width="10" height="10"/><rect class="cls-11" x="110" y="230" width="10" height="10"/><rect class="cls-14" x="110" y="220" width="10" height="10"/><rect class="cls-14" x="110" y="210" width="10" height="10"/><rect class="cls-14" x="110" y="200" width="10" height="10"/><rect class="cls-14" x="110" y="190" width="10" height="10"/><rect class="cls-14" x="110" y="180" width="10" height="10"/><rect class="cls-14" x="110" y="170" width="10" height="10"/><rect class="cls-14" x="110" y="160" width="10" height="10"/><rect class="cls-14" x="110" y="150" width="10" height="10"/><rect class="cls-14" x="110" y="140" width="10" height="10"/><rect class="cls-14" x="110" y="130" width="10" height="10"/><rect class="cls-15" x="110" y="120" width="10" height="10"/><rect class="cls-14" x="110" y="110" width="10" height="10"/><rect x="110" y="100" width="10" height="10"/><rect x="110" y="30" width="10" height="10"/><rect class="cls-14" x="110" y="20" width="10" height="10"/><rect class="cls-14" x="110" y="10" width="10" height="10"/><rect x="110" width="10" height="10"/><rect x="100" y="260" width="10" height="10"/><rect x="100" y="250" width="10" height="10"/><rect class="cls-11" x="100" y="240" width="10" height="10"/><rect class="cls-14" x="100" y="230" width="10" height="10"/><rect class="cls-14" x="100" y="220" width="10" height="10"/><rect class="cls-14" x="100" y="210" width="10" height="10"/><rect class="cls-14" x="100" y="200" width="10" height="10"/><rect class="cls-14" x="100" y="190" width="10" height="10"/><rect class="cls-14" x="100" y="180" width="10" height="10"/><rect class="cls-14" x="100" y="170" width="10" height="10"/><rect class="cls-14" x="100" y="160" width="10" height="10"/><rect class="cls-14" x="100" y="150" width="10" height="10"/><rect class="cls-15" x="100" y="140" width="10" height="10"/><rect class="cls-14" x="100" y="130" width="10" height="10"/><rect class="cls-15" x="100" y="120" width="10" height="10"/><rect class="cls-14" x="100" y="110" width="10" height="10"/><rect class="cls-15" x="100" y="100" width="10" height="10"/><rect x="100" y="90" width="10" height="10"/><rect x="100" y="40" width="10" height="10"/><rect class="cls-15" x="100" y="30" width="10" height="10"/><rect class="cls-14" x="100" y="20" width="10" height="10"/><rect class="cls-16" x="100" y="10" width="10" height="10"/><rect x="100" width="10" height="10"/><rect x="90" y="260" width="10" height="10"/><rect class="cls-11" x="90" y="250" width="10" height="10"/><rect class="cls-11" x="90" y="240" width="10" height="10"/><rect class="cls-11" x="90" y="230" width="10" height="10"/><rect class="cls-11" x="90" y="220" width="10" height="10"/><rect class="cls-14" x="90" y="210" width="10" height="10"/><rect class="cls-14" x="90" y="200" width="10" height="10"/><rect class="cls-14" x="90" y="190" width="10" height="10"/><rect class="cls-14" x="90" y="180" width="10" height="10"/><rect class="cls-15" x="90" y="170" width="10" height="10"/><rect class="cls-15" x="90" y="160" width="10" height="10"/><rect class="cls-15" x="90" y="150" width="10" height="10"/><rect class="cls-15" x="90" y="140" width="10" height="10"/><rect class="cls-15" x="90" y="130" width="10" height="10"/><rect class="cls-14" x="90" y="120" width="10" height="10"/><rect class="cls-15" x="90" y="110" width="10" height="10"/><rect class="cls-15" x="90" y="100" width="10" height="10"/><rect x="90" y="90" width="10" height="10"/><rect x="90" y="80" width="10" height="10"/><rect x="90" y="70" width="10" height="10"/><rect x="90" y="60" width="10" height="10"/><rect x="90" y="50" width="10" height="10"/><rect class="cls-14" x="90" y="40" width="10" height="10"/><rect class="cls-15" x="90" y="30" width="10" height="10"/><rect class="cls-15" x="90" y="20" width="10" height="10"/><rect class="cls-16" x="90" y="10" width="10" height="10"/><rect x="90" width="10" height="10"/><rect x="80" y="250" width="10" height="10"/><rect x="80" y="240" width="10" height="10"/><rect class="cls-11" x="80" y="230" width="10" height="10"/><rect class="cls-14" x="80" y="220" width="10" height="10"/><rect class="cls-11" x="80" y="210" width="10" height="10"/><rect class="cls-15" x="80" y="200" width="10" height="10"/><rect class="cls-14" x="80" y="190" width="10" height="10"/><rect class="cls-14" x="80" y="180" width="10" height="10"/><rect class="cls-14" x="80" y="170" width="10" height="10"/><rect class="cls-15" x="80" y="160" width="10" height="10"/><rect class="cls-15" x="80" y="150" width="10" height="10"/><rect class="cls-14" x="80" y="140" width="10" height="10"/><rect class="cls-14" x="80" y="130" width="10" height="10"/><rect class="cls-14" x="80" y="120" width="10" height="10"/><rect class="cls-14" x="80" y="110" width="10" height="10"/><rect class="cls-15" x="80" y="100" width="10" height="10"/><rect class="cls-15" x="80" y="90" width="10" height="10"/><rect class="cls-14" x="80" y="80" width="10" height="10"/><rect x="80" y="70" width="10" height="10"/><rect x="80" y="60" width="10" height="10"/><rect class="cls-14" x="80" y="50" width="10" height="10"/><rect class="cls-14" x="80" y="40" width="10" height="10"/><rect class="cls-14" x="80" y="30" width="10" height="10"/><rect class="cls-15" x="80" y="20" width="10" height="10"/><rect x="80" y="10" width="10" height="10"/><rect x="70" y="230" width="10" height="10"/><rect class="cls-11" x="70" y="220" width="10" height="10"/><rect class="cls-14" x="70" y="210" width="10" height="10"/><rect class="cls-14" x="70" y="200" width="10" height="10"/><rect class="cls-14" x="70" y="190" width="10" height="10"/><rect class="cls-14" x="70" y="180" width="10" height="10"/><rect class="cls-14" x="70" y="170" width="10" height="10"/><rect class="cls-14" x="70" y="160" width="10" height="10"/><rect class="cls-14" x="70" y="150" width="10" height="10"/><rect class="cls-14" x="70" y="140" width="10" height="10"/><rect class="cls-14" x="70" y="130" width="10" height="10"/><rect class="cls-15" x="70" y="120" width="10" height="10"/><rect class="cls-14" x="70" y="110" width="10" height="10"/><rect class="cls-14" x="70" y="100" width="10" height="10"/><rect class="cls-14" x="70" y="90" width="10" height="10"/><rect class="cls-14" x="70" y="80" width="10" height="10"/><rect class="cls-14" x="70" y="70" width="10" height="10"/><rect class="cls-15" x="70" y="60" width="10" height="10"/><rect class="cls-14" x="70" y="50" width="10" height="10"/><rect class="cls-14" x="70" y="40" width="10" height="10"/><rect class="cls-14" x="70" y="30" width="10" height="10"/><rect class="cls-15" x="70" y="20" width="10" height="10"/><rect x="70" y="10" width="10" height="10"/><rect x="60" y="230" width="10" height="10"/><rect x="60" y="220" width="10" height="10"/><rect class="cls-11" x="60" y="210" width="10" height="10"/><rect class="cls-11" x="60" y="200" width="10" height="10"/><rect class="cls-11" x="60" y="190" width="10" height="10"/><rect class="cls-14" x="60" y="180" width="10" height="10"/><rect class="cls-14" x="60" y="170" width="10" height="10"/><rect class="cls-14" x="60" y="160" width="10" height="10"/><rect class="cls-14" x="60" y="150" width="10" height="10"/><rect class="cls-14" x="60" y="140" width="10" height="10"/><rect class="cls-15" x="60" y="130" width="10" height="10"/><rect class="cls-15" x="60" y="120" width="10" height="10"/><rect class="cls-15" x="60" y="110" width="10" height="10"/><rect class="cls-14" x="60" y="100" width="10" height="10"/><rect class="cls-15" x="60" y="90" width="10" height="10"/><rect class="cls-15" x="60" y="80" width="10" height="10"/><rect class="cls-14" x="60" y="70" width="10" height="10"/><rect class="cls-14" x="60" y="60" width="10" height="10"/><rect class="cls-14" x="60" y="50" width="10" height="10"/><rect class="cls-14" x="60" y="40" width="10" height="10"/><rect class="cls-14" x="60" y="30" width="10" height="10"/><rect class="cls-14" x="60" y="20" width="10" height="10"/><rect x="60" y="10" width="10" height="10"/><rect x="50" y="230" width="10" height="10"/><rect class="cls-11" x="50" y="220" width="10" height="10"/><rect class="cls-11" x="50" y="210" width="10" height="10"/><rect class="cls-11" x="50" y="200" width="10" height="10"/><rect class="cls-14" x="50" y="190" width="10" height="10"/><rect class="cls-14" x="50" y="180" width="10" height="10"/><rect class="cls-14" x="50" y="170" width="10" height="10"/><rect class="cls-14" x="50" y="160" width="10" height="10"/><rect class="cls-14" x="50" y="150" width="10" height="10"/><rect class="cls-15" x="50" y="140" width="10" height="10"/><rect class="cls-15" x="50" y="130" width="10" height="10"/><rect class="cls-15" x="50" y="120" width="10" height="10"/><rect class="cls-14" x="50" y="110" width="10" height="10"/><rect class="cls-14" x="50" y="100" width="10" height="10"/><rect class="cls-15" x="50" y="90" width="10" height="10"/><rect class="cls-15" x="50" y="80" width="10" height="10"/><rect class="cls-14" x="50" y="70" width="10" height="10"/><rect class="cls-14" x="50" y="60" width="10" height="10"/><rect class="cls-15" x="50" y="50" width="10" height="10"/><rect class="cls-14" x="50" y="40" width="10" height="10"/><rect class="cls-14" x="50" y="30" width="10" height="10"/><rect x="50" y="20" width="10" height="10"/><rect x="50" y="10" width="10" height="10"/><rect x="40" y="220" width="10" height="10"/><rect x="40" y="210" width="10" height="10"/><rect x="40" y="200" width="10" height="10"/><rect class="cls-11" x="40" y="190" width="10" height="10"/><rect class="cls-11" x="40" y="180" width="10" height="10"/><rect class="cls-15" x="40" y="170" width="10" height="10"/><rect class="cls-11" x="40" y="160" width="10" height="10"/><rect class="cls-14" x="40" y="150" width="10" height="10"/><rect class="cls-14" x="40" y="140" width="10" height="10"/><rect class="cls-14" x="40" y="130" width="10" height="10"/><rect class="cls-14" x="40" y="120" width="10" height="10"/><rect class="cls-14" x="40" y="110" width="10" height="10"/><rect class="cls-15" x="40" y="100" width="10" height="10"/><rect class="cls-15" x="40" y="90" width="10" height="10"/><rect class="cls-14" x="40" y="80" width="10" height="10"/><rect class="cls-14" x="40" y="70" width="10" height="10"/><rect class="cls-15" x="40" y="60" width="10" height="10"/><rect class="cls-15" x="40" y="50" width="10" height="10"/><rect class="cls-14" x="40" y="40" width="10" height="10"/><rect class="cls-14" x="40" y="30" width="10" height="10"/><rect x="40" y="20" width="10" height="10"/><rect x="30" y="200" width="10" height="10"/><rect x="30" y="190" width="10" height="10"/><rect class="cls-11" x="30" y="180" width="10" height="10"/><rect class="cls-14" x="30" y="170" width="10" height="10"/><rect class="cls-14" x="30" y="160" width="10" height="10"/><rect class="cls-14" x="30" y="150" width="10" height="10"/><rect class="cls-14" x="30" y="140" width="10" height="10"/><rect class="cls-14" x="30" y="130" width="10" height="10"/><rect class="cls-14" x="30" y="120" width="10" height="10"/><rect class="cls-14" x="30" y="110" width="10" height="10"/><rect class="cls-15" x="30" y="100" width="10" height="10"/><rect class="cls-14" x="30" y="90" width="10" height="10"/><rect class="cls-14" x="30" y="80" width="10" height="10"/><rect class="cls-14" x="30" y="70" width="10" height="10"/><rect class="cls-15" x="30" y="60" width="10" height="10"/><rect class="cls-14" x="30" y="50" width="10" height="10"/><rect class="cls-14" x="30" y="40" width="10" height="10"/><rect x="30" y="30" width="10" height="10"/><rect x="30" y="20" width="10" height="10"/><rect x="20" y="190" width="10" height="10"/><rect x="20" y="180" width="10" height="10"/><rect x="20" y="170" width="10" height="10"/><rect class="cls-11" x="20" y="160" width="10" height="10"/><rect class="cls-14" x="20" y="150" width="10" height="10"/><rect class="cls-15" x="20" y="140" width="10" height="10"/><rect class="cls-15" x="20" y="130" width="10" height="10"/><rect class="cls-15" x="20" y="120" width="10" height="10"/><rect class="cls-14" x="20" y="110" width="10" height="10"/><rect class="cls-14" x="20" y="100" width="10" height="10"/><rect class="cls-14" x="20" y="90" width="10" height="10"/><rect class="cls-14" x="20" y="80" width="10" height="10"/><rect class="cls-14" x="20" y="70" width="10" height="10"/><rect class="cls-14" x="20" y="60" width="10" height="10"/><rect class="cls-14" x="20" y="50" width="10" height="10"/><rect x="20" y="40" width="10" height="10"/><rect x="20" y="30" width="10" height="10"/><rect x="10" y="170" width="10" height="10"/><rect x="10" y="160" width="10" height="10"/><rect x="10" y="150" width="10" height="10"/><rect x="10" y="140" width="10" height="10"/><rect class="cls-15" x="10" y="130" width="10" height="10"/><rect class="cls-14" x="10" y="120" width="10" height="10"/><rect class="cls-14" x="10" y="110" width="10" height="10"/><rect class="cls-14" x="10" y="100" width="10" height="10"/><rect class="cls-14" x="10" y="90" width="10" height="10"/><rect class="cls-14" x="10" y="80" width="10" height="10"/><rect x="10" y="70" width="10" height="10"/><rect x="10" y="60" width="10" height="10"/><rect x="10" y="50" width="10" height="10"/><rect x="10" y="40" width="10" height="10"/><rect y="150" width="10" height="10"/><rect y="140" width="10" height="10"/><rect y="130" width="10" height="10"/><rect y="120" width="10" height="10"/><rect y="110" width="10" height="10"/><rect y="100" width="10" height="10"/><rect y="90" width="10" height="10"/><rect y="80" width="10" height="10"/></g><g id="Layer_2" data-name="Layer 2"><path d="M508.81,157V117.58h78.75v11.25H531.31v22.5h45v11.25h-45v33.75h-22.5Z" transform="translate(-82.5 -59.5)"/><path d="M610.06,145.7v-5.62h56.25v11.25h11.25v22.5H621.31v11.25h45v11.25H610.06V185.08H598.81V151.33h11.25Zm45,11.25v-5.62H621.31v11.25h33.75Z" transform="translate(-82.5 -59.5)"/><path d="M700.06,145.7v-5.62h56.25v11.25h11.25v45h-67.5V185.08H688.81V173.83h11.25V162.58h45V151.33h-45Zm45,33.75v-5.62H711.31v11.25h33.75Z" transform="translate(-82.5 -59.5)"/><path d="M790.06,145.7v-5.62h56.25v11.25h-45v11.25h45v11.25h11.25v11.25H846.31v11.25h-67.5V185.08h56.25V173.83h-45V162.58H778.81V151.33h11.25Z" transform="translate(-82.5 -59.5)"/><path d="M902.56,128.83V117.58h22.5v22.5h22.5v11.25h-22.5v45h-22.5v-45h-22.5V140.08h22.5Z" transform="translate(-82.5 -59.5)"/><path d="M661.81,231.2v-5.62h33.75v11.25h-22.5v11.25h22.5v11.25h-22.5v45h-22.5v-45h-22.5V248.08h22.5V236.83h11.25Z" transform="translate(-82.5 -59.5)"/><path d="M718.06,253.7v-5.62h56.25v11.25h11.25v33.75H774.31v11.25H718.06V293.08H706.81V259.33h11.25Zm45,22.5V259.33H729.31v33.75h33.75Z" transform="translate(-82.5 -59.5)"/><path d="M808.06,276.2V248.08h22.5v11.25h11.25V248.08h33.75v11.25H841.81v11.25H830.56v33.75h-22.5Z" transform="translate(-82.5 -59.5)"/><path d="M988.06,242.45V225.58h22.5v33.75h22.5V225.58h22.5v33.75h-11.25v11.25h-11.25v33.75h-22.5V270.58H999.31V259.33H988.06Z" transform="translate(-82.5 -59.5)"/><path d="M1078.06,253.7v-5.62h56.25v11.25h11.25v33.75h-11.25v11.25h-56.25V293.08h-11.25V259.33h11.25Zm45,22.5V259.33h-33.75v33.75h33.75Z" transform="translate(-82.5 -59.5)"/><path d="M1156.81,270.58v-22.5h22.5v45h33.75v-45h22.5v56.25h-67.5V293.08h-11.25Z" transform="translate(-82.5 -59.5)"/><path d="M1258.06,276.2V248.08h22.5v11.25h11.25V248.08h33.75v11.25h-33.75v11.25h-11.25v33.75h-22.5Z" transform="translate(-82.5 -59.5)"/><path d="M1426.81,265V225.58h78.75v11.25h-56.25v22.5h45v11.25h-45v22.5h56.25v11.25h-78.75Z" transform="translate(-82.5 -59.5)"/><path d="M1516.81,265V248.08h22.5v33.75h33.75V248.08h22.5v56.25h-11.25v11.25h-56.25V304.33h45V293.08h-45V281.83h-11.25Z" transform="translate(-82.5 -59.5)"/><path d="M1618.06,253.7v-5.62h56.25v11.25h11.25v22.5h-56.25v11.25h45v11.25h-56.25V293.08h-11.25V259.33h11.25Zm45,11.25v-5.62h-33.75v11.25h33.75Z" transform="translate(-82.5 -59.5)"/><path d="M1708.06,253.7v-5.62h56.25v11.25h-45v11.25h45v11.25h11.25v11.25h-11.25v11.25h-67.5V293.08h56.25V281.83h-45V270.58h-11.25V259.33h11.25Z" transform="translate(-82.5 -59.5)"/></g></svg>