<?xml version="1.0" encoding="utf-8"?>
<!-- Generator: Adobe Illustrator 23.1.1, SVG Export Plug-In . SVG Version: 6.00 Build 0)  -->
<svg version="1.1" xmlns="http://www.w3.org/2000/svg" xmlns:xlink="http://www.w3.org/1999/xlink" x="0px" y="0px"
	 viewBox="0 0 24 24" style="enable-background:new 0 0 24 24;" xml:space="preserve">
<style type="text/css">
	.st0{display:none;}
	.st1{display:inline;}
	.st2{fill:#764248;}
	.st3{fill:#FCC174;}
	.st4{fill:#FFF6B3;}
</style>
<g id="Layer_2" class="st0">
	<g class="st1">
		<g>
			<path class="st2" d="M3.8,14.4c0-0.1,0.1-0.2,0.2-0.3c-0.3,0.2-0.6,0.3-0.8,0.5c0.6-0.3,1,0.4,1.3,0.8c0.4,0.5,0.7,1.1,1,1.7
				c0.2,0.6,0.4,1.3,0.4,1.9c0,0.3-0.1,0.6-0.2,0.8c0,0.1-0.1,0.1-0.1,0.2c-0.2,0.2-0.4-0.2,0.5-0.3c-0.2,0-0.3,0.1-0.4,0
				c-0.6-0.1-1-0.7-1.3-1.2c-0.4-0.5-0.7-1.1-0.9-1.8c-0.2-0.6-0.4-1.3-0.3-2c0-0.3,0.1-0.6,0.2-0.8c0-0.1,0.1-0.1,0.1-0.2
				C3.6,13.5,3.4,14,2.9,14C3,14,3.1,14,3.3,14c0.3,0.1,0.5,0.4,0.6,0.7c0.2,0.3,0.3,0.7,0.3,1c0.1,0.3,0.1,0.7,0.1,1.1
				c0,0.3,0,0.8-0.3,1c0.3-0.2,0.6-0.3,0.9-0.5c-0.2,0.1-0.3,0.1-0.5,0c0,0-0.4,0.2-0.4,0.2c0,0-0.4,0.3-0.4,0.3
				c0.3,0.2,0.6,0,0.8-0.1c0.3-0.2,0.7-0.3,0.8-0.7c0.2-0.8,0-1.8-0.3-2.6c-0.1-0.3-0.3-0.7-0.7-0.8c-0.4,0-0.7,0.3-1,0.4
				c-0.3,0.2-0.6,0.3-0.7,0.7c-0.2,0.4-0.2,0.9-0.1,1.3c0.1,0.9,0.4,1.8,0.9,2.6c0.3,0.6,0.9,1.6,1.7,1.7c0.4,0,0.7-0.2,0.9-0.4
				c0.3-0.2,0.7-0.4,0.8-0.7c0.4-0.7,0.1-1.8-0.2-2.6c-0.2-0.5-0.4-0.9-0.7-1.4c-0.2-0.4-0.5-0.8-0.9-1.1c-0.3-0.2-0.6-0.1-0.9,0.1
				C3.6,14.3,3,14.5,3,14.9c0,0,0.4-0.2,0.4-0.2C3.5,14.6,3.8,14.4,3.8,14.4L3.8,14.4z"/>
		</g>
	</g>
	<g class="st1">
		<g>
			<path class="st2" d="M5.2,13.8c2.1-1,4.3-2.2,5.9-3.9c1.8-1.9,2.6-4.5,3.5-6.9c-0.1,0.2-0.8,0.3-0.9,0.5c-0.7,2-1.4,4-2.5,5.7
				C9.8,11.1,8,12.3,6,13.3C5.7,13.4,5.4,13.7,5.2,13.8L5.2,13.8z"/>
		</g>
	</g>
	<g class="st1">
		<g>
			<path class="st2" d="M14.5,3.3c1,0.3,1.9,0.9,2.6,1.7c0,0,0.4-0.2,0.4-0.2c0,0,0.4-0.3,0.4-0.3c-0.7-0.8-1.6-1.4-2.6-1.7
				c0,0-0.1,0.1-0.1,0.1C15.1,2.9,15,2.9,14.9,3c-0.1,0.1-0.2,0.1-0.3,0.2C14.6,3.2,14.5,3.3,14.5,3.3L14.5,3.3z"/>
		</g>
	</g>
	<g class="st1">
		<g>
			<path class="st2" d="M15.7,3.8c1.3,0.6,2.4,1.6,3,2.9c0,0,0.9-0.5,0.9-0.5c-0.6-1.3-1.7-2.3-3-2.9c0,0-0.1,0.1-0.1,0.1
				c-0.1,0.1-0.2,0.1-0.3,0.2c-0.1,0.1-0.2,0.1-0.3,0.2C15.8,3.7,15.7,3.8,15.7,3.8L15.7,3.8z"/>
		</g>
	</g>
	<g class="st1">
		<g>
			<path class="st2" d="M19,7.1c-0.5,3.1-2,5.8-4.2,8c-1.1,1.1-2.3,2.1-3.5,3.1c-0.8,0.6-1.3,0.9-2.2,1.1c-0.8,0.2-1.6,0.3-2.4,0.1
				c-0.2,0-0.7,0.6-0.9,0.5c1.6,0.8,3.4-0.1,4.8-0.9c1.4-0.8,2.8-1.7,4-2.8c2.9-2.5,5.6-5.9,5.7-9.9c0,0.2-0.9,0.3-0.9,0.5
				c-0.1,3.3-2,6.1-4.2,8.4c-1.1,1.2-2.4,2.2-3.8,3.1c-1.4,0.9-3.2,1.7-4.9,1c-0.3,0.2-0.6,0.3-0.9,0.5c3.2,0.5,6.2-2,8.5-4
				c1.4-1.2,2.8-2.6,3.7-4.2c1-1.6,1.6-3.3,1.8-5.1C19.8,6.8,19,6.9,19,7.1L19,7.1z"/>
		</g>
	</g>
	<g class="st1">
		<g>
			<path class="st2" d="M13.3,3.8c0,2.2-1.2,4.1-2.7,5.6c-1.8,1.7-4.1,2.6-6.4,3.6c-0.3,0.1-0.6,0.4-0.9,0.5C7.8,11.7,14,9,14.1,3.3
				C14.1,3.5,13.3,3.7,13.3,3.8L13.3,3.8z"/>
		</g>
	</g>
	<g class="st1">
		<g>
			<path class="st2" d="M4.9,15.3c5.1-2,9.4-5.8,11.5-10.9c-0.1,0.2-0.8,0.3-0.9,0.5c-1.8,4.4-5.3,8.1-9.7,9.9
				C5.5,14.9,5.3,15.2,4.9,15.3L4.9,15.3z"/>
		</g>
	</g>
	<g class="st1">
		<g>
			<path class="st2" d="M16.9,6.3c0.2,2.6-1.3,4.8-3.1,6.5c-1.8,1.7-3.8,3.4-6.2,3.9c-0.3,0.1-0.6,0.4-0.9,0.5
				c2.5-0.5,4.7-2.2,6.6-3.8c2.3-1.9,4.6-4.4,4.4-7.7C17.8,5.9,16.9,6.1,16.9,6.3L16.9,6.3z"/>
		</g>
	</g>
	<g class="st1">
		<g>
			<path class="st2" d="M14.8,3.1c2.2-0.2,4.3,1.2,4.9,3.3c0.3-0.2,0.6-0.3,0.9-0.5c-1.1,0.1-2.2-0.3-3.2-0.8
				c-0.5-0.3-0.9-0.6-1.4-0.9c-0.3-0.2-1-0.6-0.9-1.1c0,0.1-0.4,0.2-0.4,0.2c-0.1,0.1-0.2,0.1-0.3,0.2c0,0-0.1,0.1-0.1,0.1
				c-0.1,0.5,0.5,0.8,0.8,1c0.5,0.3,0.9,0.6,1.4,0.9c1,0.5,2.1,0.9,3.2,0.8c0.1,0,0.9-0.5,0.9-0.5c-0.6-2.1-2.7-3.5-4.9-3.3
				c-0.1,0-0.3,0.2-0.4,0.2C15.2,2.9,15.1,3,15,3C14.9,3,14.9,3.1,14.8,3.1L14.8,3.1z"/>
		</g>
	</g>
</g>
<g id="Layer_3">
	<g id="XMLID_1_">
		<g>
			<rect x="21" y="5" width="1" height="1"/>
			<rect x="20" y="2" width="1" height="1"/>
			<rect x="19" y="1" width="1" height="1"/>
			<rect x="21" y="3" width="1" height="1"/>
			<rect x="21" y="4" width="1" height="1"/>
			<rect x="6" y="20" width="1" height="1"/>
			<rect x="5" y="20" width="1" height="1"/>
			<rect x="3" y="20" width="1" height="1"/>
			<rect x="4" y="20" width="1" height="1"/>
			<rect x="1" y="15" width="1" height="1"/>
			<rect x="1" y="17" width="1" height="1"/>
			<rect x="1" y="18" width="1" height="1"/>
			<rect x="3" y="19" width="1" height="1"/>
			<rect x="2" y="19" width="1" height="1"/>
			<rect x="1" y="16" width="1" height="1"/>
			<rect x="2" y="18" width="1" height="1"/>
			<rect x="1" y="14" width="1" height="1"/>
			<rect x="15" y="1" width="1" height="1"/>
			<rect x="20" y="4" class="st3" width="1" height="1"/>
			<rect x="17" y="1" width="1" height="1"/>
			<rect x="18" y="2" class="st3" width="1" height="1"/>
			<rect x="16" y="1" width="1" height="1"/>
			<rect x="19" y="2" width="1" height="1"/>
			<rect x="20" y="3" class="st3" width="1" height="1"/>
			<rect x="18" y="1" width="1" height="1"/>
			<rect x="19" y="3" class="st3" width="1" height="1"/>
			<rect x="20" y="8" width="1" height="1"/>
			<rect x="20" y="7" width="1" height="1"/>
			<rect x="20" y="6" width="1" height="1"/>
			<rect x="20" y="5" width="1" height="1"/>
			<rect x="19" y="11" width="1" height="1"/>
			<rect x="19" y="10" width="1" height="1"/>
			<rect x="19" y="9" width="1" height="1"/>
			<rect x="19" y="8" class="st3" width="1" height="1"/>
			<rect x="19" y="7" class="st3" width="1" height="1"/>
			<rect x="19" y="6" width="1" height="1"/>
			<rect x="19" y="5" class="st3" width="1" height="1"/>
			<rect x="19" y="4" class="st3" width="1" height="1"/>
			<rect x="18" y="13" width="1" height="1"/>
			<rect x="18" y="12" width="1" height="1"/>
			<rect x="18" y="11" class="st3" width="1" height="1"/>
			<rect x="18" y="10" class="st4" width="1" height="1"/>
			<rect x="18" y="9" class="st4" width="1" height="1"/>
			<rect x="18" y="8" class="st4" width="1" height="1"/>
			<rect x="18" y="7" class="st4" width="1" height="1"/>
			<rect x="18" y="6" width="1" height="1"/>
			<rect x="18" y="5" class="st3" width="1" height="1"/>
			<rect x="18" y="4" class="st3" width="1" height="1"/>
			<rect x="18" y="3" class="st3" width="1" height="1"/>
			<rect x="17" y="14" width="1" height="1"/>
			<rect x="17" y="13" width="1" height="1"/>
			<rect x="17" y="12" class="st4" width="1" height="1"/>
			<rect x="17" y="11" class="st4" width="1" height="1"/>
			<rect x="17" y="10" class="st4" width="1" height="1"/>
			<rect x="17" y="9" class="st4" width="1" height="1"/>
			<rect x="17" y="8" class="st3" width="1" height="1"/>
			<rect x="17" y="7" class="st3" width="1" height="1"/>
			<rect x="17" y="6" width="1" height="1"/>
			<rect x="17" y="5" width="1" height="1"/>
			<rect x="17" y="4" class="st3" width="1" height="1"/>
			<rect x="17" y="3" class="st3" width="1" height="1"/>
			<rect x="17" y="2" class="st3" width="1" height="1"/>
			<rect x="16" y="15" width="1" height="1"/>
			<rect x="16" y="14" class="st3" width="1" height="1"/>
			<rect x="16" y="13" class="st4" width="1" height="1"/>
			<rect x="16" y="12" class="st4" width="1" height="1"/>
			<rect x="16" y="11" class="st4" width="1" height="1"/>
			<rect x="16" y="10" class="st3" width="1" height="1"/>
			<rect x="16" y="9" class="st3" width="1" height="1"/>
			<rect x="16" y="8" class="st3" width="1" height="1"/>
			<rect x="16" y="7" class="st4" width="1" height="1"/>
			<rect x="16" y="6" width="1" height="1"/>
			<rect x="16" y="5" width="1" height="1"/>
			<rect x="16" y="4" class="st3" width="1" height="1"/>
			<rect x="16" y="3" class="st3" width="1" height="1"/>
			<rect x="16" y="2" class="st3" width="1" height="1"/>
			<rect x="15" y="16" width="1" height="1"/>
			<rect x="15" y="15" class="st3" width="1" height="1"/>
			<rect x="15" y="14" class="st4" width="1" height="1"/>
			<rect x="15" y="13" class="st4" width="1" height="1"/>
			<rect x="15" y="12" class="st3" width="1" height="1"/>
			<rect x="15" y="11" class="st3" width="1" height="1"/>
			<rect x="15" y="10" class="st3" width="1" height="1"/>
			<rect x="15" y="9" class="st4" width="1" height="1"/>
			<rect x="15" y="8" class="st4" width="1" height="1"/>
			<rect x="15" y="7" class="st4" width="1" height="1"/>
			<rect x="15" y="6" class="st3" width="1" height="1"/>
			<rect x="15" y="5" width="1" height="1"/>
			<rect x="15" y="4" width="1" height="1"/>
			<rect x="15" y="3" class="st3" width="1" height="1"/>
			<rect x="15" y="2" class="st3" width="1" height="1"/>
			<rect x="14" y="17" width="1" height="1"/>
			<rect x="14" y="16" width="1" height="1"/>
			<rect x="14" y="15" class="st4" width="1" height="1"/>
			<rect x="14" y="14" class="st4" width="1" height="1"/>
			<rect x="14" y="13" class="st3" width="1" height="1"/>
			<rect x="14" y="12" class="st3" width="1" height="1"/>
			<rect x="14" y="11" class="st4" width="1" height="1"/>
			<rect x="14" y="10" class="st4" width="1" height="1"/>
			<rect x="14" y="9" class="st4" width="1" height="1"/>
			<rect x="14" y="8" class="st3" width="1" height="1"/>
			<rect x="14" y="7" class="st3" width="1" height="1"/>
			<rect x="14" y="6" class="st4" width="1" height="1"/>
			<rect x="14" y="5" class="st4" width="1" height="1"/>
			<rect x="14" y="4" width="1" height="1"/>
			<rect x="14" y="3" width="1" height="1"/>
			<rect x="14" y="2" width="1" height="1"/>
			<rect x="13" y="18" width="1" height="1"/>
			<rect x="13" y="17" class="st3" width="1" height="1"/>
			<rect x="13" y="16" class="st4" width="1" height="1"/>
			<rect x="13" y="15" class="st4" width="1" height="1"/>
			<rect x="13" y="14" class="st3" width="1" height="1"/>
			<rect x="13" y="13" class="st3" width="1" height="1"/>
			<rect x="13" y="12" class="st4" width="1" height="1"/>
			<rect x="13" y="11" class="st4" width="1" height="1"/>
			<rect x="13" y="10" class="st4" width="1" height="1"/>
			<rect x="13" y="9" class="st3" width="1" height="1"/>
			<rect x="13" y="8" class="st4" width="1" height="1"/>
			<rect x="13" y="7" class="st4" width="1" height="1"/>
			<rect x="13" y="6" class="st4" width="1" height="1"/>
			<rect x="13" y="5" class="st4" width="1" height="1"/>
			<rect x="13" y="4" width="1" height="1"/>
			<rect x="13" y="3" width="1" height="1"/>
			<rect x="13" y="2" width="1" height="1"/>
			<rect x="12" y="18" width="1" height="1"/>
			<rect x="12" y="17" class="st3" width="1" height="1"/>
			<rect x="12" y="16" class="st4" width="1" height="1"/>
			<rect x="12" y="15" class="st3" width="1" height="1"/>
			<rect x="12" y="14" class="st3" width="1" height="1"/>
			<rect x="12" y="13" class="st4" width="1" height="1"/>
			<rect x="12" y="12" class="st4" width="1" height="1"/>
			<rect x="12" y="11" class="st3" width="1" height="1"/>
			<rect x="12" y="10" class="st3" width="1" height="1"/>
			<rect x="12" y="9" class="st4" width="1" height="1"/>
			<rect x="12" y="8" class="st4" width="1" height="1"/>
			<rect x="12" y="7" class="st4" width="1" height="1"/>
			<rect x="12" y="6" width="1" height="1"/>
			<rect x="12" y="5" width="1" height="1"/>
			<rect x="11" y="18" width="1" height="1"/>
			<rect x="11" y="17" class="st3" width="1" height="1"/>
			<rect x="11" y="16" class="st4" width="1" height="1"/>
			<rect x="11" y="15" class="st3" width="1" height="1"/>
			<rect x="11" y="14" class="st4" width="1" height="1"/>
			<rect x="11" y="13" class="st4" width="1" height="1"/>
			<rect x="11" y="12" class="st4" width="1" height="1"/>
			<rect x="11" y="11" class="st3" width="1" height="1"/>
			<rect x="11" y="10" class="st4" width="1" height="1"/>
			<rect x="11" y="9" class="st4" width="1" height="1"/>
			<rect x="11" y="8" width="1" height="1"/>
			<rect x="11" y="7" width="1" height="1"/>
			<rect x="10" y="19" width="1" height="1"/>
			<rect x="10" y="18" class="st3" width="1" height="1"/>
			<rect x="10" y="17" class="st4" width="1" height="1"/>
			<rect x="10" y="16" class="st4" width="1" height="1"/>
			<rect x="10" y="15" class="st3" width="1" height="1"/>
			<rect x="10" y="14" class="st4" width="1" height="1"/>
			<rect x="10" y="13" class="st4" width="1" height="1"/>
			<rect x="10" y="12" class="st3" width="1" height="1"/>
			<rect x="10" y="11" class="st4" width="1" height="1"/>
			<rect x="10" y="10" class="st4" width="1" height="1"/>
			<rect x="10" y="9" width="1" height="1"/>
			<rect x="10" y="8" width="1" height="1"/>
			<rect x="9" y="19" width="1" height="1"/>
			<rect x="9" y="18" class="st4" width="1" height="1"/>
			<rect x="9" y="17" class="st4" width="1" height="1"/>
			<rect x="9" y="16" class="st3" width="1" height="1"/>
			<rect x="9" y="15" class="st4" width="1" height="1"/>
			<rect x="9" y="14" class="st4" width="1" height="1"/>
			<rect x="9" y="13" class="st3" width="1" height="1"/>
			<rect x="9" y="12" class="st3" width="1" height="1"/>
			<rect x="9" y="11" class="st4" width="1" height="1"/>
			<rect x="9" y="10" width="1" height="1"/>
			<rect x="9" y="9" width="1" height="1"/>
			<rect x="8" y="19" width="1" height="1"/>
			<rect x="8" y="18" class="st4" width="1" height="1"/>
			<rect x="8" y="17" class="st4" width="1" height="1"/>
			<rect x="8" y="16" class="st3" width="1" height="1"/>
			<rect x="8" y="15" class="st4" width="1" height="1"/>
			<rect x="8" y="14" class="st4" width="1" height="1"/>
			<rect x="8" y="13" class="st3" width="1" height="1"/>
			<rect x="8" y="12" class="st4" width="1" height="1"/>
			<rect x="8" y="11" width="1" height="1"/>
			<rect x="8" y="10" width="1" height="1"/>
			<rect x="7" y="19" width="1" height="1"/>
			<rect x="7" y="18" width="1" height="1"/>
			<rect x="7" y="17" width="1" height="1"/>
			<rect x="7" y="16" class="st3" width="1" height="1"/>
			<rect x="7" y="15" class="st4" width="1" height="1"/>
			<rect x="7" y="14" class="st3" width="1" height="1"/>
			<rect x="7" y="13" class="st4" width="1" height="1"/>
			<rect x="7" y="12" class="st4" width="1" height="1"/>
			<rect x="7" y="11" width="1" height="1"/>
			<rect x="6" y="19" width="1" height="1"/>
			<rect x="6" y="18" class="st3" width="1" height="1"/>
			<rect x="6" y="17" class="st3" width="1" height="1"/>
			<rect x="6" y="16" width="1" height="1"/>
			<rect x="6" y="15" width="1" height="1"/>
			<rect x="6" y="14" class="st3" width="1" height="1"/>
			<rect x="6" y="13" class="st4" width="1" height="1"/>
			<rect x="6" y="12" class="st4" width="1" height="1"/>
			<rect x="6" y="11" width="1" height="1"/>
			<rect x="5" y="19" width="1" height="1"/>
			<rect x="5" y="18" class="st3" width="1" height="1"/>
			<rect x="5" y="17" class="st3" width="1" height="1"/>
			<rect x="5" y="16" class="st3" width="1" height="1"/>
			<rect x="5" y="15" class="st3" width="1" height="1"/>
			<rect x="5" y="14" width="1" height="1"/>
			<rect x="5" y="13" class="st4" width="1" height="1"/>
			<rect x="5" y="12" width="1" height="1"/>
			<rect x="4" y="19" width="1" height="1"/>
			<rect x="4" y="18" class="st3" width="1" height="1"/>
			<rect x="4" y="17" class="st3" width="1" height="1"/>
			<rect x="4" y="16" class="st3" width="1" height="1"/>
			<rect x="4" y="15" class="st3" width="1" height="1"/>
			<rect x="4" y="14" class="st3" width="1" height="1"/>
			<rect x="4" y="13" width="1" height="1"/>
			<rect x="4" y="12" width="1" height="1"/>
			<rect x="3" y="18" class="st3" width="1" height="1"/>
			<rect x="3" y="17" class="st3" width="1" height="1"/>
			<rect x="3" y="16" class="st3" width="1" height="1"/>
			<rect x="3" y="15" class="st3" width="1" height="1"/>
			<rect x="3" y="14" class="st3" width="1" height="1"/>
			<rect x="3" y="13" width="1" height="1"/>
			<rect x="3" y="12" width="1" height="1"/>
			<rect x="2" y="17" class="st3" width="1" height="1"/>
			<rect x="2" y="16" class="st3" width="1" height="1"/>
			<rect x="2" y="15" class="st3" width="1" height="1"/>
			<rect x="2" y="14" width="1" height="1"/>
			<rect x="2" y="13" width="1" height="1"/>
		</g>
		<g>
		</g>
	</g>
</g>
</svg>
