<?xml version="1.0" encoding="utf-8"?>
<!-- Generator: Adobe Illustrator 23.1.1, SVG Export Plug-In . SVG Version: 6.00 Build 0)  -->
<svg version="1.1" xmlns="http://www.w3.org/2000/svg" xmlns:xlink="http://www.w3.org/1999/xlink" x="0px" y="0px"
	 viewBox="0 0 24 24" style="enable-background:new 0 0 24 24;" xml:space="preserve">
<style type="text/css">
	.st0{display:none;}
	.st1{display:inline;}
	.st2{fill:#A23B72;}
	.st3{fill:#08B2E3;}
	.st4{fill:#AD2E24;}
	.st5{fill:#CC434E;}
	.st6{fill:#F2D0A4;}
	.st7{fill:#FCC174;}
</style>
<g id="Layer_2" class="st0">
	<g class="st1">
		<g>
			<path class="st2" d="M5.3,13.2c0.1,1.5,0.3,3,0.6,4.4c0,0,0.4-0.2,0.4-0.2c0,0,0.4-0.2,0.4-0.3c-0.3-1.5-0.5-2.9-0.6-4.4
				c0,0-0.4,0.2-0.4,0.2C5.6,13,5.3,13.2,5.3,13.2L5.3,13.2z"/>
		</g>
	</g>
	<g class="st1">
		<g>
			<path class="st2" d="M6.7,19.2c0.4,1,1.1,2.2,2.4,1.6c0.4-0.2,0.8-0.4,1.1-0.7c0.2-0.1,0.3-0.3,0.5-0.4c0.1-0.1,0.2-0.2,0.3-0.3
				c0.2-0.2,0.1-0.1-0.4,0.2c0.1,0,0.1,0,0.2-0.1c0.6-0.1,1.1,0.2,1.6,0.4c0.6,0.2,1.1,0.3,1.6,0c0.4-0.2,0.7-0.4,1.1-0.6
				c0.5-0.4,0.8-1,1.1-1.6c0,0.1-0.3,0.2-0.4,0.2c-0.1,0.1-0.4,0.2-0.4,0.3c-0.3,0.5-0.5,1-0.9,1.4c0,0-0.1,0.1-0.1,0.1
				c-0.2,0.2-0.1,0.1,0.3-0.2c-0.1,0-0.2,0.1-0.3,0.1c-0.2,0-0.5,0-0.7,0c-0.5-0.1-1-0.5-1.5-0.5c-0.4,0-0.7,0.1-1,0.3
				c-0.3,0.2-0.7,0.4-1,0.6c-0.2,0.1-0.3,0.3-0.5,0.4c-0.1,0.1-0.1,0.1-0.2,0.2c-0.1,0-0.1,0.1-0.2,0.1c0.5-0.3,0.7-0.4,0.4-0.3
				c-0.5,0.1-0.9,0.1-1.3-0.3c-0.4-0.4-0.7-0.9-0.9-1.4C7.6,18.7,6.7,19.1,6.7,19.2L6.7,19.2z"/>
		</g>
	</g>
	<g class="st1">
		<g>
			<path class="st2" d="M6.8,19.7C6.8,19.7,6.8,19.7,6.8,19.7c0.3-0.1,0.6-0.3,0.8-0.5c-0.1,0-0.2-0.2-0.2-0.3
				c-0.1-0.2-0.2-0.3-0.2-0.5c-0.2-0.3-0.3-0.6-0.4-0.9c-0.2-0.6-0.4-1.3-0.4-1.9c0,0-0.4,0.2-0.4,0.2C5.8,15.9,5.7,16,5.6,16
				c0,0-0.1,0.1-0.1,0.1c0,0.8,0.2,1.6,0.5,2.3c0.2,0.4,0.4,0.7,0.5,1.1C6.6,19.5,6.7,19.7,6.8,19.7c0,0,0,0,0.1-0.1
				c0.3-0.1,0.5-0.3,0.8-0.4C7.4,19.4,7.1,19.5,6.8,19.7L6.8,19.7z"/>
		</g>
	</g>
	<g class="st1">
		<g>
			<path class="st2" d="M15.9,18.3c-0.1-0.7,0.5-1.5,0.8-2.1c0.3-0.7,0.6-1.3,0.9-2c0.4-1.2,0.6-2.5,0.2-3.8c-0.4-1.1-1.3-1.9-2.5-2
				c-0.9-0.1-1.7,0.5-2.4,1c0.3-0.2,0.6-0.3,0.9-0.5c-0.2-1.4-2.1-0.1-2.7,0.3c0,0,0,0,0,0c0.1,0,0.2,0.1,0.1,0.2
				C11.4,9.1,11.8,9,12,8.8c0.1-0.1,0-0.2-0.1-0.2c-0.1,0.1-0.2,0.1-0.3,0.2c0.1,0,0.1,0,0.2-0.1c0.1,0,0.2-0.1,0.4,0
				c0.4,0,0.7,0.3,0.7,0.7c0-0.1,0.8-0.4,0.9-0.5c0.1-0.1,0.1-0.1,0.2-0.2c-0.1,0.1-0.2,0.1-0.3,0.2c-0.4,0.2,0.2,0,0.3,0
				c0.2,0,0.5,0,0.7,0C15.2,9,15.6,9.2,16,9.5c0.8,0.6,1.1,1.6,1.2,2.6c0.1,1.1-0.3,2.2-0.7,3.2c-0.2,0.6-0.5,1.1-0.8,1.7
				c-0.3,0.5-0.7,1.2-0.6,1.8C15,18.7,15.9,18.5,15.9,18.3L15.9,18.3z"/>
		</g>
	</g>
	<g class="st1">
		<g>
			<path class="st2" d="M5.9,9c0.9-0.4,1.8-0.6,2.8-0.6c0.4,0,0.9,0,1.3,0.2c0.4,0.2,0.7,0.5,1,0.9c0.5,0.7,1.1,1.8,0.8,2.7
				c-0.1,0.5-0.3,0.9-0.4,1.4c-0.1,0.5-0.1,1-0.1,1.5c0,0,0.4-0.2,0.4-0.2c0,0,0.4-0.2,0.4-0.3c0-0.5,0-1,0.1-1.4
				c0.1-0.5,0.2-0.9,0.4-1.4c0.3-0.9-0.3-2-0.8-2.7c-0.2-0.4-0.5-0.7-0.9-0.9c-0.4-0.2-0.9-0.2-1.3-0.2c-1,0-1.9,0.2-2.8,0.6
				C6.5,8.6,6.2,8.8,5.9,9L5.9,9z"/>
		</g>
	</g>
	<g class="st1">
		<g>
			<path class="st2" d="M6.2,13.4c-0.4-1-0.5-2-0.3-3C6,10,6.2,9.6,6.4,9.2C6.5,9,6.6,8.9,6.7,8.7c0.1-0.1,0.1-0.1,0.2-0.2
				c0,0,0.1-0.1,0.1-0.1c0.1-0.1,0.1-0.1-0.2,0.1C6.5,8.7,6.4,8.8,6.6,8.7c0.3-0.1,0.6-0.4,0.9-0.5C7.2,8.3,7,8.4,6.8,8.6
				C6.5,8.7,6.3,8.8,6.1,9c-0.4,0.3-0.7,0.8-0.8,1.3c-0.4,1.2-0.3,2.5,0.1,3.6C5.3,13.8,6.2,13.4,6.2,13.4L6.2,13.4z"/>
		</g>
	</g>
	<g class="st1">
		<g>
			<path class="st2" d="M8.9,8c0.2-0.2,0.4-0.4,0.6-0.5c0.1-0.1,0.3-0.2,0.4-0.3C9.3,7.4,9.2,7.5,9.5,7.3c0.1,0,0.1-0.1,0.2-0.1
				c0.5-0.2,1-0.3,1.5-0.2c0.6,0.1,1.1,0.4,1.5,0.7c0.5,0.3,1.1,0.7,1.6,1c0,0,0.4-0.2,0.4-0.2c0,0,0.4-0.3,0.4-0.3
				c-0.6-0.5-1.3-0.9-2-1.3c-0.6-0.3-1.2-0.5-1.9-0.4C10.6,6.7,10.1,7,9.5,7.3C9,7.6,8.5,8,8,8.5c0.1-0.1,0.3-0.2,0.4-0.2
				C8.6,8.1,8.8,8.1,8.9,8L8.9,8z"/>
		</g>
	</g>
	<g class="st1">
		<g>
			<path class="st2" d="M12.4,8.5c0.2-0.6,0.4-1.2,0.6-1.8c0.2-0.6,0.2-1.2,0.4-1.8c0.1-0.3,0.2-0.5,0.3-0.8
				c0.1-0.1,0.1-0.2,0.2-0.3c0.1-0.1,0.5-0.4,0-0.1c-0.5,0.3-0.2,0.1,0,0.1c0.1,0,0.2,0,0.3,0c0.2,0,0.5,0.1,0.6,0.3
				c0.1,0.1,0.8-0.5,0.9-0.5c-0.4-0.4-1-0.4-1.5-0.2c-0.6,0.3-1.2,0.6-1.5,1.3c-0.3,0.6-0.4,1.4-0.6,2.1c-0.2,0.8-0.4,1.5-0.7,2.2
				c0,0,0.1-0.1,0.1-0.1c0.1-0.1,0.2-0.1,0.3-0.2c0.1-0.1,0.2-0.1,0.3-0.2C12.3,8.5,12.4,8.5,12.4,8.5L12.4,8.5z"/>
		</g>
	</g>
	<g class="st1">
		<g>
			<path class="st2" d="M11,19.6c0.5-0.8,0.8-1.6,0.9-2.5c0,0-0.1,0.1-0.1,0.1c-0.1,0.1-0.2,0.1-0.3,0.2c-0.1,0.1-0.2,0.1-0.3,0.2
				c0,0-0.1,0.1-0.1,0.1c-0.1,0.9-0.4,1.7-0.9,2.5c0,0,0.1-0.1,0.1-0.1c0.1-0.1,0.2-0.1,0.3-0.2c0.1-0.1,0.2-0.1,0.3-0.2
				C11,19.6,11,19.6,11,19.6L11,19.6z"/>
		</g>
	</g>
	<g class="st1">
		<g>
			<path class="st2" d="M5.4,17.4c0,0.1,0,0.2,0,0.3c0.3-0.2,0.6-0.3,0.9-0.5c-0.8-1.2-0.7-2.6-0.6-4c0-0.8,0.1-1.6,0-2.4
				c-0.1-0.7-0.2-1.4-0.1-2.1c0.1-0.6,0.2-1.2,0.7-1.7c0,0,0.4-0.3,0.2-0.2C6.2,7.1,6.6,6.9,6.7,6.9C7,6.8,7.3,6.7,7.6,6.6
				c1.2-0.3,2.7-0.6,3.7,0.5c0,0.1,0.8-0.5,0.9-0.5c-1.1-1.3-2.9-0.8-4.3-0.4C6.9,6.5,5.6,7.1,5.1,8c-0.9,1.4-0.2,3.3-0.2,4.8
				c-0.1,1.7-0.3,3.5,0.6,5c0,0,0.9-0.4,0.9-0.5c0-0.1,0-0.2,0-0.3C6.3,17.1,5.4,17.2,5.4,17.4L5.4,17.4z"/>
		</g>
	</g>
	<g class="st1">
		<g>
			<path class="st2" d="M9.2,6.1C9.2,6.1,9.2,6.1,9.2,6.1C9,6.3,8.7,6.4,8.4,6.6c0.2-0.1,0.6,0,0.8,0.1C9.5,6.8,9.7,7,9.9,7.2
				c0.4,0.4,0.7,1,0.7,1.7c0,0,0.1-0.1,0.1-0.1c0.1-0.1,0.2-0.1,0.3-0.2c0.1-0.1,0.2-0.1,0.3-0.2c0,0,0.1-0.1,0.1-0.1
				c0.1-0.7-0.3-1.4-0.9-1.8C10.3,6.3,10,6.1,9.7,6.1C9.6,6,9.4,6,9.2,6.1C9.1,6.2,8.9,6.3,8.7,6.4C8.6,6.5,8.5,6.6,8.3,6.6
				c0.1-0.1,0.3-0.2,0.4-0.2C8.9,6.3,9.1,6.2,9.2,6.1L9.2,6.1z"/>
		</g>
	</g>
	<g class="st1">
		<g>
			<path class="st2" d="M12.2,6.7c-0.1,0-0.1-0.1-0.1-0.2c0,0,0.1-0.1,0.1-0.1c0,0,0,0,0.1,0c0.2-0.2,0.1-0.1-0.5,0.3
				c0.2-0.1,0.5-0.2,0.7-0.3c0.5-0.1,1-0.1,1.4,0.2c0.8,0.5,1.4,1.4,1.8,2.2c0,0,0.9-0.5,0.9-0.5c-0.3-0.6-0.6-1.1-1-1.5
				c-0.4-0.4-0.8-0.8-1.4-0.9C13.6,5.8,13,6,12.5,6.2c-0.3,0.2-0.7,0.4-1,0.6c-0.1,0.1-0.5,0.3-0.2,0.4c0.1,0,0.4-0.2,0.4-0.2
				c0.1-0.1,0.2-0.1,0.3-0.2C12.1,6.8,12.2,6.7,12.2,6.7L12.2,6.7z"/>
		</g>
	</g>
	<g id="brIPjw_1_" class="st1">
		
			<image style="overflow:visible;" width="159" height="317" id="brIPjw" xlink:href="337D85042FDD46D5.jpg"  transform="matrix(0.1036 0 0 0.1228 3.7444 1.5307)">
		</image>
	</g>
</g>
<g id="Layer_4" class="st0">
	<g class="st1">
		<g>
			<path class="st3" d="M12.4,13c0-0.1,0-0.2,0.1-0.3c-0.3,0.2-0.6,0.3-0.9,0.5c0.5,3-0.2,6,0.9,8.9c0,0,0.8-0.4,0.9-0.5
				c0.4-0.3,0.4-0.8,0.4-1.3c0-0.7,0-1.3,0-2c0-1.3,0-2.7,0.1-4c-0.3,0.2-0.6,0.3-0.9,0.5c0.2,1.9,0.3,3.7,0.3,5.6
				c0-0.2,0.9-0.3,0.9-0.5c0-1.9-0.1-3.7-0.3-5.6c0,0.1-0.9,0.3-0.9,0.5c0,1.3,0,2.7-0.1,4c0,0.6,0,1.3,0,1.9c0,0.5,0,1.1-0.4,1.4
				c0.3-0.2,0.6-0.3,0.9-0.5c-1.1-2.9-0.4-6-0.9-8.9c0,0.1-0.8,0.3-0.9,0.5c0,0.1,0,0.2-0.1,0.3c0-0.1,0.4-0.2,0.4-0.2
				C12.1,13.2,12.4,13,12.4,13L12.4,13z"/>
		</g>
	</g>
	<g class="st1">
		<g>
			<path class="st3" d="M8.9,14.2c1.8,0,3.5-0.1,5.3-0.4c1.3-0.2,2.5-0.5,3.6-1.1c0.4-0.2,0.8-0.5,0.9-0.9c0.3-0.7,0.1-1.7,0-2.5
				c-0.1-1.6-0.2-3.3-0.5-4.9c-0.1-0.8-0.3-1.5-0.6-2.3c-0.2-0.6-0.5-1.4-1.3-1.5c-0.8-0.1-1.7,0.1-2.5,0.2C13,0.9,12.2,1,11.5,1.1
				C10.6,1.3,9.5,1.8,9,2.5c-1,1.1-0.8,3-0.8,4.4c0.1,1.9,0.3,3.7,0.1,5.6c-0.1,0.6-0.4,1.5,0.1,2c0.6,0.6,1.6,0,2.3,0.1
				c0.3,0,0.6-0.5,0.9-0.5C10.7,14,8.9,14.7,9,13.1c0-0.6,0.2-1.2,0.2-1.8c0-0.8,0-1.6,0-2.3C9.1,7.5,9,6,9.1,4.5
				c0-0.6,0.1-1.2,0.3-1.7c0.1-0.3,0.2-0.5,0.4-0.7c0,0,0.3-0.3,0.3-0.3c-0.1,0-0.2,0.1-0.2,0.1c0.1,0,0.2-0.1,0.4-0.1
				c1.3-0.4,2.8-0.4,4.1-0.5c0.5-0.1,1.3-0.3,1.8,0.2c0.4,0.4,0.6,1.2,0.8,1.8c0.4,1.3,0.6,2.7,0.7,4.1c0.1,1.4,0.3,2.9,0.3,4.3
				c0,0.3,0,0.7-0.2,1c0,0.1-0.2,0.4-0.3,0.4c0.1,0,0.2-0.1,0.2-0.1c-0.1,0-0.2,0.1-0.4,0.1c-0.7,0.2-1.5,0.3-2.3,0.5
				c-1.7,0.3-3.5,0.4-5.3,0.4C9.5,13.7,9.2,14.2,8.9,14.2L8.9,14.2z"/>
		</g>
	</g>
	<g class="st1">
		<g>
			<path class="st3" d="M12.5,1.2c0.7,0.1,1.4,0.2,2.1,0.3c0.6,0.1,1.2,0.3,1.5,0.7c0.8,0.9,0.9,2.5,1,3.7c0.1,1.3,0.1,2.7,0,4
				c0,0.7,0,1.3,0,2c0,0.5,0.2,1.3-0.2,1.7c0,0,0.1-0.1,0.1-0.1c0.3-0.2,0.5-0.3,0.1-0.1c-0.2,0.1-0.3,0.2-0.5,0.3
				c-0.2,0.1-0.6,0.5-0.8,0.5c0.2,0,0.4,0,0.6,0.1c0.3-0.2,0.6-0.3,0.9-0.5c-0.6,0.2-1.2,0.3-1.8,0.3c-0.3,0.2-0.6,0.3-0.9,0.5
				c0,0,0.5,0,0.4,0.1c0.3-0.2,0.6-0.3,0.9-0.5c-0.6,0.3-1.3,0-2,0c-0.8,0-1.7,0.1-2.5,0.2c-0.8,0.1-1.2,0-1.8-0.5
				c-0.5-0.5-0.8-1.1-0.8-1.8c-0.3,0.2-0.6,0.3-0.9,0.5c0,0.6,0.2,1.1,0.6,1.5c0.2,0.2,0.4,0.3,0.7,0.4c0.1,0,0.2,0.1,0.3,0.1
				c0.2,0,0.4-0.1,0.2,0.1c0.3-0.2,0.6-0.3,0.8-0.5c-0.1,0-0.2,0-0.3-0.2c0,0-0.9,0.5-0.9,0.5c0,0.1,0.1,0.1,0.1,0.2c0,0,0,0,0,0
				c0.3-0.1,0.5-0.3,0.8-0.4c0.1,0,0.2-0.1,0.2-0.1c0.2-0.1,0.1-0.1-0.1-0.1c-0.1,0-0.2,0-0.3,0c-0.9-0.2-1.5-1.1-1.5-2
				c0,0.2-0.9,0.3-0.9,0.5c-0.1,0.9,0.5,1.7,1.2,2.2c0.4,0.2,0.7,0.2,1.1,0.2c0.6,0,1.2-0.1,1.7-0.1c0.5,0,1-0.1,1.5,0
				c0.4,0.1,0.8,0.2,1.2,0.1c0.5-0.1,0.9-0.4,1.3-0.7c0,0,0,0,0,0c-0.2,0-0.4,0-0.5,0c-0.3,0-0.6,0.5-0.9,0.5c0.6,0,1.2,0,1.8-0.3
				c0.2-0.1,0.7-0.5,0.9-0.5c-0.2-0.1-0.4-0.1-0.6-0.1c-0.3,0.2-0.5,0.3-0.8,0.5c0.5-0.3,1-0.6,1.6-0.9C18,13,18,12.8,18,12.2
				c0-1.6,0.1-3.3,0.1-4.9c0-1.6-0.1-3.2-0.7-4.7c-0.3-0.7-0.8-1.2-1.5-1.4c-0.8-0.2-1.7-0.3-2.5-0.4C13.1,0.7,12.8,1.3,12.5,1.2
				L12.5,1.2z"/>
		</g>
	</g>
	<g class="st1">
		<g>
			<path class="st3" d="M8.5,12.1C8.7,11,8.8,9.9,9,8.8c0,0-0.1,0.1-0.1,0.1C8.7,8.9,8.6,8.9,8.5,9C8.4,9.1,8.3,9.1,8.2,9.2
				c0,0-0.1,0.1-0.1,0.1c-0.1,1.1-0.3,2.2-0.5,3.3c0,0,0.1-0.1,0.1-0.1c0.1-0.1,0.2-0.1,0.3-0.2c0.1-0.1,0.2-0.1,0.3-0.2
				C8.4,12.2,8.5,12.1,8.5,12.1L8.5,12.1z"/>
		</g>
	</g>
	<g class="st1">
		<g>
			<path class="st3" d="M7.8,8.8c0.1,1.2,0.1,2.4,0.1,3.5c0.3-0.2,0.6-0.3,0.9-0.5c-0.5-1.7-0.6-3.5-0.6-5.3c0-0.9,0.1-1.8,0.3-2.6
				c0.1-0.3,0.2-0.7,0.4-1C9,2.8,9.2,2.7,9.3,2.5c0.1-0.1,0.1-0.1,0.2-0.2C9.1,2.6,9,2.7,9.2,2.6c0.3-0.1,0.6-0.4,0.9-0.5
				C9.5,2.2,8.9,2.6,8.5,3c-0.8,0.7-1,1.7-1.1,2.7c-0.2,2.2-0.2,4.5,0.5,6.6c0-0.1,0.9-0.4,0.9-0.5c0-1.2,0-2.4-0.1-3.5
				C8.7,8.5,7.8,8.7,7.8,8.8L7.8,8.8z"/>
		</g>
	</g>
</g>
<g id="Layer_3">
	<g id="XMLID_1_">
		<g>
			<rect x="17" y="13" width="1" height="1"/>
			<rect x="17" y="12" width="1" height="1"/>
			<rect x="17" y="11" width="1" height="1"/>
			<rect x="17" y="10" width="1" height="1"/>
			<rect x="17" y="9" width="1" height="1"/>
			<rect x="17" y="8" width="1" height="1"/>
			<rect x="17" y="7" width="1" height="1"/>
			<rect x="17" y="6" width="1" height="1"/>
			<rect x="17" y="5" width="1" height="1"/>
			<rect x="17" y="4" width="1" height="1"/>
			<rect x="16" y="14" width="1" height="1"/>
			<rect x="16" y="13" class="st4" width="1" height="1"/>
			<rect x="16" y="12" class="st4" width="1" height="1"/>
			<rect x="16" y="11" class="st4" width="1" height="1"/>
			<rect x="16" y="10" class="st4" width="1" height="1"/>
			<rect x="16" y="9" class="st4" width="1" height="1"/>
			<rect x="16" y="8" class="st4" width="1" height="1"/>
			<rect x="16" y="7" class="st4" width="1" height="1"/>
			<rect x="16" y="6" class="st4" width="1" height="1"/>
			<rect x="16" y="5" class="st4" width="1" height="1"/>
			<rect x="16" y="4" class="st4" width="1" height="1"/>
			<rect x="16" y="3" width="1" height="1"/>
			<rect x="16" y="2" width="1" height="1"/>
			<rect x="15" y="15" width="1" height="1"/>
			<rect x="15" y="14" class="st4" width="1" height="1"/>
			<rect x="15" y="13" class="st5" width="1" height="1"/>
			<rect x="15" y="12" class="st5" width="1" height="1"/>
			<rect x="15" y="11" class="st5" width="1" height="1"/>
			<rect x="15" y="10" class="st5" width="1" height="1"/>
			<rect x="15" y="9" class="st5" width="1" height="1"/>
			<rect x="15" y="8" class="st5" width="1" height="1"/>
			<rect x="15" y="7" class="st5" width="1" height="1"/>
			<rect x="15" y="6" class="st5" width="1" height="1"/>
			<rect x="15" y="5" class="st5" width="1" height="1"/>
			<rect x="15" y="4" class="st5" width="1" height="1"/>
			<rect x="15" y="3" class="st5" width="1" height="1"/>
			<rect x="15" y="2" width="1" height="1"/>
			<rect x="14" y="15" width="1" height="1"/>
			<rect x="14" y="14" class="st5" width="1" height="1"/>
			<rect x="14" y="13" class="st4" width="1" height="1"/>
			<rect x="14" y="12" class="st4" width="1" height="1"/>
			<rect x="14" y="11" class="st4" width="1" height="1"/>
			<rect x="14" y="10" class="st4" width="1" height="1"/>
			<rect x="14" y="9" class="st4" width="1" height="1"/>
			<rect x="14" y="8" class="st4" width="1" height="1"/>
			<rect x="14" y="7" class="st4" width="1" height="1"/>
			<rect x="14" y="6" class="st4" width="1" height="1"/>
			<rect x="14" y="5" class="st4" width="1" height="1"/>
			<rect x="14" y="4" class="st4" width="1" height="1"/>
			<rect x="14" y="3" class="st5" width="1" height="1"/>
			<rect x="14" y="2" width="1" height="1"/>
			<rect x="13" y="21" width="1" height="1"/>
			<rect x="13" y="20" width="1" height="1"/>
			<rect x="13" y="19" width="1" height="1"/>
			<rect x="13" y="18" width="1" height="1"/>
			<rect x="13" y="17" width="1" height="1"/>
			<rect x="13" y="16" width="1" height="1"/>
			<rect x="13" y="15" width="1" height="1"/>
			<rect x="13" y="14" class="st5" width="1" height="1"/>
			<rect x="13" y="13" class="st4" width="1" height="1"/>
			<rect x="13" y="12" class="st4" width="1" height="1"/>
			<rect x="13" y="11" class="st4" width="1" height="1"/>
			<rect x="13" y="10" class="st4" width="1" height="1"/>
			<rect x="13" y="9" class="st4" width="1" height="1"/>
			<rect x="13" y="8" class="st4" width="1" height="1"/>
			<rect x="13" y="7" class="st4" width="1" height="1"/>
			<rect x="13" y="6" class="st4" width="1" height="1"/>
			<rect x="13" y="5" class="st4" width="1" height="1"/>
			<rect x="13" y="4" class="st5" width="1" height="1"/>
			<rect x="13" y="3" class="st5" width="1" height="1"/>
			<rect x="13" y="2" class="st4" width="1" height="1"/>
			<rect x="13" y="1" width="1" height="1"/>
			<rect x="12" y="22" width="1" height="1"/>
			<rect x="12" y="21" class="st6" width="1" height="1"/>
			<rect x="12" y="20" class="st6" width="1" height="1"/>
			<rect x="12" y="19" class="st6" width="1" height="1"/>
			<rect x="12" y="18" class="st6" width="1" height="1"/>
			<rect x="12" y="17" class="st7" width="1" height="1"/>
			<rect x="12" y="16" class="st7" width="1" height="1"/>
			<rect x="12" y="15" width="1" height="1"/>
			<rect x="12" y="14" class="st5" width="1" height="1"/>
			<rect x="12" y="13" class="st5" width="1" height="1"/>
			<rect x="12" y="12" class="st5" width="1" height="1"/>
			<rect x="12" y="11" class="st5" width="1" height="1"/>
			<rect x="12" y="10" class="st5" width="1" height="1"/>
			<rect x="12" y="9" class="st5" width="1" height="1"/>
			<rect x="12" y="8" class="st5" width="1" height="1"/>
			<rect x="12" y="7" class="st5" width="1" height="1"/>
			<rect x="12" y="6" class="st5" width="1" height="1"/>
			<rect x="12" y="5" class="st5" width="1" height="1"/>
			<rect x="12" y="4" class="st5" width="1" height="1"/>
			<rect x="12" y="3" class="st5" width="1" height="1"/>
			<rect x="12" y="2" class="st5" width="1" height="1"/>
			<rect x="12" y="1" width="1" height="1"/>
			<rect x="11" y="22" width="1" height="1"/>
			<rect x="11" y="21" class="st6" width="1" height="1"/>
			<rect x="11" y="20" class="st6" width="1" height="1"/>
			<rect x="11" y="19" class="st6" width="1" height="1"/>
			<rect x="11" y="18" class="st6" width="1" height="1"/>
			<rect x="11" y="17" class="st7" width="1" height="1"/>
			<rect x="11" y="16" class="st7" width="1" height="1"/>
			<rect x="11" y="15" width="1" height="1"/>
			<rect x="11" y="14" class="st5" width="1" height="1"/>
			<rect x="11" y="13" class="st5" width="1" height="1"/>
			<rect x="11" y="12" class="st5" width="1" height="1"/>
			<rect x="11" y="11" class="st5" width="1" height="1"/>
			<rect x="11" y="10" class="st5" width="1" height="1"/>
			<rect x="11" y="9" class="st5" width="1" height="1"/>
			<rect x="11" y="8" class="st5" width="1" height="1"/>
			<rect x="11" y="7" class="st5" width="1" height="1"/>
			<rect x="11" y="6" class="st5" width="1" height="1"/>
			<rect x="11" y="5" class="st5" width="1" height="1"/>
			<rect x="11" y="4" class="st5" width="1" height="1"/>
			<rect x="11" y="3" class="st5" width="1" height="1"/>
			<rect x="11" y="2" class="st5" width="1" height="1"/>
			<rect x="11" y="1" width="1" height="1"/>
			<rect x="10" y="21" width="1" height="1"/>
			<rect x="10" y="20" width="1" height="1"/>
			<rect x="10" y="19" width="1" height="1"/>
			<rect x="10" y="18" width="1" height="1"/>
			<rect x="10" y="17" width="1" height="1"/>
			<rect x="10" y="16" width="1" height="1"/>
			<rect x="10" y="15" width="1" height="1"/>
			<rect x="10" y="14" class="st5" width="1" height="1"/>
			<rect x="10" y="13" class="st4" width="1" height="1"/>
			<rect x="10" y="12" class="st4" width="1" height="1"/>
			<rect x="10" y="11" class="st5" width="1" height="1"/>
			<rect x="10" y="10" class="st4" width="1" height="1"/>
			<rect x="10" y="9" class="st4" width="1" height="1"/>
			<rect x="10" y="8" class="st4" width="1" height="1"/>
			<rect x="10" y="7" class="st4" width="1" height="1"/>
			<rect x="10" y="6" class="st4" width="1" height="1"/>
			<rect x="10" y="5" class="st4" width="1" height="1"/>
			<rect x="10" y="4" class="st4" width="1" height="1"/>
			<rect x="10" y="3" class="st5" width="1" height="1"/>
			<rect x="10" y="2" class="st4" width="1" height="1"/>
			<rect x="10" y="1" width="1" height="1"/>
			<rect x="9" y="15" width="1" height="1"/>
			<rect x="9" y="14" class="st5" width="1" height="1"/>
			<rect x="9" y="13" class="st4" width="1" height="1"/>
			<rect x="9" y="12" class="st4" width="1" height="1"/>
			<rect x="9" y="11" class="st4" width="1" height="1"/>
			<rect x="9" y="10" class="st4" width="1" height="1"/>
			<rect x="9" y="9" class="st4" width="1" height="1"/>
			<rect x="9" y="8" class="st4" width="1" height="1"/>
			<rect x="9" y="7" class="st4" width="1" height="1"/>
			<rect x="9" y="6" class="st4" width="1" height="1"/>
			<rect x="9" y="5" class="st4" width="1" height="1"/>
			<rect x="9" y="4" class="st4" width="1" height="1"/>
			<rect x="9" y="3" class="st5" width="1" height="1"/>
			<rect x="9" y="2" width="1" height="1"/>
			<rect x="8" y="15" width="1" height="1"/>
			<rect x="8" y="14" class="st4" width="1" height="1"/>
			<rect x="8" y="13" class="st5" width="1" height="1"/>
			<rect x="8" y="12" class="st5" width="1" height="1"/>
			<rect x="8" y="11" class="st5" width="1" height="1"/>
			<rect x="8" y="10" class="st5" width="1" height="1"/>
			<rect x="8" y="9" class="st5" width="1" height="1"/>
			<rect x="8" y="8" class="st5" width="1" height="1"/>
			<rect x="8" y="7" class="st5" width="1" height="1"/>
			<rect x="8" y="6" class="st5" width="1" height="1"/>
			<rect x="8" y="5" class="st5" width="1" height="1"/>
			<rect x="8" y="4" class="st5" width="1" height="1"/>
			<rect x="8" y="3" class="st4" width="1" height="1"/>
			<rect x="8" y="2" width="1" height="1"/>
			<rect x="7" y="14" width="1" height="1"/>
			<rect x="7" y="13" class="st4" width="1" height="1"/>
			<rect x="7" y="12" class="st4" width="1" height="1"/>
			<rect x="7" y="11" class="st4" width="1" height="1"/>
			<rect x="7" y="10" class="st4" width="1" height="1"/>
			<rect x="7" y="9" class="st4" width="1" height="1"/>
			<rect x="7" y="8" class="st4" width="1" height="1"/>
			<rect x="7" y="7" class="st4" width="1" height="1"/>
			<rect x="7" y="6" class="st4" width="1" height="1"/>
			<rect x="7" y="5" class="st4" width="1" height="1"/>
			<rect x="7" y="4" class="st4" width="1" height="1"/>
			<rect x="7" y="3" width="1" height="1"/>
			<rect x="6" y="13" width="1" height="1"/>
			<rect x="6" y="12" width="1" height="1"/>
			<rect x="6" y="11" width="1" height="1"/>
			<rect x="6" y="10" width="1" height="1"/>
			<rect x="6" y="9" width="1" height="1"/>
			<rect x="6" y="8" width="1" height="1"/>
			<rect x="6" y="7" width="1" height="1"/>
			<rect x="6" y="6" width="1" height="1"/>
			<rect x="6" y="5" width="1" height="1"/>
			<rect x="6" y="4" width="1" height="1"/>
		</g>
		<g>
		</g>
	</g>
</g>
</svg>
