<?xml version="1.0" encoding="utf-8"?>
<!-- Generator: Adobe Illustrator 23.1.1, SVG Export Plug-In . SVG Version: 6.00 Build 0)  -->
<svg version="1.1" xmlns="http://www.w3.org/2000/svg" xmlns:xlink="http://www.w3.org/1999/xlink" x="0px" y="0px"
	 viewBox="0 0 24 24" style="enable-background:new 0 0 24 24;" xml:space="preserve">
<style type="text/css">
	.st0{display:none;}
	.st1{fill:#813405;}
	.st2{fill:#F2D0A4;}
	.st3{fill:#AA7752;}
	.st4{fill:#020100;}
</style>
<g id="Layer_2" class="st0">
	
		<image style="display:inline;overflow:visible;" width="586" height="588" xlink:href="../../../../../../Pictures/Screenshots/Screen Shot 2019-11-23 at 11.57.49 AM.png"  transform="matrix(4.539517e-02 0 0 3.529800e-02 -1.3008 2.3848)">
	</image>
</g>
<g id="Layer_3">
	<g id="XMLID_1_">
		<g>
			<rect x="21" y="14" width="1" height="1"/>
			<rect x="21" y="13" width="1" height="1"/>
			<rect x="21" y="12" width="1" height="1"/>
			<rect x="21" y="11" width="1" height="1"/>
			<rect x="21" y="10" width="1" height="1"/>
			<rect x="21" y="9" width="1" height="1"/>
			<rect x="21" y="8" width="1" height="1"/>
			<rect x="21" y="7" width="1" height="1"/>
			<rect x="20" y="16" width="1" height="1"/>
			<rect x="20" y="15" width="1" height="1"/>
			<rect x="20" y="14" class="st1" width="1" height="1"/>
			<rect x="20" y="13" class="st1" width="1" height="1"/>
			<rect x="20" y="12" class="st2" width="1" height="1"/>
			<rect x="20" y="11" class="st1" width="1" height="1"/>
			<rect x="20" y="10" class="st3" width="1" height="1"/>
			<rect x="20" y="9" class="st3" width="1" height="1"/>
			<rect x="20" y="8" class="st3" width="1" height="1"/>
			<rect x="20" y="7" width="1" height="1"/>
			<rect x="20" y="6" width="1" height="1"/>
			<rect x="19" y="18" width="1" height="1"/>
			<rect x="19" y="17" width="1" height="1"/>
			<rect x="19" y="16" class="st1" width="1" height="1"/>
			<rect x="19" y="15" class="st1" width="1" height="1"/>
			<rect x="19" y="14" class="st1" width="1" height="1"/>
			<rect x="19" y="13" class="st1" width="1" height="1"/>
			<rect x="19" y="12" class="st1" width="1" height="1"/>
			<rect x="19" y="11" class="st1" width="1" height="1"/>
			<rect x="19" y="10" class="st1" width="1" height="1"/>
			<rect x="19" y="9" class="st2" width="1" height="1"/>
			<rect x="19" y="8" class="st3" width="1" height="1"/>
			<rect x="19" y="7" class="st3" width="1" height="1"/>
			<rect x="19" y="6" width="1" height="1"/>
			<rect x="19" y="5" width="1" height="1"/>
			<rect x="18" y="19" width="1" height="1"/>
			<rect x="18" y="18" class="st1" width="1" height="1"/>
			<rect x="18" y="17" width="1" height="1"/>
			<rect x="18" y="16" width="1" height="1"/>
			<rect x="18" y="15" class="st1" width="1" height="1"/>
			<rect x="18" y="14" class="st2" width="1" height="1"/>
			<rect x="18" y="13" class="st1" width="1" height="1"/>
			<rect x="18" y="12" class="st4" width="1" height="1"/>
			<rect x="18" y="11" width="1" height="1"/>
			<rect x="18" y="10" width="1" height="1"/>
			<rect x="18" y="9" width="1" height="1"/>
			<rect x="18" y="8" class="st1" width="1" height="1"/>
			<rect x="18" y="7" class="st3" width="1" height="1"/>
			<rect x="18" y="6" class="st2" width="1" height="1"/>
			<rect x="18" y="5" class="st3" width="1" height="1"/>
			<rect x="18" y="4" width="1" height="1"/>
			<rect x="17" y="19" width="1" height="1"/>
			<rect x="17" y="18" class="st1" width="1" height="1"/>
			<rect x="17" y="17" class="st1" width="1" height="1"/>
			<rect x="17" y="16" width="1" height="1"/>
			<rect x="17" y="15" width="1" height="1"/>
			<rect x="17" y="14" class="st1" width="1" height="1"/>
			<rect x="17" y="13" class="st4" width="1" height="1"/>
			<rect x="17" y="8" width="1" height="1"/>
			<rect x="17" y="7" class="st1" width="1" height="1"/>
			<rect x="17" y="6" class="st3" width="1" height="1"/>
			<rect x="17" y="5" class="st3" width="1" height="1"/>
			<rect x="17" y="4" width="1" height="1"/>
			<rect x="16" y="18" width="1" height="1"/>
			<rect x="16" y="17" class="st1" width="1" height="1"/>
			<rect x="16" y="16" class="st1" width="1" height="1"/>
			<rect x="16" y="15" class="st1" width="1" height="1"/>
			<rect x="16" y="14" width="1" height="1"/>
			<rect x="16" y="7" width="1" height="1"/>
			<rect x="16" y="6" class="st1" width="1" height="1"/>
			<rect x="16" y="5" class="st3" width="1" height="1"/>
			<rect x="16" y="4" width="1" height="1"/>
			<rect x="15" y="18" width="1" height="1"/>
			<rect x="15" y="17" width="1" height="1"/>
			<rect x="15" y="16" class="st2" width="1" height="1"/>
			<rect x="15" y="15" class="st3" width="1" height="1"/>
			<rect x="15" y="14" width="1" height="1"/>
			<rect x="15" y="13" width="1" height="1"/>
			<rect x="15" y="7" width="1" height="1"/>
			<rect x="15" y="6" class="st1" width="1" height="1"/>
			<rect x="15" y="5" class="st3" width="1" height="1"/>
			<rect x="15" y="4" width="1" height="1"/>
			<rect x="14" y="18" class="st4" width="1" height="1"/>
			<rect x="14" y="17" class="st1" width="1" height="1"/>
			<rect x="14" y="16" width="1" height="1"/>
			<rect x="14" y="15" class="st1" width="1" height="1"/>
			<rect x="14" y="14" class="st3" width="1" height="1"/>
			<rect x="14" y="13" width="1" height="1"/>
			<rect x="14" y="11" width="1" height="1"/>
			<rect x="14" y="10" width="1" height="1"/>
			<rect x="14" y="9" width="1" height="1"/>
			<rect x="14" y="8" width="1" height="1"/>
			<rect x="14" y="7" width="1" height="1"/>
			<rect x="14" y="6" width="1" height="1"/>
			<rect x="14" y="5" width="1" height="1"/>
			<rect x="13" y="18" class="st4" width="1" height="1"/>
			<rect x="13" y="17" class="st1" width="1" height="1"/>
			<rect x="13" y="16" class="st1" width="1" height="1"/>
			<rect x="13" y="15" width="1" height="1"/>
			<rect x="13" y="14" class="st3" width="1" height="1"/>
			<rect x="13" y="13" class="st3" width="1" height="1"/>
			<rect x="13" y="12" width="1" height="1"/>
			<rect x="13" y="11" class="st1" width="1" height="1"/>
			<rect x="13" y="10" class="st1" width="1" height="1"/>
			<rect x="13" y="9" class="st2" width="1" height="1"/>
			<rect x="13" y="8" class="st1" width="1" height="1"/>
			<rect x="13" y="7" class="st1" width="1" height="1"/>
			<rect x="13" y="6" width="1" height="1"/>
			<rect x="12" y="18" class="st4" width="1" height="1"/>
			<rect x="12" y="17" class="st2" width="1" height="1"/>
			<rect x="12" y="16" class="st1" width="1" height="1"/>
			<rect x="12" y="15" width="1" height="1"/>
			<rect x="12" y="14" class="st1" width="1" height="1"/>
			<rect x="12" y="13" class="st2" width="1" height="1"/>
			<rect x="12" y="12" class="st3" width="1" height="1"/>
			<rect x="12" y="11" width="1" height="1"/>
			<rect x="12" y="10" class="st1" width="1" height="1"/>
			<rect x="12" y="9" class="st1" width="1" height="1"/>
			<rect x="12" y="8" class="st1" width="1" height="1"/>
			<rect x="12" y="7" class="st3" width="1" height="1"/>
			<rect x="12" y="6" class="st3" width="1" height="1"/>
			<rect x="12" y="5" width="1" height="1"/>
			<rect x="11" y="18" class="st4" width="1" height="1"/>
			<rect x="11" y="17" class="st1" width="1" height="1"/>
			<rect x="11" y="16" class="st1" width="1" height="1"/>
			<rect x="11" y="15" width="1" height="1"/>
			<rect x="11" y="14" width="1" height="1"/>
			<rect x="11" y="13" class="st1" width="1" height="1"/>
			<rect x="11" y="12" class="st3" width="1" height="1"/>
			<rect x="11" y="11" class="st3" width="1" height="1"/>
			<rect x="11" y="10" width="1" height="1"/>
			<rect x="11" y="9" width="1" height="1"/>
			<rect x="11" y="8" width="1" height="1"/>
			<rect x="11" y="7" class="st1" width="1" height="1"/>
			<rect x="11" y="6" class="st2" width="1" height="1"/>
			<rect x="11" y="5" class="st3" width="1" height="1"/>
			<rect x="11" y="4" width="1" height="1"/>
			<rect x="10" y="18" class="st4" width="1" height="1"/>
			<rect x="10" y="17" class="st1" width="1" height="1"/>
			<rect x="10" y="16" width="1" height="1"/>
			<rect x="10" y="15" width="1" height="1"/>
			<rect x="10" y="14" width="1" height="1"/>
			<rect x="10" y="13" width="1" height="1"/>
			<rect x="10" y="12" class="st1" width="1" height="1"/>
			<rect x="10" y="11" class="st3" width="1" height="1"/>
			<rect x="10" y="10" class="st3" width="1" height="1"/>
			<rect x="10" y="9" class="st1" width="1" height="1"/>
			<rect x="10" y="8" width="1" height="1"/>
			<rect x="10" y="7" width="1" height="1"/>
			<rect x="10" y="6" class="st1" width="1" height="1"/>
			<rect x="10" y="5" class="st3" width="1" height="1"/>
			<rect x="10" y="4" width="1" height="1"/>
			<rect x="9" y="18" width="1" height="1"/>
			<rect x="9" y="17" width="1" height="1"/>
			<rect x="9" y="16" width="1" height="1"/>
			<rect x="9" y="15" class="st2" width="1" height="1"/>
			<rect x="9" y="14" class="st1" width="1" height="1"/>
			<rect x="9" y="13" width="1" height="1"/>
			<rect x="9" y="12" width="1" height="1"/>
			<rect x="9" y="11" width="1" height="1"/>
			<rect x="9" y="10" width="1" height="1"/>
			<rect x="9" y="9" width="1" height="1"/>
			<rect x="9" y="8" width="1" height="1"/>
			<rect x="9" y="7" width="1" height="1"/>
			<rect x="9" y="6" class="st1" width="1" height="1"/>
			<rect x="9" y="5" class="st3" width="1" height="1"/>
			<rect x="9" y="4" width="1" height="1"/>
			<rect x="8" y="19" width="1" height="1"/>
			<rect x="8" y="18" width="1" height="1"/>
			<rect x="8" y="17" class="st1" width="1" height="1"/>
			<rect x="8" y="16" class="st3" width="1" height="1"/>
			<rect x="8" y="15" class="st3" width="1" height="1"/>
			<rect x="8" y="14" width="1" height="1"/>
			<rect x="8" y="13" width="1" height="1"/>
			<rect x="8" y="7" width="1" height="1"/>
			<rect x="8" y="6" class="st1" width="1" height="1"/>
			<rect x="8" y="5" class="st3" width="1" height="1"/>
			<rect x="8" y="4" width="1" height="1"/>
			<rect x="7" y="19" width="1" height="1"/>
			<rect x="7" y="18" class="st1" width="1" height="1"/>
			<rect x="7" y="17" class="st2" width="1" height="1"/>
			<rect x="7" y="16" width="1" height="1"/>
			<rect x="7" y="15" width="1" height="1"/>
			<rect x="7" y="14" width="1" height="1"/>
			<rect x="7" y="8" width="1" height="1"/>
			<rect x="7" y="7" width="1" height="1"/>
			<rect x="7" y="6" class="st3" width="1" height="1"/>
			<rect x="7" y="5" class="st3" width="1" height="1"/>
			<rect x="7" y="4" width="1" height="1"/>
			<rect x="6" y="18" width="1" height="1"/>
			<rect x="6" y="17" width="1" height="1"/>
			<rect x="6" y="16" class="st1" width="1" height="1"/>
			<rect x="6" y="15" class="st1" width="1" height="1"/>
			<rect x="6" y="14" width="1" height="1"/>
			<rect x="6" y="13" width="1" height="1"/>
			<rect x="6" y="9" width="1" height="1"/>
			<rect x="6" y="8" width="1" height="1"/>
			<rect x="6" y="7" class="st3" width="1" height="1"/>
			<rect x="6" y="6" class="st3" width="1" height="1"/>
			<rect x="6" y="5" width="1" height="1"/>
			<rect x="5" y="17" width="1" height="1"/>
			<rect x="5" y="16" width="1" height="1"/>
			<rect x="5" y="15" class="st1" width="1" height="1"/>
			<rect x="5" y="14" class="st1" width="1" height="1"/>
			<rect x="5" y="13" width="1" height="1"/>
			<rect x="5" y="12" width="1" height="1"/>
			<rect x="5" y="11" width="1" height="1"/>
			<rect x="5" y="10" width="1" height="1"/>
			<rect x="5" y="9" width="1" height="1"/>
			<rect x="5" y="8" class="st1" width="1" height="1"/>
			<rect x="5" y="7" class="st2" width="1" height="1"/>
			<rect x="5" y="6" class="st3" width="1" height="1"/>
			<rect x="5" y="5" width="1" height="1"/>
			<rect x="4" y="16" width="1" height="1"/>
			<rect x="4" y="15" class="st1" width="1" height="1"/>
			<rect x="4" y="14" class="st2" width="1" height="1"/>
			<rect x="4" y="13" class="st1" width="1" height="1"/>
			<rect x="4" y="12" class="st1" width="1" height="1"/>
			<rect x="4" y="11" class="st1" width="1" height="1"/>
			<rect x="4" y="10" class="st1" width="1" height="1"/>
			<rect x="4" y="9" class="st3" width="1" height="1"/>
			<rect x="4" y="8" class="st3" width="1" height="1"/>
			<rect x="4" y="7" class="st3" width="1" height="1"/>
			<rect x="4" y="6" width="1" height="1"/>
			<rect x="3" y="15" width="1" height="1"/>
			<rect x="3" y="14" width="1" height="1"/>
			<rect x="3" y="13" class="st1" width="1" height="1"/>
			<rect x="3" y="12" class="st1" width="1" height="1"/>
			<rect x="3" y="11" class="st3" width="1" height="1"/>
			<rect x="3" y="10" class="st3" width="1" height="1"/>
			<rect x="3" y="9" class="st3" width="1" height="1"/>
			<rect x="3" y="8" width="1" height="1"/>
			<rect x="3" y="7" width="1" height="1"/>
			<rect x="2" y="13" width="1" height="1"/>
			<rect x="2" y="12" width="1" height="1"/>
			<rect x="2" y="11" width="1" height="1"/>
			<rect x="2" y="10" width="1" height="1"/>
			<rect x="2" y="9" width="1" height="1"/>
		</g>
		<g>
		</g>
	</g>
</g>
</svg>
