<?xml version="1.0" encoding="utf-8"?>
<!-- Generator: Adobe Illustrator 23.1.1, SVG Export Plug-In . SVG Version: 6.00 Build 0)  -->
<svg version="1.1" id="Layer_3" xmlns="http://www.w3.org/2000/svg" xmlns:xlink="http://www.w3.org/1999/xlink" x="0px" y="0px"
	 viewBox="0 0 24 24" style="enable-background:new 0 0 24 24;" xml:space="preserve">
<style type="text/css">
	.st0{fill:#F2D0A4;}
	.st1{fill:#666666;}
	.st2{fill:#BEBBBB;}
	.st3{fill:#FFFFFF;}
</style>
<g id="XMLID_1_">
	<g>
		<rect x="19" y="10" width="1" height="1"/>
		<rect x="18" y="7" class="st0" width="1" height="1"/>
		<rect x="20" y="5" class="st0" width="1" height="1"/>
		<rect x="22" y="4" width="1" height="1"/>
		<rect x="23" y="3" width="1" height="1"/>
		<rect x="23" y="2" width="1" height="1"/>
		<rect x="22" y="3" class="st0" width="1" height="1"/>
		<rect x="22" y="2" width="1" height="1"/>
		<rect x="21" y="15" width="1" height="1"/>
		<rect x="21" y="14" width="1" height="1"/>
		<rect x="21" y="13" width="1" height="1"/>
		<rect x="21" y="5" width="1" height="1"/>
		<rect x="21" y="4" class="st0" width="1" height="1"/>
		<rect x="21" y="3" width="1" height="1"/>
		<rect x="20" y="17" width="1" height="1"/>
		<rect x="20" y="16" width="1" height="1"/>
		<rect x="20" y="15" class="st1" width="1" height="1"/>
		<rect x="20" y="14" class="st2" width="1" height="1"/>
		<rect x="20" y="13" width="1" height="1"/>
		<rect x="20" y="12" width="1" height="1"/>
		<rect x="20" y="11" width="1" height="1"/>
		<rect x="20" y="6" width="1" height="1"/>
		<rect x="20" y="4" width="1" height="1"/>
		<rect x="20" y="2" width="1" height="1"/>
		<rect x="20" y="1" width="1" height="1"/>
		<rect x="20" width="1" height="1"/>
		<rect x="19" y="18" width="1" height="1"/>
		<rect x="19" y="17" class="st1" width="1" height="1"/>
		<rect x="19" y="16" class="st1" width="1" height="1"/>
		<rect x="19" y="15" class="st1" width="1" height="1"/>
		<rect x="19" y="14" class="st2" width="1" height="1"/>
		<rect x="19" y="13" width="1" height="1"/>
		<rect x="19" y="12" class="st3" width="1" height="1"/>
		<rect x="19" y="11" class="st3" width="1" height="1"/>
		<rect x="19" y="9" width="1" height="1"/>
		<rect x="19" y="7" width="1" height="1"/>
		<rect x="19" y="6" class="st0" width="1" height="1"/>
		<rect x="19" y="5" width="1" height="1"/>
		<rect x="19" y="3" width="1" height="1"/>
		<rect x="19" y="2" width="1" height="1"/>
		<rect x="19" y="1" class="st0" width="1" height="1"/>
		<rect x="19" width="1" height="1"/>
		<rect x="18" y="19" width="1" height="1"/>
		<rect x="18" y="18" class="st1" width="1" height="1"/>
		<rect x="18" y="17" class="st1" width="1" height="1"/>
		<rect x="18" y="16" class="st1" width="1" height="1"/>
		<rect x="18" y="15" class="st1" width="1" height="1"/>
		<rect x="18" y="14" class="st2" width="1" height="1"/>
		<rect x="18" y="13" width="1" height="1"/>
		<rect x="18" y="12" class="st3" width="1" height="1"/>
		<rect x="18" y="11" class="st3" width="1" height="1"/>
		<rect x="18" y="10" class="st3" width="1" height="1"/>
		<rect x="18" y="9" width="1" height="1"/>
		<rect x="18" y="8" width="1" height="1"/>
		<rect x="18" y="6" width="1" height="1"/>
		<rect x="18" y="5" width="1" height="1"/>
		<rect x="18" y="4" width="1" height="1"/>
		<rect x="18" y="3" class="st0" width="1" height="1"/>
		<rect x="18" y="2" class="st0" width="1" height="1"/>
		<rect x="18" y="1" width="1" height="1"/>
		<rect x="17" y="20" width="1" height="1"/>
		<rect x="17" y="19" class="st1" width="1" height="1"/>
		<rect x="17" y="18" class="st1" width="1" height="1"/>
		<rect x="17" y="17" class="st1" width="1" height="1"/>
		<rect x="17" y="16" class="st1" width="1" height="1"/>
		<rect x="17" y="15" class="st1" width="1" height="1"/>
		<rect x="17" y="14" class="st2" width="1" height="1"/>
		<rect x="17" y="13" width="1" height="1"/>
		<rect x="17" y="12" class="st3" width="1" height="1"/>
		<rect x="17" y="11" class="st3" width="1" height="1"/>
		<rect x="17" y="10" class="st3" width="1" height="1"/>
		<rect x="17" y="9" width="1" height="1"/>
		<rect x="17" y="8" class="st0" width="1" height="1"/>
		<rect x="17" y="7" width="1" height="1"/>
		<rect x="17" y="6" width="1" height="1"/>
		<rect x="17" y="5" width="1" height="1"/>
		<rect x="17" y="4" class="st0" width="1" height="1"/>
		<rect x="17" y="3" width="1" height="1"/>
		<rect x="17" y="2" width="1" height="1"/>
		<rect x="16" y="20" width="1" height="1"/>
		<rect x="16" y="19" class="st1" width="1" height="1"/>
		<rect x="16" y="18" class="st1" width="1" height="1"/>
		<rect x="16" y="17" class="st1" width="1" height="1"/>
		<rect x="16" y="16" class="st1" width="1" height="1"/>
		<rect x="16" y="15" class="st1" width="1" height="1"/>
		<rect x="16" y="14" class="st2" width="1" height="1"/>
		<rect x="16" y="13" width="1" height="1"/>
		<rect x="16" y="12" class="st3" width="1" height="1"/>
		<rect x="16" y="11" class="st3" width="1" height="1"/>
		<rect x="16" y="10" width="1" height="1"/>
		<rect x="16" y="9" class="st0" width="1" height="1"/>
		<rect x="16" y="8" width="1" height="1"/>
		<rect x="16" y="7" width="1" height="1"/>
		<rect x="16" y="6" class="st0" width="1" height="1"/>
		<rect x="16" y="5" class="st0" width="1" height="1"/>
		<rect x="16" y="4" width="1" height="1"/>
		<rect x="15" y="22" width="1" height="1"/>
		<rect x="15" y="21" width="1" height="1"/>
		<rect x="15" y="20" width="1" height="1"/>
		<rect x="15" y="19" class="st1" width="1" height="1"/>
		<rect x="15" y="18" class="st1" width="1" height="1"/>
		<rect x="15" y="17" class="st1" width="1" height="1"/>
		<rect x="15" y="16" class="st1" width="1" height="1"/>
		<rect x="15" y="15" class="st1" width="1" height="1"/>
		<rect x="15" y="14" class="st2" width="1" height="1"/>
		<rect x="15" y="13" width="1" height="1"/>
		<rect x="15" y="12" class="st3" width="1" height="1"/>
		<rect x="15" y="11" class="st3" width="1" height="1"/>
		<rect x="15" y="9" width="1" height="1"/>
		<rect x="15" y="8" width="1" height="1"/>
		<rect x="15" y="7" class="st0" width="1" height="1"/>
		<rect x="15" y="6" width="1" height="1"/>
		<rect x="15" y="5" width="1" height="1"/>
		<rect x="14" y="22" width="1" height="1"/>
		<rect x="14" y="21" class="st2" width="1" height="1"/>
		<rect x="14" y="20" width="1" height="1"/>
		<rect x="14" y="19" class="st1" width="1" height="1"/>
		<rect x="14" y="18" class="st1" width="1" height="1"/>
		<rect x="14" y="17" class="st1" width="1" height="1"/>
		<rect x="14" y="16" class="st1" width="1" height="1"/>
		<rect x="14" y="15" class="st1" width="1" height="1"/>
		<rect x="14" y="14" class="st2" width="1" height="1"/>
		<rect x="14" y="13" width="1" height="1"/>
		<rect x="14" y="12" class="st3" width="1" height="1"/>
		<rect x="14" y="11" class="st3" width="1" height="1"/>
		<rect x="14" y="10" class="st3" width="1" height="1"/>
		<rect x="14" y="9" class="st3" width="1" height="1"/>
		<rect x="14" y="7" width="1" height="1"/>
		<rect x="14" y="6" class="st3" width="1" height="1"/>
		<rect x="14" y="5" width="1" height="1"/>
		<rect x="13" y="22" width="1" height="1"/>
		<rect x="13" y="21" class="st2" width="1" height="1"/>
		<rect x="13" y="20" width="1" height="1"/>
		<rect x="13" y="19" class="st1" width="1" height="1"/>
		<rect x="13" y="18" class="st1" width="1" height="1"/>
		<rect x="13" y="17" class="st1" width="1" height="1"/>
		<rect x="13" y="16" class="st1" width="1" height="1"/>
		<rect x="13" y="15" class="st1" width="1" height="1"/>
		<rect x="13" y="14" class="st2" width="1" height="1"/>
		<rect x="13" y="13" width="1" height="1"/>
		<rect x="13" y="12" class="st3" width="1" height="1"/>
		<rect x="13" y="11" class="st3" width="1" height="1"/>
		<rect x="13" y="10" class="st3" width="1" height="1"/>
		<rect x="13" y="9" class="st3" width="1" height="1"/>
		<rect x="13" y="8" class="st3" width="1" height="1"/>
		<rect x="13" y="7" class="st3" width="1" height="1"/>
		<rect x="13" y="6" class="st3" width="1" height="1"/>
		<rect x="13" y="5" width="1" height="1"/>
		<rect x="12" y="22" width="1" height="1"/>
		<rect x="12" y="21" class="st2" width="1" height="1"/>
		<rect x="12" y="20" width="1" height="1"/>
		<rect x="12" y="19" class="st1" width="1" height="1"/>
		<rect x="12" y="18" class="st1" width="1" height="1"/>
		<rect x="12" y="17" class="st1" width="1" height="1"/>
		<rect x="12" y="16" class="st1" width="1" height="1"/>
		<rect x="12" y="15" class="st1" width="1" height="1"/>
		<rect x="12" y="14" class="st2" width="1" height="1"/>
		<rect x="12" y="13" width="1" height="1"/>
		<rect x="12" y="12" class="st3" width="1" height="1"/>
		<rect x="12" y="11" class="st3" width="1" height="1"/>
		<rect x="12" y="10" class="st3" width="1" height="1"/>
		<rect x="12" y="9" class="st3" width="1" height="1"/>
		<rect x="12" y="8" class="st3" width="1" height="1"/>
		<rect x="12" y="7" class="st3" width="1" height="1"/>
		<rect x="12" y="6" class="st3" width="1" height="1"/>
		<rect x="12" y="5" width="1" height="1"/>
		<rect x="11" y="22" width="1" height="1"/>
		<rect x="11" y="21" class="st2" width="1" height="1"/>
		<rect x="11" y="20" width="1" height="1"/>
		<rect x="11" y="19" class="st1" width="1" height="1"/>
		<rect x="11" y="18" class="st1" width="1" height="1"/>
		<rect x="11" y="17" class="st1" width="1" height="1"/>
		<rect x="11" y="16" class="st1" width="1" height="1"/>
		<rect x="11" y="15" class="st1" width="1" height="1"/>
		<rect x="11" y="14" class="st2" width="1" height="1"/>
		<rect x="11" y="13" width="1" height="1"/>
		<rect x="11" y="12" class="st3" width="1" height="1"/>
		<rect x="11" y="11" class="st3" width="1" height="1"/>
		<rect x="11" y="10" class="st3" width="1" height="1"/>
		<rect x="11" y="9" class="st3" width="1" height="1"/>
		<rect x="11" y="8" class="st3" width="1" height="1"/>
		<rect x="11" y="7" class="st3" width="1" height="1"/>
		<rect x="11" y="6" class="st3" width="1" height="1"/>
		<rect x="11" y="5" width="1" height="1"/>
		<rect x="10" y="22" width="1" height="1"/>
		<rect x="10" y="21" class="st2" width="1" height="1"/>
		<rect x="10" y="20" width="1" height="1"/>
		<rect x="10" y="19" class="st1" width="1" height="1"/>
		<rect x="10" y="18" class="st1" width="1" height="1"/>
		<rect x="10" y="17" class="st1" width="1" height="1"/>
		<rect x="10" y="16" class="st1" width="1" height="1"/>
		<rect x="10" y="15" class="st1" width="1" height="1"/>
		<rect x="10" y="14" class="st2" width="1" height="1"/>
		<rect x="10" y="13" width="1" height="1"/>
		<rect x="10" y="12" class="st3" width="1" height="1"/>
		<rect x="10" y="11" class="st3" width="1" height="1"/>
		<rect x="10" y="10" class="st3" width="1" height="1"/>
		<rect x="10" y="9" class="st3" width="1" height="1"/>
		<rect x="10" y="8" class="st3" width="1" height="1"/>
		<rect x="10" y="7" class="st3" width="1" height="1"/>
		<rect x="10" y="6" class="st3" width="1" height="1"/>
		<rect x="10" y="5" width="1" height="1"/>
		<rect x="9" y="22" width="1" height="1"/>
		<rect x="9" y="21" class="st2" width="1" height="1"/>
		<rect x="9" y="20" width="1" height="1"/>
		<rect x="9" y="19" class="st1" width="1" height="1"/>
		<rect x="9" y="18" class="st1" width="1" height="1"/>
		<rect x="9" y="17" class="st1" width="1" height="1"/>
		<rect x="9" y="16" class="st1" width="1" height="1"/>
		<rect x="9" y="15" class="st1" width="1" height="1"/>
		<rect x="9" y="14" class="st2" width="1" height="1"/>
		<rect x="9" y="13" width="1" height="1"/>
		<rect x="9" y="12" class="st3" width="1" height="1"/>
		<rect x="9" y="11" class="st3" width="1" height="1"/>
		<rect x="9" y="10" class="st3" width="1" height="1"/>
		<rect x="9" y="9" class="st3" width="1" height="1"/>
		<rect x="9" y="8" class="st3" width="1" height="1"/>
		<rect x="9" y="7" class="st3" width="1" height="1"/>
		<rect x="9" y="6" class="st3" width="1" height="1"/>
		<rect x="9" y="5" width="1" height="1"/>
		<rect x="8" y="22" width="1" height="1"/>
		<rect x="8" y="21" width="1" height="1"/>
		<rect x="8" y="20" width="1" height="1"/>
		<rect x="8" y="19" class="st1" width="1" height="1"/>
		<rect x="8" y="18" class="st1" width="1" height="1"/>
		<rect x="8" y="17" class="st1" width="1" height="1"/>
		<rect x="8" y="16" class="st1" width="1" height="1"/>
		<rect x="8" y="15" class="st1" width="1" height="1"/>
		<rect x="8" y="14" class="st2" width="1" height="1"/>
		<rect x="8" y="13" width="1" height="1"/>
		<rect x="8" y="12" class="st3" width="1" height="1"/>
		<rect x="8" y="11" class="st3" width="1" height="1"/>
		<rect x="8" y="10" class="st3" width="1" height="1"/>
		<rect x="8" y="9" class="st3" width="1" height="1"/>
		<rect x="8" y="8" class="st3" width="1" height="1"/>
		<rect x="8" y="7" class="st3" width="1" height="1"/>
		<rect x="8" y="6" width="1" height="1"/>
		<rect x="7" y="20" width="1" height="1"/>
		<rect x="7" y="19" class="st1" width="1" height="1"/>
		<rect x="7" y="18" class="st1" width="1" height="1"/>
		<rect x="7" y="17" class="st1" width="1" height="1"/>
		<rect x="7" y="16" class="st1" width="1" height="1"/>
		<rect x="7" y="15" class="st1" width="1" height="1"/>
		<rect x="7" y="14" class="st2" width="1" height="1"/>
		<rect x="7" y="13" width="1" height="1"/>
		<rect x="7" y="12" class="st3" width="1" height="1"/>
		<rect x="7" y="11" class="st3" width="1" height="1"/>
		<rect x="7" y="10" class="st3" width="1" height="1"/>
		<rect x="7" y="9" class="st3" width="1" height="1"/>
		<rect x="7" y="8" class="st3" width="1" height="1"/>
		<rect x="7" y="7" class="st3" width="1" height="1"/>
		<rect x="7" y="6" width="1" height="1"/>
		<rect x="6" y="20" width="1" height="1"/>
		<rect x="6" y="19" class="st1" width="1" height="1"/>
		<rect x="6" y="18" class="st1" width="1" height="1"/>
		<rect x="6" y="17" class="st1" width="1" height="1"/>
		<rect x="6" y="16" class="st1" width="1" height="1"/>
		<rect x="6" y="15" class="st1" width="1" height="1"/>
		<rect x="6" y="14" class="st2" width="1" height="1"/>
		<rect x="6" y="13" width="1" height="1"/>
		<rect x="6" y="12" class="st3" width="1" height="1"/>
		<rect x="6" y="11" class="st3" width="1" height="1"/>
		<rect x="6" y="10" class="st3" width="1" height="1"/>
		<rect x="6" y="9" class="st3" width="1" height="1"/>
		<rect x="6" y="8" class="st3" width="1" height="1"/>
		<rect x="6" y="7" width="1" height="1"/>
		<rect x="5" y="19" width="1" height="1"/>
		<rect x="5" y="18" class="st1" width="1" height="1"/>
		<rect x="5" y="17" class="st1" width="1" height="1"/>
		<rect x="5" y="16" class="st1" width="1" height="1"/>
		<rect x="5" y="15" class="st1" width="1" height="1"/>
		<rect x="5" y="14" class="st2" width="1" height="1"/>
		<rect x="5" y="13" width="1" height="1"/>
		<rect x="5" y="12" class="st3" width="1" height="1"/>
		<rect x="5" y="11" class="st3" width="1" height="1"/>
		<rect x="5" y="10" class="st3" width="1" height="1"/>
		<rect x="5" y="9" class="st3" width="1" height="1"/>
		<rect x="5" y="8" width="1" height="1"/>
		<rect x="5" y="7" width="1" height="1"/>
		<rect x="4" y="18" width="1" height="1"/>
		<rect x="4" y="17" class="st1" width="1" height="1"/>
		<rect x="4" y="16" class="st1" width="1" height="1"/>
		<rect x="4" y="15" class="st1" width="1" height="1"/>
		<rect x="4" y="14" class="st2" width="1" height="1"/>
		<rect x="4" y="13" width="1" height="1"/>
		<rect x="4" y="12" class="st3" width="1" height="1"/>
		<rect x="4" y="11" class="st3" width="1" height="1"/>
		<rect x="4" y="10" width="1" height="1"/>
		<rect x="4" y="9" width="1" height="1"/>
		<rect x="3" y="17" width="1" height="1"/>
		<rect x="3" y="16" width="1" height="1"/>
		<rect x="3" y="15" class="st1" width="1" height="1"/>
		<rect x="3" y="14" class="st2" width="1" height="1"/>
		<rect x="3" y="13" width="1" height="1"/>
		<rect x="3" y="12" width="1" height="1"/>
		<rect x="3" y="11" width="1" height="1"/>
		<rect x="2" y="15" width="1" height="1"/>
		<rect x="2" y="14" width="1" height="1"/>
		<rect x="2" y="13" width="1" height="1"/>
	</g>
	<g>
	</g>
</g>
</svg>
