<?xml version="1.0" encoding="utf-8"?>
<!-- Generator: Adobe Illustrator 23.1.1, SVG Export Plug-In . SVG Version: 6.00 Build 0)  -->
<svg version="1.1" xmlns="http://www.w3.org/2000/svg" xmlns:xlink="http://www.w3.org/1999/xlink" x="0px" y="0px"
	 viewBox="0 0 24 24" style="enable-background:new 0 0 24 24;" xml:space="preserve">
<style type="text/css">
	.st0{display:none;}
	.st1{fill:#5DA043;}
	.st2{fill:#84732B;}
	.st3{fill:#AD2E24;}
	.st4{fill:#AE2E25;}
	.st5{fill:#CC434E;}
	.st6{fill:#EFF0D1;}
</style>
<g id="Layer_1" class="st0">
</g>
<g id="Layer_3" class="st0">
	
		<image style="display:inline;overflow:visible;" width="376" height="364" xlink:href="../../../../../../Pictures/Screenshots/Screen Shot 2019-11-13 at 1.53.54 PM.png"  transform="matrix(9.000000e-02 0 0 9.000000e-02 -5.92 -3.1953)">
	</image>
</g>
<g id="Layer_2">
	<g id="XMLID_1_">
		<g>
			<rect x="3" y="8" width="1" height="1"/>
			<rect x="5" y="2" width="1" height="1"/>
			<rect x="4" y="2" width="1" height="1"/>
			<rect x="14" y="3" width="1" height="1"/>
			<rect x="13" y="3" width="1" height="1"/>
			<rect x="6" y="3" width="1" height="1"/>
			<rect x="5" y="3" class="st1" width="1" height="1"/>
			<rect x="4" y="3" class="st2" width="1" height="1"/>
			<rect x="3" y="3" width="1" height="1"/>
			<rect x="16" y="4" width="1" height="1"/>
			<rect x="15" y="4" width="1" height="1"/>
			<rect x="14" y="4" width="1" height="1"/>
			<rect x="13" y="4" class="st1" width="1" height="1"/>
			<rect x="12" y="4" width="1" height="1"/>
			<rect x="11" y="4" width="1" height="1"/>
			<rect x="7" y="4" width="1" height="1"/>
			<rect x="6" y="4" class="st1" width="1" height="1"/>
			<rect x="5" y="4" class="st2" width="1" height="1"/>
			<rect x="4" y="4" width="1" height="1"/>
			<rect x="18" y="5" width="1" height="1"/>
			<rect x="17" y="5" width="1" height="1"/>
			<rect x="16" y="5" width="1" height="1"/>
			<rect x="15" y="5" class="st2" width="1" height="1"/>
			<rect x="14" y="5" class="st2" width="1" height="1"/>
			<rect x="13" y="5" class="st1" width="1" height="1"/>
			<rect x="12" y="5" class="st1" width="1" height="1"/>
			<rect x="11" y="5" width="1" height="1"/>
			<rect x="10" y="5" width="1" height="1"/>
			<rect x="9" y="5" width="1" height="1"/>
			<rect x="8" y="5" width="1" height="1"/>
			<rect x="7" y="5" class="st1" width="1" height="1"/>
			<rect x="6" y="5" class="st2" width="1" height="1"/>
			<rect x="5" y="5" width="1" height="1"/>
			<rect x="18" y="6" width="1" height="1"/>
			<rect x="17" y="6" class="st3" width="1" height="1"/>
			<rect x="16" y="6" class="st4" width="1" height="1"/>
			<rect x="15" y="6" width="1" height="1"/>
			<rect x="14" y="6" width="1" height="1"/>
			<rect x="13" y="6" width="1" height="1"/>
			<rect x="12" y="6" class="st2" width="1" height="1"/>
			<rect x="11" y="6" class="st1" width="1" height="1"/>
			<rect x="10" y="6" class="st1" width="1" height="1"/>
			<rect x="9" y="6" class="st1" width="1" height="1"/>
			<rect x="8" y="6" class="st1" width="1" height="1"/>
			<rect x="7" y="6" class="st2" width="1" height="1"/>
			<rect x="6" y="6" width="1" height="1"/>
			<rect x="19" y="7" width="1" height="1"/>
			<rect x="18" y="7" class="st3" width="1" height="1"/>
			<rect x="17" y="7" class="st3" width="1" height="1"/>
			<rect x="16" y="7" class="st3" width="1" height="1"/>
			<rect x="15" y="7" class="st4" width="1" height="1"/>
			<rect x="14" y="7" class="st5" width="1" height="1"/>
			<rect x="13" y="7" class="st5" width="1" height="1"/>
			<rect x="12" y="7" width="1" height="1"/>
			<rect x="11" y="7" width="1" height="1"/>
			<rect x="10" y="7" class="st1" width="1" height="1"/>
			<rect x="9" y="7" class="st1" width="1" height="1"/>
			<rect x="8" y="7" class="st1" width="1" height="1"/>
			<rect x="7" y="7" width="1" height="1"/>
			<rect x="6" y="7" width="1" height="1"/>
			<rect x="5" y="7" width="1" height="1"/>
			<rect x="4" y="7" width="1" height="1"/>
			<rect x="19" y="8" width="1" height="1"/>
			<rect x="18" y="8" class="st3" width="1" height="1"/>
			<rect x="17" y="8" class="st3" width="1" height="1"/>
			<rect x="16" y="8" class="st5" width="1" height="1"/>
			<rect x="15" y="8" class="st5" width="1" height="1"/>
			<rect x="14" y="8" class="st5" width="1" height="1"/>
			<rect x="13" y="8" class="st5" width="1" height="1"/>
			<rect x="12" y="8" width="1" height="1"/>
			<rect x="11" y="8" class="st1" width="1" height="1"/>
			<rect x="10" y="8" class="st2" width="1" height="1"/>
			<rect x="9" y="8" class="st2" width="1" height="1"/>
			<rect x="8" y="8" class="st2" width="1" height="1"/>
			<rect x="7" y="8" class="st1" width="1" height="1"/>
			<rect x="6" y="8" class="st1" width="1" height="1"/>
			<rect x="5" y="8" class="st1" width="1" height="1"/>
			<rect x="4" y="8" class="st1" width="1" height="1"/>
			<rect x="20" y="9" width="1" height="1"/>
			<rect x="19" y="9" width="1" height="1"/>
			<rect x="18" y="9" class="st3" width="1" height="1"/>
			<rect x="17" y="9" class="st5" width="1" height="1"/>
			<rect x="16" y="9" class="st5" width="1" height="1"/>
			<rect x="15" y="9" class="st5" width="1" height="1"/>
			<rect x="14" y="9" class="st5" width="1" height="1"/>
			<rect x="13" y="9" width="1" height="1"/>
			<rect x="12" y="9" class="st1" width="1" height="1"/>
			<rect x="11" y="9" class="st2" width="1" height="1"/>
			<rect x="10" y="9" class="st2" width="1" height="1"/>
			<rect x="9" y="9" width="1" height="1"/>
			<rect x="8" y="9" width="1" height="1"/>
			<rect x="7" y="9" width="1" height="1"/>
			<rect x="6" y="9" class="st1" width="1" height="1"/>
			<rect x="5" y="9" width="1" height="1"/>
			<rect x="4" y="9" width="1" height="1"/>
			<rect x="20" y="10" width="1" height="1"/>
			<rect x="19" y="10" class="st3" width="1" height="1"/>
			<rect x="18" y="10" class="st3" width="1" height="1"/>
			<rect x="17" y="10" class="st5" width="1" height="1"/>
			<rect x="16" y="10" class="st5" width="1" height="1"/>
			<rect x="15" y="10" class="st5" width="1" height="1"/>
			<rect x="14" y="10" class="st5" width="1" height="1"/>
			<rect x="13" y="10" width="1" height="1"/>
			<rect x="12" y="10" class="st1" width="1" height="1"/>
			<rect x="11" y="10" width="1" height="1"/>
			<rect x="10" y="10" width="1" height="1"/>
			<rect x="9" y="10" width="1" height="1"/>
			<rect x="8" y="10" class="st5" width="1" height="1"/>
			<rect x="7" y="10" width="1" height="1"/>
			<rect x="6" y="10" class="st2" width="1" height="1"/>
			<rect x="5" y="10" class="st2" width="1" height="1"/>
			<rect x="4" y="10" width="1" height="1"/>
			<rect x="20" y="11" width="1" height="1"/>
			<rect x="19" y="11" class="st3" width="1" height="1"/>
			<rect x="18" y="11" class="st5" width="1" height="1"/>
			<rect x="17" y="11" class="st5" width="1" height="1"/>
			<rect x="16" y="11" class="st5" width="1" height="1"/>
			<rect x="15" y="11" class="st6" width="1" height="1"/>
			<rect x="14" y="11" class="st5" width="1" height="1"/>
			<rect x="13" y="11" width="1" height="1"/>
			<rect x="12" y="11" width="1" height="1"/>
			<rect x="11" y="11" class="st5" width="1" height="1"/>
			<rect x="10" y="11" class="st5" width="1" height="1"/>
			<rect x="9" y="11" class="st5" width="1" height="1"/>
			<rect x="8" y="11" class="st5" width="1" height="1"/>
			<rect x="7" y="11" width="1" height="1"/>
			<rect x="6" y="11" width="1" height="1"/>
			<rect x="5" y="11" class="st2" width="1" height="1"/>
			<rect x="4" y="11" width="1" height="1"/>
			<rect x="20" y="12" width="1" height="1"/>
			<rect x="19" y="12" class="st3" width="1" height="1"/>
			<rect x="18" y="12" class="st5" width="1" height="1"/>
			<rect x="17" y="12" class="st6" width="1" height="1"/>
			<rect x="16" y="12" class="st5" width="1" height="1"/>
			<rect x="15" y="12" class="st5" width="1" height="1"/>
			<rect x="14" y="12" class="st5" width="1" height="1"/>
			<rect x="13" y="12" class="st5" width="1" height="1"/>
			<rect x="12" y="12" class="st5" width="1" height="1"/>
			<rect x="11" y="12" class="st5" width="1" height="1"/>
			<rect x="10" y="12" class="st5" width="1" height="1"/>
			<rect x="9" y="12" class="st5" width="1" height="1"/>
			<rect x="8" y="12" class="st3" width="1" height="1"/>
			<rect x="7" y="12" class="st3" width="1" height="1"/>
			<rect x="6" y="12" width="1" height="1"/>
			<rect x="5" y="12" class="st2" width="1" height="1"/>
			<rect x="4" y="12" width="1" height="1"/>
			<rect x="20" y="13" width="1" height="1"/>
			<rect x="19" y="13" class="st3" width="1" height="1"/>
			<rect x="18" y="13" class="st5" width="1" height="1"/>
			<rect x="17" y="13" class="st5" width="1" height="1"/>
			<rect x="16" y="13" class="st5" width="1" height="1"/>
			<rect x="15" y="13" class="st5" width="1" height="1"/>
			<rect x="14" y="13" class="st5" width="1" height="1"/>
			<rect x="13" y="13" class="st5" width="1" height="1"/>
			<rect x="12" y="13" class="st5" width="1" height="1"/>
			<rect x="11" y="13" class="st5" width="1" height="1"/>
			<rect x="10" y="13" class="st5" width="1" height="1"/>
			<rect x="9" y="13" class="st5" width="1" height="1"/>
			<rect x="8" y="13" class="st5" width="1" height="1"/>
			<rect x="7" y="13" class="st3" width="1" height="1"/>
			<rect x="6" y="13" class="st3" width="1" height="1"/>
			<rect x="5" y="13" width="1" height="1"/>
			<rect x="4" y="13" width="1" height="1"/>
			<rect x="20" y="14" width="1" height="1"/>
			<rect x="19" y="14" class="st3" width="1" height="1"/>
			<rect x="18" y="14" class="st5" width="1" height="1"/>
			<rect x="17" y="14" class="st5" width="1" height="1"/>
			<rect x="16" y="14" class="st5" width="1" height="1"/>
			<rect x="15" y="14" class="st5" width="1" height="1"/>
			<rect x="14" y="14" class="st5" width="1" height="1"/>
			<rect x="13" y="14" class="st5" width="1" height="1"/>
			<rect x="12" y="14" class="st5" width="1" height="1"/>
			<rect x="11" y="14" class="st5" width="1" height="1"/>
			<rect x="10" y="14" class="st5" width="1" height="1"/>
			<rect x="9" y="14" class="st5" width="1" height="1"/>
			<rect x="8" y="14" class="st5" width="1" height="1"/>
			<rect x="7" y="14" class="st3" width="1" height="1"/>
			<rect x="6" y="14" class="st3" width="1" height="1"/>
			<rect x="5" y="14" class="st3" width="1" height="1"/>
			<rect x="4" y="14" width="1" height="1"/>
			<rect x="20" y="15" width="1" height="1"/>
			<rect x="19" y="15" class="st3" width="1" height="1"/>
			<rect x="18" y="15" class="st6" width="1" height="1"/>
			<rect x="17" y="15" class="st5" width="1" height="1"/>
			<rect x="16" y="15" class="st5" width="1" height="1"/>
			<rect x="15" y="15" class="st5" width="1" height="1"/>
			<rect x="14" y="15" class="st6" width="1" height="1"/>
			<rect x="13" y="15" class="st5" width="1" height="1"/>
			<rect x="12" y="15" class="st5" width="1" height="1"/>
			<rect x="11" y="15" class="st5" width="1" height="1"/>
			<rect x="10" y="15" class="st6" width="1" height="1"/>
			<rect x="9" y="15" class="st5" width="1" height="1"/>
			<rect x="8" y="15" class="st3" width="1" height="1"/>
			<rect x="7" y="15" class="st3" width="1" height="1"/>
			<rect x="6" y="15" class="st3" width="1" height="1"/>
			<rect x="5" y="15" width="1" height="1"/>
			<rect x="20" y="16" width="1" height="1"/>
			<rect x="19" y="16" class="st3" width="1" height="1"/>
			<rect x="18" y="16" class="st5" width="1" height="1"/>
			<rect x="17" y="16" class="st5" width="1" height="1"/>
			<rect x="16" y="16" class="st5" width="1" height="1"/>
			<rect x="15" y="16" class="st5" width="1" height="1"/>
			<rect x="14" y="16" class="st5" width="1" height="1"/>
			<rect x="13" y="16" class="st5" width="1" height="1"/>
			<rect x="12" y="16" class="st5" width="1" height="1"/>
			<rect x="11" y="16" class="st5" width="1" height="1"/>
			<rect x="10" y="16" class="st5" width="1" height="1"/>
			<rect x="9" y="16" class="st3" width="1" height="1"/>
			<rect x="8" y="16" class="st3" width="1" height="1"/>
			<rect x="7" y="16" class="st3" width="1" height="1"/>
			<rect x="6" y="16" class="st3" width="1" height="1"/>
			<rect x="5" y="16" width="1" height="1"/>
			<rect x="20" y="17" width="1" height="1"/>
			<rect x="19" y="17" class="st3" width="1" height="1"/>
			<rect x="18" y="17" class="st5" width="1" height="1"/>
			<rect x="17" y="17" class="st5" width="1" height="1"/>
			<rect x="16" y="17" class="st5" width="1" height="1"/>
			<rect x="15" y="17" class="st5" width="1" height="1"/>
			<rect x="14" y="17" class="st5" width="1" height="1"/>
			<rect x="13" y="17" class="st5" width="1" height="1"/>
			<rect x="12" y="17" class="st5" width="1" height="1"/>
			<rect x="11" y="17" class="st5" width="1" height="1"/>
			<rect x="10" y="17" class="st3" width="1" height="1"/>
			<rect x="9" y="17" class="st3" width="1" height="1"/>
			<rect x="8" y="17" class="st3" width="1" height="1"/>
			<rect x="7" y="17" class="st3" width="1" height="1"/>
			<rect x="6" y="17" width="1" height="1"/>
			<rect x="20" y="18" width="1" height="1"/>
			<rect x="19" y="18" class="st3" width="1" height="1"/>
			<rect x="18" y="18" class="st3" width="1" height="1"/>
			<rect x="17" y="18" class="st5" width="1" height="1"/>
			<rect x="16" y="18" class="st5" width="1" height="1"/>
			<rect x="15" y="18" class="st6" width="1" height="1"/>
			<rect x="14" y="18" class="st5" width="1" height="1"/>
			<rect x="13" y="18" class="st5" width="1" height="1"/>
			<rect x="12" y="18" class="st5" width="1" height="1"/>
			<rect x="11" y="18" class="st3" width="1" height="1"/>
			<rect x="10" y="18" class="st3" width="1" height="1"/>
			<rect x="9" y="18" class="st3" width="1" height="1"/>
			<rect x="8" y="18" width="1" height="1"/>
			<rect x="7" y="18" width="1" height="1"/>
			<rect x="19" y="19" width="1" height="1"/>
			<rect x="18" y="19" class="st3" width="1" height="1"/>
			<rect x="17" y="19" class="st3" width="1" height="1"/>
			<rect x="16" y="19" class="st5" width="1" height="1"/>
			<rect x="15" y="19" class="st5" width="1" height="1"/>
			<rect x="14" y="19" class="st5" width="1" height="1"/>
			<rect x="13" y="19" class="st3" width="1" height="1"/>
			<rect x="12" y="19" class="st3" width="1" height="1"/>
			<rect x="11" y="19" class="st3" width="1" height="1"/>
			<rect x="10" y="19" class="st3" width="1" height="1"/>
			<rect x="9" y="19" width="1" height="1"/>
			<rect x="18" y="20" width="1" height="1"/>
			<rect x="17" y="20" class="st3" width="1" height="1"/>
			<rect x="16" y="20" class="st3" width="1" height="1"/>
			<rect x="15" y="20" class="st3" width="1" height="1"/>
			<rect x="14" y="20" class="st3" width="1" height="1"/>
			<rect x="13" y="20" class="st3" width="1" height="1"/>
			<rect x="12" y="20" width="1" height="1"/>
			<rect x="11" y="20" width="1" height="1"/>
			<rect x="10" y="20" width="1" height="1"/>
			<rect x="17" y="21" width="1" height="1"/>
			<rect x="16" y="21" width="1" height="1"/>
			<rect x="15" y="21" width="1" height="1"/>
			<rect x="14" y="21" width="1" height="1"/>
			<rect x="13" y="21" width="1" height="1"/>
		</g>
		<g>
		</g>
	</g>
</g>
</svg>
